<?xml version="1.0" encoding="UTF-8"?><svg id="a" xmlns="http://www.w3.org/2000/svg" viewBox="0 0 68 68"><path d="M42.05,40.2c-.11.17-.21.31-.29.43-.28.4-.46.88-.52,1.37-1.17,9.55-3.13,14.54-4.46,14.54-1.5,0-4.87-2.58-5.08-10.25,0-1.96-1.35-2.94-2.15-3.35-.61-.31-1.34-.31-1.95,0-.8.41-2.15,1.39-2.15,3.36-.22,7.67-3.58,10.25-5.08,10.25-1.33,0-3.29-5-4.46-14.54-.06-.49-.24-.97-.52-1.37-1.15-1.63-6.64-10.08-2.1-15.85,3.45-4.38,6.6-4.2,10.9-2.4.37.16.8-.02.95-.39.16-.37-.02-.8-.39-.95-3.77-1.58-8.17-2.79-12.6,2.85-5.05,6.42.3,15.09,2.05,17.59.15.21.24.45.27.71.89,7.22,2.63,15.82,5.91,15.82,2.4,0,6.3-3.17,6.54-11.66,0-.01,0-.02,0-.03,0-1.14.74-1.76,1.36-2.08.2-.1.43-.1.62,0,.62.32,1.36.94,1.36,2.08h0s0,.02,0,.04c.24,8.49,4.14,11.66,6.54,11.66,3.27,0,5.02-8.6,5.91-15.82.03-.26.12-.5.27-.71.09-.13.19-.28.31-.46.22-.33.13-.79-.2-1.01-.34-.22-.79-.13-1.01.2Z" style="fill:#1a171b;"/><path d="M54.27,15.56c-3.08-2.12-7.61-2.41-10.33-.65-.2.13-.42.22-.64.27-1.02-4.02-4.92-5.14-4.97-5.15-.39-.1-.78.13-.89.51-.11.39.12.79.51.89.13.04,2.74.81,3.74,3.48,0,0,0,0,0,0-2.72-1.76-7.25-1.47-10.33.65-1.83,1.26-4.7,4.27-3.41,10.24,1.35,6.28,3.66,10.24,6.85,11.79,2.88,1.4,5.73.42,7.18-.28.54-.26,1.15-.26,1.68,0,.91.44,2.37.99,4.05.99.99,0,2.06-.19,3.13-.71,3.19-1.55,5.49-5.51,6.84-11.79,1.29-5.97-1.58-8.98-3.41-10.24ZM56.26,25.49c-1.26,5.82-3.29,9.45-6.06,10.79-2.21,1.08-4.43.44-5.9-.28-.47-.23-.98-.35-1.48-.35s-1.01.12-1.48.35c-1.47.72-3.69,1.36-5.9.28-2.76-1.34-4.8-4.97-6.06-10.79-1.05-4.88.95-7.45,2.81-8.73,2.9-2,6.78-1.88,8.71-.63,1.18.77,2.65.77,3.84,0,1.94-1.25,5.82-1.37,8.71.63,1.86,1.29,3.87,3.85,2.81,8.73Z" style="fill:#1a171b;"/><path d="M39.78,18.31c-1.78-.95-4.46-.65-6.22.69-1.03.78-2.65,2.61-1.9,6.09.31,1.43.71,2.67,1.18,3.68.12.26.39.42.66.42.1,0,.21-.02.31-.07.36-.17.52-.6.35-.97-.43-.92-.79-2.05-1.08-3.37-.44-2.02.03-3.62,1.35-4.62,1.46-1.1,3.56-1.15,4.67-.56.35.19.79.05.98-.3s.05-.79-.3-.98Z" style="fill:#1a171b;"/></svg>