<?xml version="1.0" encoding="UTF-8"?><svg id="a" xmlns="http://www.w3.org/2000/svg" viewBox="0 0 68 68"><path d="M54.36,10H13.64c-2.01,0-3.64,1.63-3.64,3.64v32.1c0,2,1.63,3.64,3.64,3.64h15v3.87h-1.03c-2.22,0-4.03,1.81-4.03,4.03,0,.4.33.73.73.73h19.39c.4,0,.73-.33.73-.73,0-2.22-1.81-4.03-4.03-4.03h-1.03v-3.87h15c2,0,3.64-1.63,3.64-3.64V13.64c0-2-1.63-3.64-3.64-3.64ZM51.51,38.98c.03,1.3.19,2.47.46,3.49h-1.97c.28-1.02.43-2.18.46-3.49,0,0,0-.02,0-.03,0-.44.17-.78.52-1,.35.22.52.56.52,1h0s0,.02,0,.03ZM52.96,38.94c0-1.31-.79-1.98-1.27-2.26-.44-.26-.98-.26-1.42,0-.47.28-1.26.95-1.27,2.26-.03,1.36-.21,2.54-.52,3.53h-2.72c-.58-2.27-.92-5.24-1.02-6.15-.03-.33-.14-.66-.31-.93-.19-.32-.69-1.2-1.15-2.34-.05-.12-.09-.24-.14-.37-.69-1.89-1.16-4.44.09-6.47.02-.04.05-.08.1-.18,1.95-2.89,3.62-2.17,5.86-.99-.33.09-.68.16-1.02.16-.4,0-.73.33-.73.73s.33.73.73.73c.15,0,.29,0,.44-.02,1.01-.09,1.95-.49,2.67-.83,0,0,0,0,0,0h0s0,0,0,0c0,0,0,0,.01,0,.38-.18.75-.38,1.12-.58.19-.1.39-.2.58-.3.07-.04.13-.07.2-.1.12-.06.25-.12.37-.18.08-.04.16-.07.24-.11.11-.05.21-.1.32-.14.08-.03.16-.06.24-.09.1-.04.2-.07.3-.1.08-.02.16-.04.24-.06.1-.02.19-.04.29-.06.08-.01.16-.02.24-.03.09,0,.19-.01.28-.01.08,0,.16,0,.23,0,.09,0,.19.03.28.05.07.02.15.03.22.05.03,0,.05.02.08.03v18.31h-3.06c-.32-.98-.49-2.17-.52-3.53ZM34.78,38.98c.03,1.3.19,2.47.46,3.49h-1.97c.28-1.02.43-2.18.46-3.49,0,0,0-.02,0-.03,0-.44.18-.78.52-1,.35.22.52.56.52,1h0s0,.02,0,.03ZM36.23,38.94c0-1.31-.79-1.98-1.27-2.26-.44-.26-.98-.26-1.42,0-.47.28-1.26.95-1.27,2.26-.03,1.36-.21,2.54-.52,3.53h-2.72c-.58-2.27-.92-5.24-1.02-6.15-.04-.33-.14-.65-.31-.93-.22-.36-.64-1.1-1.03-2.06-.87-2.08-1.58-5.04-.07-7.3,0,0,0-.01.01-.02.12-.18.25-.35.37-.51.04-.06.09-.1.13-.15.08-.09.16-.19.23-.27.06-.06.11-.11.16-.16.06-.06.13-.13.2-.18.06-.05.12-.09.18-.14.06-.04.12-.09.18-.13.06-.04.12-.07.18-.11.06-.03.12-.07.17-.1.06-.03.12-.05.18-.08.06-.02.11-.05.17-.06.06-.02.12-.03.19-.05.06-.01.11-.03.17-.04.06,0,.13-.01.19-.02.06,0,.11,0,.17,0,.06,0,.13,0,.19,0,.06,0,.12,0,.17.01.06,0,.13.02.19.03.06.01.12.02.18.04.07.01.13.03.2.05.06.02.12.03.18.05.07.02.13.04.2.07.06.02.12.05.18.07.07.03.14.05.21.08.06.03.12.05.19.08.07.03.14.06.21.1.07.03.13.06.2.09.07.04.14.07.22.11.07.03.14.07.21.11.08.04.15.08.23.12,0,0,.02,0,.02.01-.07.02-.14.04-.22.06-.06.01-.13.03-.19.04-.2.04-.41.06-.61.06-.4,0-.73.33-.73.73s.33.73.73.73c.9,0,1.74-.26,2.43-.55.23-.1.45-.2.65-.29,0,0,.01,0,.02,0,0,0,0,0,0,0,.38-.18.76-.39,1.14-.59.15-.08.29-.15.44-.23.05-.03.1-.05.15-.08.09-.05.18-.1.28-.14.06-.03.11-.05.17-.08.08-.04.16-.08.24-.12.06-.03.11-.05.17-.07.08-.04.16-.07.24-.1.05-.02.1-.04.16-.06.08-.03.16-.06.24-.09.05-.02.1-.03.15-.05.08-.02.16-.05.23-.07.05-.01.1-.02.15-.03.08-.02.15-.03.23-.04.05,0,.1,0,.15-.01.07,0,.15-.01.22-.02.05,0,.1,0,.15,0,.07,0,.14,0,.21.01.05,0,.1.02.15.03.07.01.14.03.21.05.05.02.1.04.16.05.07.02.14.05.21.08.05.02.11.05.16.08.07.04.14.07.2.12.05.04.11.08.16.11.07.05.13.1.2.15.06.05.11.1.17.15.07.06.13.12.2.19.06.06.11.12.17.19.07.08.13.15.2.23.06.07.12.15.18.23.04.05.08.11.12.16,0,.02-.01.03-.02.05-.03.07-.06.13-.09.2-.05.1-.09.2-.13.29-.03.07-.05.14-.08.21-.04.1-.07.2-.1.29-.02.07-.04.15-.06.22-.03.1-.05.19-.07.29-.02.07-.03.15-.05.22-.02.1-.04.2-.05.3-.01.07-.02.15-.03.22-.01.1-.02.2-.03.31,0,.07-.01.14-.02.21,0,.11,0,.21-.01.32,0,.06,0,.13,0,.19,0,.12,0,.24.01.36,0,.05,0,.1,0,.15,0,.17.02.34.04.51,0,0,0,.02,0,.02.02.16.04.32.07.48,0,.05.02.1.03.15.02.11.04.23.06.34.01.06.03.12.04.18.02.1.04.2.07.3.02.06.03.12.05.19.03.1.05.19.08.29.02.06.03.12.05.18.03.09.06.19.09.28.02.06.04.11.06.17.03.09.06.18.09.27.02.05.04.1.05.15.01.03.02.06.03.09-.42,1.01-.86,1.79-1.04,2.08-.17.28-.27.59-.31.93-.1.91-.44,3.88-1.02,6.15h-2.72c-.32-.98-.49-2.17-.52-3.53ZM16.99,41.51c.02-.09.03-.19.05-.29.04-.25.08-.52.11-.79.01-.11.02-.21.03-.32.03-.37.06-.75.07-1.14v-.03c0-.44.18-.78.52-1,.35.22.52.56.52,1h0v.03c.01.39.03.77.07,1.14,0,.11.02.21.03.32.03.27.06.53.11.79.02.1.03.2.05.3.06.33.13.65.21.95h-1.97c.08-.3.15-.62.21-.95ZM20.28,42.47c-.02-.08-.05-.15-.07-.23-.03-.11-.06-.22-.09-.33-.04-.18-.08-.37-.12-.55-.02-.12-.05-.23-.07-.35-.03-.21-.06-.44-.09-.66-.01-.11-.03-.21-.04-.33-.03-.34-.05-.7-.06-1.07,0-1.31-.8-1.98-1.27-2.26-.44-.26-.98-.26-1.42,0-.47.28-1.26.95-1.27,2.26,0,.37-.03.72-.06,1.07-.01.11-.03.22-.04.33-.02.22-.05.45-.09.66-.02.12-.04.24-.07.36-.04.19-.08.37-.12.55-.03.12-.06.23-.09.34-.02.08-.05.15-.07.23h-3.8v-17.9s0,0,.01,0c.16-.12.33-.22.49-.3.02,0,.03-.02.05-.03.16-.07.33-.13.49-.16.02,0,.04,0,.06-.01.16-.03.33-.05.5-.04.02,0,.04,0,.05,0,.17,0,.34.03.52.06.02,0,.03,0,.05,0,.18.04.37.09.56.16.01,0,.03.01.04.01.2.07.4.15.6.24,0,0,.02,0,.03.01.21.09.43.2.66.32,0,0,0,0,0,0,.13.06.26.14.4.21-.33.09-.67.15-1.02.15-.4,0-.73.33-.73.73s.33.73.73.73c.9,0,1.74-.26,2.43-.55.24-.1.47-.2.67-.3,0,0,0,0,0,0,.38-.18.77-.39,1.14-.59.14-.08.29-.15.42-.22.06-.03.13-.06.19-.1.08-.04.16-.08.23-.12.06-.03.13-.06.19-.09.07-.04.15-.07.22-.11.06-.03.12-.06.19-.08.07-.03.14-.06.21-.09.06-.02.12-.05.18-.07.07-.03.14-.05.21-.08.06-.02.11-.04.17-.05.07-.02.14-.04.21-.06.06-.01.11-.03.17-.04.07-.01.13-.03.2-.04.06,0,.11-.01.17-.02.07,0,.13-.01.2-.01.06,0,.11,0,.17,0,.07,0,.13,0,.2.01.05,0,.11.01.16.02.07.01.13.02.2.04.05.01.11.03.16.05.07.02.13.04.2.07.05.02.11.05.16.08.07.03.13.07.2.11.05.03.11.07.16.11.07.04.13.09.2.14.06.04.11.09.17.14.06.06.13.12.2.18.06.06.11.11.17.17.07.07.13.15.19.22.06.07.12.14.17.21.02.03.04.06.06.09-.01.02-.02.04-.03.06-.04.07-.07.14-.1.21-.05.1-.1.21-.15.31-.03.07-.06.15-.09.22-.04.1-.08.2-.11.31-.03.08-.05.15-.07.23-.03.1-.06.21-.08.31-.02.08-.04.16-.05.23-.02.11-.04.21-.06.31-.01.08-.02.16-.04.23-.01.11-.02.21-.03.32,0,.08-.01.15-.02.23,0,.11,0,.22-.01.34,0,.07,0,.14,0,.21,0,.13,0,.25.01.38,0,.06,0,.11,0,.17.01.18.03.36.05.54,0,.02,0,.04,0,.05.02.16.04.32.07.48.01.06.02.12.04.18.02.11.04.23.07.34.02.07.03.14.05.21.02.1.05.2.07.3.02.07.04.15.06.22.03.1.05.19.08.29.02.07.04.14.07.21.03.09.06.18.09.28.02.07.05.14.07.21.03.09.06.18.1.26.03.07.05.13.08.2.01.03.02.06.03.09-.36.83-.72,1.46-.92,1.79-.17.28-.27.6-.31.93-.1.91-.44,3.88-1.02,6.15h-2.7ZM25.45,36.47c.01-.12.05-.24.11-.33.11-.18.27-.47.46-.82.18.35.35.64.46.82.06.1.09.21.11.33.12,1.13.43,3.78.97,6h-3.07c.55-2.31.87-5.11.97-6ZM41.94,36.47c.01-.12.05-.24.11-.33.11-.19.33-.56.58-1.05.25.49.46.86.58,1.05.06.09.09.21.11.33.09.89.41,3.69.97,6h-3.3c.55-2.31.88-5.11.97-6ZM11.45,13.64c0-1.2.98-2.18,2.18-2.18h40.73c1.2,0,2.18.98,2.18,2.18v9s-.02,0-.03,0c-.18-.04-.36-.06-.53-.07-.05,0-.09,0-.14,0-.18,0-.35,0-.53.02-.03,0-.06,0-.08.01-.16.02-.32.05-.48.08-.04,0-.08.02-.12.03-.17.04-.34.09-.51.14-.04.01-.09.03-.13.04-.17.06-.34.12-.51.19-.02,0-.04.02-.06.03-.16.07-.31.14-.47.21-.04.02-.08.04-.12.06-.16.08-.31.15-.47.23-.06.03-.12.06-.19.1-.09.05-.18.09-.26.14-.05.03-.11.05-.16.08-.03.01-.05.03-.08.04-.23.12-.46.24-.7.36-.26-.13-.52-.26-.78-.4-.14-.08-.29-.15-.44-.23-.03-.01-.05-.03-.08-.04-.12-.06-.25-.13-.37-.19-.04-.02-.08-.04-.12-.06-.11-.05-.22-.11-.34-.16-.05-.02-.1-.04-.15-.07-.11-.05-.21-.09-.32-.14-.06-.02-.11-.04-.17-.06-.1-.04-.21-.08-.31-.11-.06-.02-.12-.04-.18-.05-.1-.03-.21-.06-.31-.09-.06-.02-.12-.03-.19-.04-.1-.02-.21-.04-.31-.06-.06,0-.13-.02-.19-.02-.1-.01-.21-.02-.31-.03-.07,0-.13,0-.2,0-.1,0-.21,0-.31.01-.07,0-.13.01-.2.02-.1.01-.21.03-.31.05-.07.01-.13.03-.2.05-.1.03-.21.06-.31.1-.07.02-.13.05-.2.08-.11.04-.21.1-.32.16-.07.04-.13.07-.2.11-.11.06-.21.14-.32.22-.06.05-.13.09-.19.14-.11.09-.22.19-.33.29-.06.06-.12.11-.19.17-.11.11-.23.25-.34.38-.06.07-.11.12-.17.19,0,0-.01.02-.02.02,0,0-.01-.02-.02-.02-.04-.05-.08-.09-.13-.14-.12-.14-.24-.28-.36-.41-.06-.06-.12-.11-.18-.17-.11-.1-.21-.19-.32-.28-.06-.05-.13-.1-.19-.15-.1-.08-.21-.15-.31-.21-.06-.04-.13-.08-.19-.11-.11-.06-.21-.11-.32-.16-.06-.03-.12-.05-.17-.08-.12-.05-.25-.09-.37-.12-.04-.01-.08-.03-.12-.04-.16-.04-.33-.07-.49-.09-.03,0-.05,0-.08,0-.12,0-.23-.02-.35-.02-.02,0-.04,0-.05,0-.09,0-.17,0-.26.01-.09,0-.18.01-.26.02-.08,0-.17.03-.25.04-.09.02-.18.03-.27.05-.08.02-.16.04-.24.06-.09.03-.18.05-.27.08-.07.02-.14.05-.21.07-.1.03-.19.07-.29.1-.06.02-.11.05-.17.07-.11.04-.22.09-.32.14-.03.01-.05.03-.08.04-.45.21-.89.44-1.31.66-.26.14-.52.27-.78.41-.26-.13-.52-.27-.78-.41-.14-.07-.28-.15-.43-.22-.05-.03-.1-.05-.15-.08-.1-.05-.2-.1-.3-.15-.06-.03-.12-.06-.19-.09-.09-.04-.18-.09-.27-.13-.07-.03-.14-.06-.21-.09-.09-.04-.17-.08-.26-.11-.07-.03-.15-.06-.22-.08-.09-.03-.17-.06-.26-.09-.07-.03-.15-.05-.23-.07-.09-.03-.17-.05-.26-.07-.08-.02-.15-.04-.23-.05-.09-.02-.17-.04-.26-.05-.08-.01-.16-.02-.23-.03-.09,0-.17-.02-.26-.02-.08,0-.16,0-.23,0-.09,0-.18,0-.27,0-.08,0-.16,0-.23.02-.09.01-.18.03-.27.05-.08.02-.15.03-.23.05-.09.03-.19.06-.29.09-.07.03-.15.05-.22.08-.1.04-.21.1-.31.15-.06.04-.13.06-.19.1-.14.08-.27.18-.41.28-.03.02-.07.04-.1.07-.17.13-.34.28-.51.45-.04.04-.08.09-.12.13-.12.12-.23.24-.35.38-.1-.12-.2-.22-.31-.33-.05-.05-.1-.12-.16-.17-.34-.33-.68-.6-1.02-.8-.05-.03-.09-.04-.14-.07-.12-.07-.25-.13-.37-.19-.06-.03-.12-.04-.19-.07-.11-.04-.21-.08-.32-.11-.07-.02-.14-.03-.21-.04-.1-.02-.2-.04-.3-.05-.07,0-.15-.01-.22-.02-.09,0-.19-.01-.28-.01-.07,0-.15,0-.22,0-.09,0-.18.01-.27.02-.08,0-.15.02-.23.03-.09.01-.18.03-.27.05-.08.02-.15.03-.23.05-.09.02-.17.05-.26.07-.07.02-.15.04-.22.07-.09.03-.18.06-.26.09-.07.03-.14.05-.21.08-.09.04-.18.08-.27.11-.06.03-.13.06-.19.08-.11.05-.21.1-.31.15-.05.02-.09.04-.13.06-.3.15-.6.3-.88.46-.05.03-.1.05-.15.08-.21.11-.42.22-.63.32-.26-.13-.51-.26-.77-.39-.12-.06-.24-.13-.36-.19-.03-.01-.05-.03-.08-.04-.1-.05-.2-.1-.3-.15-.04-.02-.07-.04-.11-.05-.09-.05-.18-.09-.27-.13-.04-.02-.08-.04-.12-.05-.1-.04-.2-.09-.29-.13-.03-.01-.06-.03-.09-.04-.13-.06-.26-.11-.39-.16,0,0,0,0-.01,0-.12-.05-.25-.09-.37-.13-.04-.01-.08-.02-.12-.04-.09-.03-.18-.05-.27-.08-.05-.01-.09-.02-.14-.03-.09-.02-.18-.04-.26-.05-.05,0-.09-.02-.14-.02-.1-.01-.19-.03-.29-.03-.04,0-.07,0-.11-.01-.13,0-.27-.01-.4,0-.02,0-.04,0-.06,0-.11,0-.23.01-.34.03-.04,0-.09.01-.13.02-.09.02-.19.04-.28.06-.05.01-.09.02-.14.04-.09.03-.19.06-.28.09-.04.02-.09.03-.13.05-.02,0-.05.02-.07.03v-9.25ZM42.87,56.54h-17.73c.32-1.07,1.3-1.85,2.47-1.85h12.79c1.17,0,2.16.78,2.47,1.85ZM37.91,53.24h-7.82v-3.87h7.82v3.87ZM56.55,45.74c0,1.2-.98,2.18-2.18,2.18H13.64c-1.2,0-2.18-.98-2.18-2.18v-1.82h45.09v1.82Z" style="fill:#1a171b;"/><path d="M15.29,16h5.49c.4,0,.73-.33.73-.73s-.33-.73-.73-.73h-5.49c-.4,0-.73.33-.73.73s.33.73.73.73Z" style="fill:#1a171b;"/><path d="M15.29,20.3h9.99c.4,0,.73-.33.73-.73s-.33-.73-.73-.73h-9.99c-.4,0-.73.33-.73.73s.33.73.73.73Z" style="fill:#1a171b;"/><path d="M28.82,19.58c0,.4.33.73.73.73h7.74c.4,0,.73-.33.73-.73s-.33-.73-.73-.73h-7.74c-.4,0-.73.33-.73.73Z" style="fill:#1a171b;"/><path d="M25.04,16h9.24c.4,0,.73-.33.73-.73s-.33-.73-.73-.73h-9.24c-.4,0-.73.33-.73.73s.33.73.73.73Z" style="fill:#1a171b;"/></svg>