<?xml version="1.0" encoding="UTF-8"?><svg id="a" xmlns="http://www.w3.org/2000/svg" viewBox="0 0 68 68"><path d="M56.55,22.11c-3.49-5.18-7.07-3.29-10.22-1.62-.37.2-.74.39-1.12.58-.37-.19-.75-.38-1.12-.58-3.12-1.65-6.64-3.51-10.1,1.44-3.45-4.96-6.98-3.09-10.1-1.44-.37.2-.74.39-1.12.58-.37-.19-.75-.38-1.12-.58-3.15-1.67-6.73-3.56-10.22,1.62-3.44,5.11.19,12,1.38,13.99.09.15.15.33.17.52.88,8.39,2.31,12.64,4.23,12.64,1.71,0,4.49-2.54,4.66-9.36,0-.01,0-.02,0-.03,0-.68.28-1.19.84-1.53.04-.03.08-.03.12,0,.55.33.84.85.84,1.53h0s0,.02,0,.03c.17,6.82,2.94,9.36,4.66,9.36,1.92,0,3.35-4.25,4.23-12.64.02-.19.08-.37.17-.52.31-.52.78-1.38,1.25-2.44.48,1.07.95,1.92,1.27,2.44.09.15.15.33.17.52.88,8.39,2.31,12.64,4.23,12.64,1.71,0,4.49-2.54,4.66-9.36,0,0,0-.02,0-.03,0-.68.28-1.19.83-1.53.04-.03.08-.03.12,0,.56.33.84.85.84,1.53h0s0,.02,0,.03c.17,6.82,2.94,9.36,4.66,9.36,1.92,0,3.35-4.25,4.23-12.64.02-.19.08-.37.17-.52,1.2-1.99,4.83-8.88,1.38-13.99ZM31.49,35.35c-.2.33-.33.72-.37,1.12-.8,7.58-2.11,11.19-2.78,11.34-.8,0-3.06-1.89-3.2-7.95,0-1.6-.97-2.42-1.54-2.76-.51-.3-1.11-.3-1.62,0-.57.34-1.54,1.16-1.54,2.76-.15,6.06-2.4,7.95-3.2,7.95-.68-.15-1.99-3.77-2.79-11.34-.04-.4-.17-.79-.37-1.12-.77-1.28-4.46-7.92-1.43-12.43,1.36-2.02,2.65-2.73,3.98-2.73s2.78.75,4.35,1.58l.08.04c-.64.22-1.29.36-1.92.36-.4,0-.73.33-.73.73s.33.73.73.73c1.38,0,2.69-.48,3.95-1.09,0,0,.01,0,.02,0,.5-.24.99-.5,1.47-.76,3.11-1.65,5.57-2.95,8.34,1.15.1.15.18.3.26.45-.87,1.96-.89,4.09-.53,6.06h-5.5v-.73c0-1.6-1.3-2.91-2.91-2.91h-2.91c-1.6,0-2.91,1.3-2.91,2.91v.73h-2.56c-.4,0-.73.33-.73.73s.33.73.73.73h2.56v.73c0,1.6,1.3,2.91,2.91,2.91h2.91c1.6,0,2.91-1.3,2.91-2.91v-.73h5.84c.07.26.15.51.23.76-.62,1.78-1.41,3.19-1.72,3.71ZM19.88,28.71c0-.8.65-1.46,1.45-1.46h2.91c.8,0,1.45.65,1.45,1.46v2.91c0,.8-.65,1.46-1.45,1.46h-2.91c-.8,0-1.45-.65-1.45-1.46v-2.91ZM53.92,35.35c-.2.33-.33.72-.37,1.12-.8,7.58-2.11,11.19-2.78,11.34-.8,0-3.06-1.88-3.2-7.95,0-1.6-.97-2.42-1.54-2.76-.51-.3-1.11-.3-1.62,0-.57.34-1.54,1.16-1.54,2.76-.15,6.06-2.4,7.95-3.2,7.95-.68-.15-1.99-3.77-2.79-11.34-.04-.4-.17-.79-.37-1.12-.36-.59-1.33-2.33-1.98-4.47h6.33v.73c0,1.6,1.3,2.91,2.91,2.91h2.91c1.6,0,2.91-1.3,2.91-2.91v-.77h2.77c.4,0,.73-.33.73-.73s-.33-.73-.73-.73h-2.77v-.68c0-1.6-1.3-2.91-2.91-2.91h-2.91c-1.6,0-2.91,1.3-2.91,2.91v.73h-6.71c-.44-2.16-.4-4.53.93-6.51,1.36-2.02,2.65-2.73,3.98-2.73s2.78.75,4.35,1.58c.03.01.05.03.08.04-.64.22-1.29.36-1.92.36-.4,0-.73.33-.73.73s.33.73.73.73c1.94,0,3.72-.94,5.44-1.86,3.12-1.65,5.57-2.95,8.34,1.15,3.04,4.51-.65,11.14-1.43,12.43ZM48.12,31.61c0,.8-.65,1.46-1.45,1.46h-2.91c-.8,0-1.45-.65-1.45-1.46v-2.91c0-.8.65-1.46,1.45-1.46h2.91c.8,0,1.45.65,1.45,1.46v2.91Z" style="fill:#1a171b;"/></svg>