<?xml version="1.0" encoding="UTF-8"?><svg id="a" xmlns="http://www.w3.org/2000/svg" viewBox="0 0 68 68"><path d="M20.85,39.36c.04.37.36.65.72.65.03,0,.05,0,.08,0,.4-.04.69-.4.64-.8-.06-.55-.24-1.09-.53-1.54-1.23-1.96-7.12-12.07-2.23-19.01,4.55-6.45,8.76-4.32,13.64-1.85.28.14.57.29.86.43-1.31.5-2.63.85-3.96.85-.4,0-.73.33-.73.73s.33.73.73.73c2.07,0,4.04-.7,5.96-1.58,0,0,.02,0,.03-.01.79-.36,1.57-.75,2.35-1.15,1.31-.66,2.55-1.29,3.79-1.75.38-.14.57-.56.43-.93-.14-.38-.56-.57-.94-.43-1.32.49-2.65,1.16-3.94,1.81-.65.33-1.3.66-1.96.97-.66-.31-1.31-.64-1.96-.97-5.02-2.54-10.21-5.17-15.48,2.31-5.29,7.51.33,17.68,2.18,20.63.17.27.28.59.32.93Z" style="fill:#1a171b;"/><path d="M54.31,21.77c-.39.08-.65.46-.57.85,1.24,6.2-2.69,13.07-3.92,15.03-.29.45-.47.99-.53,1.54-1.25,11.39-3.35,17.35-4.78,17.35-1.61,0-5.21-3.09-5.44-12.29,0-2.23-1.4-3.37-2.23-3.84-.65-.38-1.44-.38-2.09,0-.83.48-2.23,1.61-2.23,3.84-.23,9.19-3.83,12.29-5.44,12.29-.18,0-1.11-.19-2.28-3.86-.12-.38-.53-.59-.91-.47-.38.12-.59.53-.47.91,1.05,3.33,2.22,4.88,3.67,4.88,2.53,0,6.64-3.72,6.89-13.69,0-.01,0-.02,0-.03,0-1.44.82-2.21,1.5-2.6.21-.12.44-.12.64,0,.68.39,1.5,1.16,1.5,2.6h0s0,.02,0,.03c.25,9.98,4.36,13.69,6.89,13.69,3.45,0,5.29-10.14,6.23-18.64.04-.34.15-.66.32-.93,1.3-2.07,5.46-9.37,4.11-16.09-.08-.39-.46-.65-.86-.57Z" style="fill:#1a171b;"/><path d="M57.39,14.37c-.28-.28-.74-.28-1.03,0l-1.12,1.12-4.31-5.23c-.13-.16-.32-.25-.53-.26-.21,0-.41.07-.55.21l-4.88,4.88h0s0,0,0,0l-4.88,4.88h0s0,0,0,0l-2.44,2.44c-.14.14-.22.34-.21.55,0,.2.11.4.26.53l5.23,4.31-1.56,1.56c-6.86,0-23.28,16.3-30.11,23.4-1.18,1.22-1.16,3.13.05,4.33.58.59,1.36.91,2.19.91s1.61-.32,2.19-.91l26.48-26.47s.01-.01.02-.02l15.2-15.2c.28-.28.28-.74,0-1.03ZM14.67,56.06c-.62.62-1.7.62-2.32,0-.64-.64-.65-1.65-.03-2.3,9.69-10.08,21.33-20.64,27.28-22.63l-24.92,24.92ZM39.25,22.87l1.36-1.36,2.15,2.15c.14.14.33.21.51.21s.37-.07.51-.21c.28-.28.28-.74,0-1.03l-2.15-2.15,1.41-1.41,2.15,2.15c.14.14.33.21.51.21s.37-.07.51-.21c.28-.28.28-.74,0-1.03l-2.15-2.15,1.41-1.41,2.15,2.15c.14.14.33.21.51.21s.37-.07.51-.21c.28-.28.28-.74,0-1.03l-2.15-2.16,1.41-1.41,2.15,2.15c.14.14.33.21.51.21s.37-.07.51-.21c.28-.28.28-.74,0-1.03l-2.15-2.15,1.36-1.36,3.89,4.72-7.08,7.08-3.15,3.15-4.72-3.89Z" style="fill:#1a171b;"/></svg>