<?xml version="1.0" encoding="UTF-8"?><svg id="a" xmlns="http://www.w3.org/2000/svg" viewBox="0 0 68 68"><path d="M56.89,46.79l-2.17-7.79c.88-1.72,1.33-3.55,1.33-5.43,0-3.7-1.73-7.17-4.86-9.77-.31-.26-.77-.21-1.02.1-.26.31-.21.77.09,1.02,2.8,2.32,4.34,5.39,4.34,8.65,0,1.74-.44,3.42-1.3,5-.09.17-.11.36-.06.54l1.93,6.92-8.01-1.67c-.15-.03-.3-.02-.44.05-2.09.92-4.44,1.42-6.82,1.45,0-6.49-6.3-11.78-14.04-11.78-.37,0-.73.02-1.1.05-.01-.18-.03-.37-.03-.55,0-3.25,1.53-6.32,4.31-8.63.31-.26.35-.72.09-1.02-.26-.31-.71-.35-1.02-.09-3.12,2.6-4.83,6.06-4.83,9.75,0,.24.01.48.03.71-6.52,1.01-11.48,5.82-11.48,11.59,0,1.6.38,3.16,1.12,4.63l-1.83,6.58c-.07.25,0,.51.17.69.14.15.33.23.53.23.05,0,.1,0,.15-.02l7.57-1.58c1.95.83,4.13,1.26,6.32,1.26,7.16,0,13.07-4.53,13.92-10.35,2.54-.01,5.06-.53,7.31-1.49l8.95,1.87s.1.01.15.01c.2,0,.39-.08.53-.23.17-.19.24-.45.17-.69ZM25.86,56.21c-2.07,0-4.13-.42-5.95-1.23-.14-.06-.29-.08-.44-.05l-6.63,1.39,1.59-5.71c.05-.18.03-.38-.06-.54-.72-1.33-1.09-2.74-1.09-4.2,0-5.7,5.65-10.34,12.58-10.34s12.58,4.64,12.58,10.34-5.65,10.33-12.58,10.33Z" style="fill:#1a171b;"/><path d="M48.75,35.4h-9.29c-.4,0-.73.33-.73.73s.33.73.73.73h9.29c.4,0,.73-.33.73-.73s-.33-.73-.73-.73Z" style="fill:#1a171b;"/><path d="M48.68,39.68h-6.17c-.4,0-.73.33-.73.73s.33.73.73.73h6.17c.4,0,.73-.33.73-.73s-.33-.73-.73-.73Z" style="fill:#1a171b;"/><path d="M31.95,41.19h-12.45c-.4,0-.73.33-.73.73s.33.73.73.73h12.45c.4,0,.73-.33.73-.73s-.33-.73-.73-.73Z" style="fill:#1a171b;"/><path d="M31.95,45.59h-12.45c-.4,0-.73.33-.73.73s.33.73.73.73h12.45c.4,0,.73-.33.73-.73s-.33-.73-.73-.73Z" style="fill:#1a171b;"/><path d="M28.81,49.99h-9.31c-.4,0-.73.33-.73.73s.33.73.73.73h9.31c.4,0,.73-.33.73-.73s-.33-.73-.73-.73Z" style="fill:#1a171b;"/><path d="M31.26,23.18c.76,6.18,2,9.32,3.69,9.32,1.49,0,3.9-1.89,4.05-6.96,0-.01,0-.02,0-.03,0-.15,0-.59.68-.91.61.31.61.76.61.91h0s0,.02,0,.03c.15,5.07,2.56,6.96,4.05,6.96,1.69,0,2.93-3.13,3.68-9.31.01-.1.05-.19.1-.27,1.04-1.48,4.18-6.59,1.16-10.42-3-3.81-6.03-2.43-8.71-1.22-.31.14-.62.28-.93.41-.31-.13-.62-.27-.93-.41-2.68-1.22-5.72-2.59-8.71,1.22-3.02,3.83.13,8.95,1.16,10.42.05.08.09.17.1.26ZM31.14,13.39c1.12-1.43,2.19-1.93,3.3-1.93,1,0,2.04.41,3.17.92-.35.07-.7.12-1.05.12-.4,0-.73.33-.73.73s.33.73.73.73c1.64,0,3.15-.68,4.61-1.35,2.61-1.18,4.68-2.12,6.97.79,2.46,3.12-.58,7.79-1.21,8.69-.19.27-.31.59-.35.92-.65,5.26-1.72,7.91-2.24,8.04-.65,0-2.47-1.32-2.59-5.55,0-.94-.51-1.73-1.4-2.19-.44-.22-.96-.23-1.4,0-.89.46-1.4,1.25-1.4,2.19-.12,4.24-1.94,5.55-2.58,5.55-.53-.13-1.6-2.78-2.25-8.04-.04-.33-.16-.65-.35-.92-.63-.9-3.67-5.56-1.21-8.69Z" style="fill:#1a171b;"/></svg>