<?xml version="1.0" encoding="UTF-8"?><svg id="a" xmlns="http://www.w3.org/2000/svg" viewBox="0 0 68 68"><path d="M55.76,14.74c-5.27-6.7-10.45-4.35-15.47-2.08-.66.3-1.32.6-1.99.88-.67-.28-1.33-.58-2-.88-5.01-2.27-10.19-4.62-15.47,2.08-2.22,2.82-2.78,6.39-1.67,10.59.09.33.38.54.7.54.06,0,.12,0,.19-.02.39-.1.62-.5.52-.89-.99-3.74-.51-6.88,1.41-9.32,4.57-5.8,8.81-3.88,13.72-1.66.22.1.44.2.66.3-1.26.42-2.52.7-3.79.7-.4,0-.73.33-.73.73s.33.73.73.73c2.07,0,4.06-.63,5.99-1.43.01,0,.02,0,.03-.01.78-.32,1.54-.66,2.3-1.01,4.91-2.23,9.16-4.15,13.72,1.65,4.85,6.17-1.01,15.18-2.23,16.92-.3.42-.49.92-.55,1.44-1.1,8.99-3.12,15.52-4.8,15.52s-5.22-2.76-5.45-10.96c0-2.06-1.42-3.1-2.26-3.53-.36-.18-.8-.04-.98.31-.18.36-.04.8.31.98.67.34,1.47,1.01,1.48,2.24h0s0,.03,0,.04c.26,9.34,4.77,12.37,6.91,12.37,3.63,0,5.47-10.52,6.24-16.79.04-.29.14-.55.3-.78,1.87-2.66,7.54-11.86,2.19-18.66Z" style="fill:#1a171b;"/><path d="M35.34,28.03H10.73c-.4,0-.73.33-.73.73v23.34c0,.4.33.73.73.73h2.86v4.11c0,.27.15.52.39.65.11.05.22.08.33.08.15,0,.3-.05.42-.13l6.64-4.71h13.97c.4,0,.73-.33.73-.73v-23.34c0-.4-.33-.73-.73-.73ZM34.62,51.38h-13.47c-.15,0-.3.05-.42.13l-5.68,4.03v-3.43c0-.4-.33-.73-.73-.73h-2.86v-21.89h23.16v21.89Z" style="fill:#1a171b;"/><path d="M27.03,35.35h2.91c.4,0,.73-.33.73-.73s-.33-.73-.73-.73h-2.91c-.4,0-.73.33-.73.73s.33.73.73.73Z" style="fill:#1a171b;"/><path d="M16.13,35.35h7.27c.4,0,.73-.33.73-.73s-.33-.73-.73-.73h-7.27c-.4,0-.73.33-.73.73s.33.73.73.73Z" style="fill:#1a171b;"/><path d="M29.94,39.71h-6.54c-.4,0-.73.33-.73.73s.33.73.73.73h6.54c.4,0,.73-.33.73-.73s-.33-.73-.73-.73Z" style="fill:#1a171b;"/><path d="M16.13,41.16h3.63c.4,0,.73-.33.73-.73s-.33-.73-.73-.73h-3.63c-.4,0-.73.33-.73.73s.33.73.73.73Z" style="fill:#1a171b;"/><path d="M16.13,46.98h10.18c.4,0,.73-.32.73-.73s-.33-.73-.73-.73h-10.18c-.4,0-.73.33-.73.73s.33.73.73.73Z" style="fill:#1a171b;"/></svg>