<?xml version="1.0" encoding="UTF-8"?><svg id="a" xmlns="http://www.w3.org/2000/svg" viewBox="0 0 68 68"><path d="M35.72,29.26c.72-.21,1.5,0,2.04.53l.47.47c.52.52.73,1.29.53,2-.1.39.12.79.51.89.06.02.13.03.19.03.32,0,.62-.21.7-.54.29-1.09.04-2.25-.65-3.12l5.56-5.56c1.36,1.11,3.02,1.67,4.68,1.67,1.89,0,3.78-.72,5.22-2.16,2.88-2.88,2.88-7.56,0-10.44-2.88-2.88-7.56-2.88-10.43,0-2.7,2.7-2.87,7-.49,9.89l-5.56,5.56c-.89-.71-2.07-.95-3.17-.63-.39.11-.61.51-.5.9.11.39.51.61.9.5ZM45.56,14.07c1.15-1.16,2.67-1.73,4.19-1.73s3.03.58,4.19,1.73c2.31,2.31,2.31,6.07,0,8.38-2.31,2.31-6.07,2.31-8.38,0-2.31-2.31-2.31-6.07,0-8.38Z" style="fill:#1a171b;"/><path d="M26.44,37.15c-.28-.28-.74-.28-1.03,0h0s-13.91,13.91-13.91,13.91c-.4.4-.62.94-.62,1.5s.22,1.1.62,1.5l2.45,2.45c.41.41.96.62,1.5.62s1.09-.21,1.5-.62l13.91-13.91h0c.28-.29.28-.75,0-1.03l-4.43-4.43ZM15.92,55.49c-.26.26-.69.26-.95,0l-2.45-2.45c-.13-.13-.2-.3-.2-.47s.07-.35.2-.47l13.4-13.4,3.4,3.4-13.4,13.4Z" style="fill:#1a171b;"/><path d="M37.76,34.68s0,0,0,0h0l-4.96-4.96c-1.3-1.29-3.33-1.39-4.75-.32l-5.42-5.42c-.53-.53-1.21-.88-1.95-.99l-6.31-.97c-.19-.03-.35-.13-.46-.29-.11-.16-.14-.35-.09-.54l2.67-10.27c.1-.39-.13-.79-.52-.89-.39-.1-.79.13-.89.52l-2.67,10.27c-.15.58-.05,1.2.28,1.7.33.5.86.84,1.45.93l6.31.98c.44.07.83.27,1.15.58l5.42,5.42c-1.07,1.42-.97,3.45.32,4.75l4.96,4.96h0s0,0,0,0l17.23,17.23c.43.42.98.64,1.54.64s1.12-.21,1.54-.64l2.37-2.37c.85-.85.85-2.24,0-3.09l-17.23-17.23ZM33.85,39.62l3.4-3.4,1.44,1.44-3.4,3.4-1.44-1.44ZM31.38,37.15l3.4-3.4,1.44,1.44-3.4,3.4-1.44-1.44ZM28.38,31.06l.15-.15s0,0,0,0t0,0l.15-.15c.43-.42.98-.64,1.54-.64s1.12.21,1.54.64l1.97,1.97-3.4,3.4-1.97-1.97c-.85-.85-.85-2.24,0-3.09ZM53.96,53.96l-2.37,2.37c-.28.28-.75.28-1.03,0l-14.24-14.24,3.4-3.4,14.24,14.24c.28.28.28.75,0,1.03Z" style="fill:#1a171b;"/></svg>