<?xml version="1.0" encoding="UTF-8"?><svg id="a" xmlns="http://www.w3.org/2000/svg" viewBox="0 0 68 68"><path d="M23.31,35.83c-.39,6-.28,13.25,2.45,13.77,1.98.38,5.67-1.6,7.18-8.47,0-.02,0-.04.01-.05.13-.68.57-1.14,1.32-1.36.13-.04.28-.01.38.07.61.48.86,1.07.73,1.75,0,.01,0,.02,0,.04-1.11,6.96,1.61,10.15,3.59,10.52.1.02.2.03.3.03,2.63,0,5.25-6.44,7.01-11.95.06-.19.16-.35.29-.48,1.81-1.76,7.48-7.99,4.36-14-2.74-5.26-6.6-5-10.21-4.2l.68-3.61,3.05.58c.29.05.58-.07.74-.32s.16-.57,0-.81l-4.79-7.03c-.11-.16-.28-.27-.47-.3-.19-.04-.39,0-.54.11l-7.03,4.79c-.24.17-.36.46-.3.75.06.29.29.51.58.57l3.05.58-.66,3.49c-3.01-1.98-6.43-3.43-10.77.35-5.11,4.45-2.1,12.32-1.06,14.62.08.17.11.36.1.55ZM36.69,15.52l-2.04-.39,4.98-3.39,3.39,4.98-2.05-.39c-.39-.08-.77.19-.85.58l-.94,4.96c-.46.11-.93.23-1.39.33-.44-.3-.88-.6-1.32-.91-.04-.03-.08-.06-.12-.08l.91-4.83c.07-.39-.18-.77-.58-.85ZM25.23,21.75c4.19-3.65,7.07-1.62,10.41.72.03.02.06.04.1.07-.85.09-1.68.09-2.48-.07-.39-.07-.77.19-.85.58-.07.39.18.78.58.85,1.6.3,3.21.11,4.8-.22,0,0,.01,0,.02,0,.64-.13,1.27-.29,1.89-.44,3.96-.97,7.39-1.8,9.96,3.13,2.73,5.25-2.92,11.15-4.08,12.28-.3.29-.53.67-.67,1.08-2.26,7.09-4.64,11.13-5.66,10.94-1.17-.22-3.4-2.76-2.42-8.88.23-1.22-.23-2.34-1.27-3.15-.48-.37-1.11-.49-1.69-.32-1.26.37-2.09,1.24-2.33,2.45,0,0,0,0,0,.01-1.32,6.05-4.32,7.6-5.5,7.39-1-.19-1.75-4.82-1.27-12.25.03-.43-.05-.86-.23-1.25-.67-1.48-3.77-9.03.69-12.93Z" style="fill:#1a171b;"/><path d="M56.25,41.95h-2.54c-2.96,0-5.6,1.92-6.41,4.66-1.73,5.84-7.2,9.93-13.3,9.93s-11.57-4.08-13.3-9.93c-.81-2.75-3.45-4.66-6.41-4.66h-2.54c-.4,0-.73.33-.73.73s.33.73.73.73h2.54c2.32,0,4.38,1.49,5.01,3.62,1.91,6.46,7.95,10.97,14.69,10.97s12.78-4.51,14.69-10.97c.63-2.13,2.69-3.62,5.01-3.62h2.54c.4,0,.73-.33.73-.73s-.33-.73-.73-.73Z" style="fill:#1a171b;"/></svg>