<?xml version="1.0" encoding="UTF-8"?><svg id="a" xmlns="http://www.w3.org/2000/svg" viewBox="0 0 68 68"><path d="M54.72,31.65c-3.04-4.1-6.14-3.59-8.99-2.39v-8.39s0-.03,0-.04c0-.07-.02-.13-.04-.19,0-.02-.01-.04-.02-.07-.04-.08-.08-.15-.14-.21l-5.74-5.73c-.06-.06-.13-.11-.21-.14-.02,0-.05-.02-.07-.02-.06-.02-.12-.03-.18-.04-.02,0-.03,0-.05,0h-22.41c-.4,0-.73.33-.73.73v31.83h-2.95V11.46h26.69v.98c0,.4.33.73.73.73s.73-.33.73-.73v-1.71c0-.4-.33-.73-.73-.73H12.45c-.4,0-.73.33-.73.73v36.96c0,.4.33.73.73.73h3.68v3.68c0,.4.33.73.73.73h16.65c.86,3.44,1.95,5.18,3.26,5.18,1.81,0,4.74-2.47,4.92-9.08,0-.01,0-.02,0-.03,0-.64.3-1.12.89-1.44.08-.04.16-.04.23,0,.59.32.89.81.89,1.44h0s0,.02,0,.03c.18,6.61,3.11,9.08,4.92,9.08,2.02,0,3.52-4.12,4.46-12.25.02-.18.08-.34.17-.48,1.28-1.93,5.17-8.63,1.48-13.62ZM43.25,20.14h-3.25v-3.25l3.25,3.25ZM17.58,51.36V15.86h20.96v5.01c0,.4.33.73.73.73h5.01v8.33c-.12.06-.23.11-.34.16-.41.2-.83.4-1.24.58-.42-.19-.83-.39-1.24-.58-3.33-1.6-7.1-3.41-10.79,1.56-3.7,4.98.2,11.68,1.48,13.62.09.14.15.3.17.48.25,2.16.54,4.02.87,5.61h-15.59ZM52.03,44.47c-.22.33-.36.71-.4,1.11-.87,7.48-2.32,10.96-3.02,10.96-.87,0-3.31-1.82-3.46-7.67,0-1.58-1.03-2.37-1.65-2.71-.51-.28-1.12-.28-1.62,0-.61.33-1.64,1.13-1.65,2.71-.16,5.85-2.59,7.67-3.46,7.67-.7,0-2.15-3.49-3.02-10.96-.05-.4-.19-.79-.4-1.11-.82-1.23-4.74-7.62-1.52-11.95,1.47-1.98,2.86-2.67,4.29-2.67s3,.73,4.7,1.55c-.67.2-1.35.33-2.01.33-.4,0-.73.33-.73.73s.33.73.73.73c1.45,0,2.83-.46,4.16-1.04.01,0,.02,0,.04-.02.53-.23,1.04-.48,1.56-.73,3.36-1.62,6.02-2.89,9,1.12,3.21,4.33-.7,10.71-1.52,11.95Z" style="fill:#1a171b;"/><path d="M21.54,20.53h11.91c.4,0,.73-.33.73-.73s-.33-.73-.73-.73h-11.91c-.4,0-.73.33-.73.73s.33.73.73.73Z" style="fill:#1a171b;"/><path d="M21.54,25.62h19.18c.4,0,.73-.33.73-.73s-.33-.73-.73-.73h-19.18c-.4,0-.73.33-.73.73s.33.73.73.73Z" style="fill:#1a171b;"/><path d="M21.54,30.71h7.14c.4,0,.73-.33.73-.73s-.33-.73-.73-.73h-7.14c-.4,0-.73.33-.73.73s.33.73.73.73Z" style="fill:#1a171b;"/><path d="M21.54,35.8h5c.4,0,.73-.33.73-.73s-.33-.73-.73-.73h-5c-.4,0-.73.33-.73.73s.33.73.73.73Z" style="fill:#1a171b;"/><path d="M21.54,40.89h5.36c.4,0,.73-.33.73-.73s-.33-.73-.73-.73h-5.36c-.4,0-.73.33-.73.73s.33.73.73.73Z" style="fill:#1a171b;"/><path d="M29.08,44.53h-7.54c-.4,0-.73.33-.73.73s.33.73.73.73h7.54c.4,0,.73-.33.73-.73s-.33-.73-.73-.73Z" style="fill:#1a171b;"/></svg>