<svg viewBox="0 0 68 68" xmlns="http://www.w3.org/2000/svg"><g fill="#1a171b"><path d="m31.62 53.08h-17.22c-1.08 0-1.95-.96-1.95-2.14v-32.32c0-1.18.87-2.14 1.95-2.14h5.93v.71c0 1.19.97 2.16 2.16 2.16h11.49c1.19 0 2.16-.97 2.16-2.16v-.71h5.93c1.08 0 1.95.96 1.95 2.14v8.24c0 .4.33.73.73.73s.73-.33.73-.73v-8.24c0-1.98-1.53-3.6-3.4-3.6h-5.93v-.71c0-1.19-.97-2.16-2.16-2.16h-2.95c-.32-1.24-1.45-2.15-2.79-2.15s-2.47.92-2.79 2.15h-2.96c-1.19 0-2.16.97-2.16 2.16v.71h-5.93c-1.88 0-3.4 1.61-3.4 3.6v32.31c0 1.98 1.53 3.6 3.4 3.6h17.22c.4 0 .73-.33.73-.73s-.33-.73-.73-.73zm-9.84-38.76c0-.39.32-.71.71-.71h3.59c.4 0 .73-.33.73-.73 0-.79.64-1.43 1.43-1.43s1.43.64 1.43 1.43c0 .4.33.73.73.73h3.59c.39 0 .71.32.71.71v2.87c0 .39-.32.71-.71.71h-11.49c-.39 0-.71-.32-.71-.71v-2.87z"/><path d="m55.47 31.89c-3.66-4.93-7.4-3.14-10.7-1.55-.41.19-.82.39-1.23.58-.41-.19-.82-.38-1.22-.58-3.3-1.59-7.04-3.38-10.7 1.55-3.67 4.94.19 11.58 1.46 13.5.09.14.15.3.17.47.93 8.06 2.42 12.14 4.43 12.14 1.79 0 4.7-2.44 4.88-9 0-.01 0-.02 0-.03 0-.63.29-1.11.88-1.42.07-.04.15-.04.23 0 .58.32.88.8.88 1.42s0 .02 0 .03c.18 6.56 3.08 9 4.88 9 2 0 3.49-4.08 4.43-12.14.02-.17.08-.33.17-.47 1.27-1.92 5.13-8.56 1.46-13.5zm-2.68 12.69c-.22.33-.35.71-.4 1.11-.86 7.4-2.29 10.85-2.98 10.85-.86 0-3.27-1.8-3.42-7.59 0-1.57-1.03-2.36-1.64-2.69-.51-.28-1.11-.28-1.62 0-.61.33-1.63 1.12-1.63 2.69-.15 5.79-2.56 7.59-3.42 7.59-.7 0-2.12-3.45-2.98-10.85-.05-.4-.19-.78-.4-1.11-.81-1.22-4.69-7.54-1.51-11.83 1.45-1.96 2.83-2.64 4.25-2.64s2.96.72 4.63 1.53c-.66.2-1.32.32-1.97.32-.4 0-.73.33-.73.73s.33.73.73.73c2.02 0 3.89-.9 5.7-1.77 3.33-1.6 5.95-2.86 8.9 1.11 3.18 4.29-.7 10.6-1.51 11.83z"/><path d="m18.27 21.92c-1.39 0-2.52 1.13-2.52 2.52s1.13 2.52 2.52 2.52 2.52-1.13 2.52-2.52-1.13-2.52-2.52-2.52zm0 3.59c-.59 0-1.07-.48-1.07-1.07s.48-1.07 1.07-1.07 1.07.48 1.07 1.07-.48 1.07-1.07 1.07z"/><path d="m18.27 29.1c-1.39 0-2.52 1.13-2.52 2.52s1.13 2.52 2.52 2.52 2.52-1.13 2.52-2.52-1.13-2.52-2.52-2.52zm0 3.6c-.59 0-1.07-.48-1.07-1.07s.48-1.07 1.07-1.07 1.07.48 1.07 1.07-.48 1.07-1.07 1.07z"/><path d="m18.27 36.29c-1.39 0-2.52 1.13-2.52 2.52s1.13 2.52 2.52 2.52 2.52-1.13 2.52-2.52-1.13-2.52-2.52-2.52zm0 3.59c-.59 0-1.07-.48-1.07-1.07s.48-1.07 1.07-1.07 1.07.48 1.07 1.07-.48 1.07-1.07 1.07z"/><path d="m18.27 43.47c-1.39 0-2.52 1.13-2.52 2.52s1.13 2.52 2.52 2.52 2.52-1.13 2.52-2.52-1.13-2.52-2.52-2.52zm0 3.59c-.59 0-1.07-.48-1.07-1.07s.48-1.07 1.07-1.07 1.07.48 1.07 1.07-.48 1.07-1.07 1.07z"/><path d="m23.99 25.17h3.55c.4 0 .73-.33.73-.73s-.33-.73-.73-.73h-3.55c-.4 0-.73.33-.73.73s.33.73.73.73z"/><path d="m31.2 23.72c-.4 0-.73.33-.73.73s.33.73.73.73h8.79c.4 0 .73-.33.73-.73s-.33-.73-.73-.73z"/><path d="m28.59 30.9h-4.6c-.4 0-.73.33-.73.73s.33.73.73.73h4.6c.4 0 .73-.33.73-.73s-.33-.73-.73-.73z"/><path d="m23.99 39.54h3.33c.4 0 .73-.33.73-.73s-.33-.73-.73-.73h-3.33c-.4 0-.73.33-.73.73s.33.73.73.73z"/><path d="m23.99 46.72h6.24c.4 0 .73-.33.73-.73s-.33-.73-.73-.73h-6.24c-.4 0-.73.33-.73.73s.33.73.73.73z"/></g></svg>