<?xml version="1.0" encoding="UTF-8"?><svg id="a" xmlns="http://www.w3.org/2000/svg" viewBox="0 0 68 68"><path d="M41.54,46.24c-.39-.07-.77.19-.85.58-1.3,6.97-2.81,9.44-3.7,9.44-1.52,0-4.92-2.61-5.13-10.35,0-1.97-1.36-2.96-2.17-3.38-.61-.32-1.35-.32-1.96,0-.81.41-2.16,1.4-2.17,3.38-.22,7.74-3.62,10.35-5.13,10.35s-3.46-6.17-4.51-14.67c-.06-.5-.24-.97-.53-1.38-1.16-1.65-6.7-10.17-2.12-16,3.33-4.23,6.38-3.99,9.17-3.11.38.12.79-.09.91-.47.12-.38-.09-.79-.47-.91-2.95-.94-6.84-1.37-10.75,3.6-5.09,6.46.3,15.21,2.07,17.73.15.21.24.46.27.72.9,7.28,2.65,15.95,5.95,15.95,2.42,0,6.34-3.19,6.59-11.75,0-.01,0-.02,0-.03,0-1.15.75-1.78,1.38-2.1.2-.1.44-.1.64,0,.63.32,1.38.95,1.38,2.1h0s0,.02,0,.03c.24,8.56,4.17,11.75,6.59,11.75,1.35,0,3.35-1.1,5.13-10.63.07-.39-.19-.77-.58-.85Z" style="fill:#1a171b;"/><path d="M56.48,24.16h-1.52c-.12-.58-.27-1.15-.46-1.72l1.32-.76c.35-.2.6-.53.71-.92.1-.39.05-.8-.15-1.15l-1.19-2.06c-.42-.73-1.35-.97-2.08-.56l-1.32.76c-.39-.44-.81-.86-1.25-1.25l.76-1.32c.42-.72.17-1.66-.56-2.08l-2.06-1.19c-.73-.42-1.66-.17-2.08.56l-.76,1.32c-.56-.19-1.14-.35-1.72-.46v-1.52c0-.84-.68-1.52-1.52-1.52h-2.38c-.84,0-1.52.68-1.52,1.52v1.52c-.58.12-1.15.27-1.72.46l-.76-1.32c-.42-.72-1.35-.98-2.08-.56l-2.06,1.19c-.73.42-.97,1.35-.56,2.08l.76,1.32c-.44.39-.86.81-1.26,1.25l-1.32-.76c-.73-.42-1.66-.17-2.08.56l-1.19,2.06c-.2.35-.26.76-.15,1.15.1.39.36.72.71.92l1.32.76c-.19.56-.35,1.14-.46,1.72h-1.52c-.84,0-1.52.68-1.52,1.52v2.38c0,.84.68,1.52,1.52,1.52h1.52c.12.58.27,1.15.46,1.72l-1.32.76c-.73.42-.98,1.35-.56,2.08l1.19,2.06c.2.35.53.6.92.71.39.11.8.05,1.15-.15l1.32-.76c.39.45.81.86,1.26,1.25l-.76,1.32c-.2.35-.26.76-.15,1.15.1.39.36.72.71.92l2.06,1.19c.35.2.76.26,1.15.15.39-.11.72-.36.92-.71l.76-1.32c.56.19,1.14.35,1.72.46v1.52c0,.84.68,1.52,1.52,1.52h2.38c.84,0,1.52-.68,1.52-1.52v-1.52c.58-.12,1.15-.27,1.72-.46l.76,1.32c.2.35.53.6.92.71.39.11.8.05,1.15-.15l2.06-1.19c.35-.2.6-.53.71-.92.1-.39.05-.8-.15-1.15l-.76-1.32c.44-.39.86-.81,1.25-1.25l1.32.76c.35.2.76.26,1.15.15.39-.1.72-.36.92-.71l1.19-2.06c.42-.72.17-1.66-.56-2.08l-1.32-.76c.19-.57.35-1.14.46-1.72h1.52c.84,0,1.52-.68,1.52-1.52v-2.38c0-.84-.68-1.52-1.52-1.52ZM56.55,28.06s-.03.07-.07.07h-2.13c-.36,0-.67.26-.72.62-.13.88-.37,1.76-.7,2.61-.13.33,0,.71.31.89l1.85,1.07s.04.06.03.09l-1.19,2.06-.09.02-1.85-1.07c-.31-.18-.71-.1-.93.17-.57.7-1.21,1.35-1.91,1.91-.28.22-.35.62-.17.93l1.07,1.85-.02.09-2.06,1.19s-.07,0-.09-.02l-1.07-1.85c-.18-.31-.56-.44-.89-.31-.85.33-1.73.57-2.61.7-.35.05-.62.36-.62.72v2.13s-.03.07-.07.07h-2.38s-.07-.03-.07-.07v-2.13c0-.36-.26-.66-.62-.72-.88-.13-1.76-.37-2.61-.7-.09-.03-.18-.05-.26-.05-.25,0-.5.13-.63.36l-1.07,1.85-.09.02-2.06-1.19s-.04-.06-.02-.09l1.07-1.85c.18-.31.11-.71-.17-.93-.7-.56-1.35-1.21-1.91-1.91-.22-.28-.62-.35-.93-.17l-1.85,1.07-.09-.02-1.19-2.06s0-.07.02-.09l1.85-1.07c.31-.18.44-.56.31-.89-.33-.85-.57-1.73-.7-2.61-.05-.36-.36-.62-.72-.62h-2.13s-.07-.03-.07-.07v-2.38s.03-.07.07-.07h2.13c.36,0,.66-.26.72-.62.13-.88.37-1.76.7-2.61.13-.33,0-.71-.31-.89l-1.85-1.07s-.04-.06-.02-.09l1.19-2.06s.06-.04.09-.02l1.85,1.07c.31.18.71.11.93-.17.56-.7,1.21-1.35,1.91-1.91.28-.22.35-.62.17-.93l-1.07-1.85s0-.07.02-.09l2.06-1.19s.07,0,.09.02l1.07,1.85c.18.31.56.44.89.31.85-.33,1.73-.57,2.61-.7.35-.05.62-.36.62-.72v-2.13s.03-.07.07-.07h2.38s.07.03.07.07v2.13c0,.36.26.66.62.72.89.13,1.76.37,2.61.7.33.13.71,0,.89-.31l1.07-1.85s.06-.04.09-.02l2.06,1.19s.04.06.02.09l-1.07,1.85c-.18.31-.1.71.17.93.71.57,1.35,1.21,1.91,1.91.23.28.62.35.93.17l1.85-1.07s.07,0,.09.02l1.19,2.06s0,.07-.02.09l-1.85,1.07c-.31.18-.44.56-.31.89.33.85.57,1.73.7,2.61.05.36.36.62.72.62h2.13s.07.03.07.07v2.38Z" style="fill:#1a171b;"/><path d="M41.41,18.51c-4.61,0-8.36,3.75-8.36,8.36s3.75,8.36,8.36,8.36,8.36-3.75,8.36-8.36-3.75-8.36-8.36-8.36ZM41.41,33.78c-3.81,0-6.91-3.1-6.91-6.91s3.1-6.91,6.91-6.91,6.91,3.1,6.91,6.91-3.1,6.91-6.91,6.91Z" style="fill:#1a171b;"/></svg>