<?xml version="1.0" encoding="UTF-8"?><svg id="a" xmlns="http://www.w3.org/2000/svg" viewBox="0 0 68 68"><path d="M44.36,44.4c-.39-.07-.77.2-.84.59-1.45,8.52-3.21,11.55-4.27,11.55-1.65,0-5.34-2.81-5.57-11.18,0-2.09-1.44-3.14-2.3-3.58-.65-.33-1.42-.33-2.06,0-.86.44-2.29,1.49-2.3,3.58-.23,8.36-3.92,11.18-5.57,11.18s-3.77-6.65-4.9-15.82c-.06-.52-.26-1.03-.56-1.46-1.25-1.78-7.23-10.97-2.28-17.26,3.64-4.63,7.01-4.32,10.12-3.3.38.12.79-.08.92-.46.13-.38-.08-.79-.46-.92-3.23-1.07-7.48-1.61-11.72,3.78-5.45,6.92.33,16.29,2.23,18.99.17.24.27.51.31.8.79,6.39,2.65,17.1,6.34,17.1,2.18,0,6.76-3.08,7.03-12.58,0-.01,0-.02,0-.03,0-1.26.82-1.95,1.51-2.3.23-.12.5-.12.73,0,.69.35,1.51,1.04,1.51,2.3h0s0,.02,0,.04c.27,9.51,4.85,12.58,7.03,12.58.88,0,3.54,0,5.71-12.76.07-.4-.2-.77-.59-.84Z" style="fill:#1a171b;"/><path d="M41.4,10c-9,0-16.32,7.32-16.32,16.32s7.32,16.32,16.32,16.32,16.32-7.32,16.32-16.32-7.32-16.32-16.32-16.32ZM41.4,41.18c-8.2,0-14.86-6.67-14.86-14.86s6.67-14.86,14.86-14.86,14.86,6.67,14.86,14.86-6.67,14.86-14.86,14.86Z" style="fill:#1a171b;"/><path d="M41.4,14.45c-6.54,0-11.86,5.32-11.86,11.86s5.32,11.86,11.86,11.86,11.86-5.32,11.86-11.86-5.32-11.86-11.86-11.86ZM41.4,36.72c-5.74,0-10.41-4.67-10.41-10.41s4.67-10.41,10.41-10.41,10.41,4.67,10.41,10.41-4.67,10.41-10.41,10.41Z" style="fill:#1a171b;"/><path d="M41.4,18.91c-4.08,0-7.41,3.32-7.41,7.41s3.32,7.41,7.41,7.41,7.41-3.32,7.41-7.41-3.32-7.41-7.41-7.41ZM41.4,32.27c-3.28,0-5.95-2.67-5.95-5.95s2.67-5.95,5.95-5.95,5.95,2.67,5.95,5.95-2.67,5.95-5.95,5.95Z" style="fill:#1a171b;"/><path d="M43.73,23.98c-.28-.28-.74-.28-1.03,0l-1.3,1.3-1.3-1.3c-.28-.28-.74-.28-1.03,0s-.28.75,0,1.03l1.3,1.3-1.3,1.3c-.28.28-.28.74,0,1.03.14.14.33.21.51.21s.37-.07.51-.21l1.3-1.3,1.3,1.3c.14.14.33.21.51.21s.37-.07.51-.21c.28-.28.28-.74,0-1.03l-1.3-1.3,1.3-1.3c.28-.28.28-.74,0-1.03Z" style="fill:#1a171b;"/></svg>