<?xml version="1.0" encoding="UTF-8"?><svg id="a" xmlns="http://www.w3.org/2000/svg" viewBox="0 0 68 68"><path d="M45.12,20.4c-.34.22-.43.67-.21,1,.14.22.37.33.61.33.13,0,.27-.04.39-.12.33-.22.43-.67.21-1.01-.22-.33-.67-.42-1-.21Z" style="fill:#1a171b;"/><path d="M50.79,23.3c-.01-.4-.36-.71-.76-.7-.41.02-.71.36-.7.76.02.39.34.69.73.69h.03c.41-.01.71-.36.7-.76Z" style="fill:#1a171b;"/><path d="M45.4,18.46c-.02-.4-.37-.71-.77-.68-.4.02-.71.37-.68.77.02.39.34.68.72.68h.05c.4-.03.71-.37.68-.77Z" style="fill:#1a171b;"/><path d="M47.16,23.42h0c.11.06.22.08.33.08.26,0,.52-.15.65-.39.18-.36.04-.8-.31-.98-.36-.18-.8-.04-.98.32-.18.36-.04.79.32.97Z" style="fill:#1a171b;"/><path d="M52.2,21.93c-.34.21-.44.66-.23,1,.14.22.38.33.62.33.13,0,.27-.04.39-.11.34-.22.44-.67.23-1-.21-.34-.66-.44-1-.23Z" style="fill:#1a171b;"/><path d="M24,16.07s0,.06,0,.1c0,.02.02.03.03.05.01.05.04.09.06.14.02.04.04.08.07.11.01.01.02.03.03.05.02.02.05.03.07.05.04.03.07.06.11.08.04.02.08.03.12.05.05.01.1.03.15.03.02,0,.03,0,.05,0,.03,0,.05-.01.07-.01.03,0,.06,0,.09,0,2.9-.69,5.86.65,9,2.07.24.11.48.22.72.33-1.22.41-2.59.74-3.98.74-.4,0-.73.33-.73.73s.33.73.73.73c2.3,0,4.49-.78,6.14-1.46.03-.01.07-.02.09-.04.78-.32,1.56-.67,2.33-1.02,2.13-.96,4.13-1.87,6.12-2.16.03,0,.06-.02.09-.03.04-.01.09-.02.13-.04.04-.02.08-.05.12-.08.02-.02.05-.03.07-.05.01-.01.02-.03.03-.05.03-.04.05-.08.08-.12.02-.04.04-.08.06-.12.02-.05.02-.1.03-.15,0-.03.02-.05.02-.08,0-.02,0-.03,0-.05,0-.02,0-.04,0-.06,0-.03-.02-.06-.03-.09-.01-.04-.02-.08-.04-.12-.02-.05-.05-.09-.09-.13-.02-.02-.02-.05-.04-.06,0,0-.03-.01-.04-.02-.05-.04-.1-.07-.16-.1-.02,0-.04-.02-.06-.03-.07-.03-.15-.04-.23-.04-.01,0-.03,0-.04,0-.03,0-.06,0-.09,0-2.19.32-4.39,1.32-6.51,2.28-.68.31-1.37.62-2.06.91-.69-.29-1.38-.6-2.06-.91-3.22-1.46-6.55-2.97-9.93-2.16-.03,0-.05.02-.07.03-.03.01-.06.03-.09.04-.05.03-.1.06-.15.1-.01.01-.03.01-.04.02-.02.02-.03.04-.04.06-.03.04-.06.08-.09.13-.02.04-.03.08-.05.12-.01.05-.02.1-.03.15,0,.02,0,.03,0,.05,0,.03.01.05.01.08Z" style="fill:#1a171b;"/><path d="M24.24,26.27c-.23.33-.15.79.19,1.02.12.08.27.12.41.12.23,0,.47-.11.6-.31.23-.33.15-.79-.19-1.01-.33-.23-.79-.15-1.01.18Z" style="fill:#1a171b;"/><path d="M20.16,29.47c-.38.14-.57.56-.43.93.11.3.39.47.68.47.09,0,.17-.01.25-.04.38-.14.57-.56.43-.94-.14-.38-.56-.57-.94-.42Z" style="fill:#1a171b;"/><path d="M27.2,21.31c0-.4-.33-.72-.73-.72-.4,0-.73.34-.72.74,0,.4.33.72.73.72h0c.4,0,.73-.33.72-.73Z" style="fill:#1a171b;"/><path d="M22.45,28.19c-.32.25-.38.7-.13,1.02.15.18.36.28.57.28.16,0,.32-.05.45-.15.31-.25.37-.71.12-1.02-.25-.32-.71-.38-1.02-.12Z" style="fill:#1a171b;"/><path d="M26,19.25c.07,0,.15,0,.23-.04.38-.12.6-.54.46-.92-.12-.39-.54-.59-.92-.47-.39.13-.59.54-.47.92.1.31.38.49.69.49Z" style="fill:#1a171b;"/><path d="M25.86,24.83c.07.02.14.03.21.03.31,0,.6-.2.7-.51.12-.38-.1-.79-.49-.91-.39-.12-.79.09-.91.48-.12.38.1.79.49.91Z" style="fill:#1a171b;"/><path d="M40.04,26.32h0c.08.02.16.04.24.04.3,0,.58-.18.68-.48.14-.38-.06-.79-.44-.93-.38-.13-.79.07-.93.44-.13.38.07.79.44.93Z" style="fill:#1a171b;"/><path d="M38.91,33.06h-.04c-.4,0-.73.33-.73.73s.33.73.73.73h.06c.4,0,.72-.33.72-.73,0-.4-.33-.73-.73-.72Z" style="fill:#1a171b;"/><path d="M41.6,33.5c.17,0,.33-.05.47-.17.31-.26.33-.72.07-1.03-.26-.31-.72-.34-1.02-.08h0c-.3.26-.33.73-.07,1.03.14.17.35.25.55.25Z" style="fill:#1a171b;"/><path d="M36.18,33.54c.2,0,.41-.1.56-.26.25-.31.21-.77-.09-1.03-.31-.26-.76-.22-1.03.09-.25.31-.22.77.1,1.03.13.12.3.17.46.17Z" style="fill:#1a171b;"/><path d="M34.86,28.14c.12.07.24.09.36.09.25,0,.49-.13.63-.36.2-.35.08-.79-.27-.99-.35-.2-.79-.08-1,.27-.2.35-.07.79.27.99Z" style="fill:#1a171b;"/><path d="M37.67,26.33c.37-.14.57-.55.43-.93-.14-.38-.56-.57-.94-.43-.38.14-.57.56-.43.93.11.3.39.48.68.48.09,0,.17-.01.25-.05Z" style="fill:#1a171b;"/><path d="M42.89,31s.08,0,.12,0c.36,0,.66-.25.72-.6.06-.4-.2-.77-.6-.84-.4-.07-.77.2-.84.6-.07.39.2.77.6.83Z" style="fill:#1a171b;"/><path d="M34.02,30.46c.06.36.36.6.71.6.04,0,.09,0,.12-.01.4-.07.66-.45.6-.84-.07-.39-.45-.65-.84-.59-.4.07-.66.45-.59.84Z" style="fill:#1a171b;"/><path d="M42.49,28.19c.12,0,.25-.04.36-.1.35-.2.47-.65.26-1-.2-.35-.65-.46-1-.26-.35.2-.46.65-.25,1,.13.23.38.36.63.36Z" style="fill:#1a171b;"/><path d="M55.49,32.88c1.49-3.8,2.28-8.61-.5-12.69-.01-.02-.04-.03-.05-.05-.01-.02-.02-.04-.04-.06-.02-.02-.04-.02-.06-.04-.04-.04-.09-.06-.14-.09-.03-.01-.05-.02-.08-.03-.07-.02-.14-.04-.21-.04h-.04c-.07,0-.14.01-.21.04-.03,0-.06.02-.09.04-.03.01-.06.02-.09.04-.02.01-.03.04-.05.05-.02.01-.04.02-.05.03-.02.02-.03.04-.04.06-.03.04-.06.08-.08.12-.02.04-.04.08-.05.13-.01.04-.02.08-.03.13,0,.03-.02.05-.02.08s.01.05.02.08c0,.04.01.08.02.12.02.05.03.09.06.14.01.02.01.05.03.07,2.42,3.55,1.66,7.9.32,11.35-.33-.07-.68-.11-1.03-.11-1.59,0-3.01.76-3.91,1.94l-3.48-1.84.34-.64-2.9.11,1.54,2.46.34-.64,3.46,1.83c-.2.54-.31,1.11-.31,1.71,0,1.68.85,3.17,2.14,4.06-1.18,8.36-3.11,14.26-4.73,14.26s-5.42-2.85-5.65-11.33c0-2.12-1.46-3.18-2.33-3.62-.65-.33-1.43-.33-2.08,0-.87.45-2.32,1.51-2.33,3.62-.24,8.48-3.98,11.33-5.65,11.33s-3.83-6.75-4.97-16.04c-.07-.53-.26-1.04-.56-1.47-.77-1.09-2.66-4.01-3.65-7.46,0-.01-.01-.02-.02-.03-.02-.05-.04-.09-.07-.13-.03-.04-.05-.08-.08-.12,0,0-.01-.02-.02-.03-.02-.02-.04-.03-.07-.04-.05-.04-.1-.07-.15-.1-.02,0-.04-.01-.06-.02-.07-.03-.15-.04-.23-.04,0,0-.01,0-.02,0-.06,0-.13,0-.19.02-.02,0-.04.02-.06.03-.02,0-.04.02-.06.03-.06.03-.12.06-.17.11,0,0-.02,0-.03.02-.02.02-.03.05-.05.08-.03.04-.06.08-.08.12-.02.05-.03.09-.05.14,0,.04-.02.08-.02.12,0,.02-.01.03-.01.05,0,.04.02.08.02.12,0,.03,0,.05,0,.08,1.05,3.66,3.05,6.74,3.86,7.89.17.24.27.52.31.81.79,6.47,2.68,17.31,6.42,17.31,2.2,0,6.84-3.12,7.11-12.74,0-.01,0-.02,0-.03,0-1.29.84-1.98,1.54-2.34.23-.12.52-.12.75,0,.7.36,1.54,1.06,1.54,2.34h0s0,.02,0,.04c.27,9.62,4.91,12.74,7.11,12.74,3.32,0,5.19-8.6,6.12-15.05.44.13.91.21,1.4.21,2.72,0,4.92-2.21,4.92-4.92,0-1.84-1.01-3.44-2.51-4.29ZM53.08,40.64c-1.91,0-3.47-1.56-3.47-3.47s1.56-3.47,3.47-3.47,3.47,1.56,3.47,3.47-1.56,3.47-3.47,3.47Z" style="fill:#1a171b;"/><path d="M20.71,23.62l-.33.64,2.9-.12-1.56-2.45-.34.64-3.43-1.79c.36-.89.56-1.85.56-2.87,0-1.6-.5-3.14-1.44-4.45-.17-.24-.47-.35-.76-.28-1.66.4-3.15,1.46-4.57,3.25-1.79,2.28-2.21,5.17-1.22,8.58.09.31.38.53.7.53.01,0,.02,0,.04,0,2.54-.13,4.73-1.49,6.02-3.47l3.43,1.79ZM11.76,23.8c-.64-2.68-.27-4.93,1.12-6.7,1.06-1.34,2.13-2.2,3.28-2.6.58.96.89,2.05.89,3.18,0,3.1-2.28,5.68-5.29,6.12Z" style="fill:#1a171b;"/><path d="M48.45,17.23l.11,2.9,2.45-1.55-.64-.34.89-1.69c.41.16.85.25,1.31.25,1.36,0,2.6-.74,3.24-1.94.13-.24.11-.53-.04-.75-.08-.12-.17-.24-.26-.36-1.64-2.09-3.49-2.95-5.67-2.63-.24.04-.44.18-.55.4-.25.51-.38,1.06-.38,1.62,0,1.03.43,1.96,1.12,2.63l-.95,1.79-.64-.34ZM50.46,12.51c1.05-.07,2.36.21,3.83,2.03-.42.51-1.04.81-1.71.81-1.22,0-2.21-.99-2.21-2.21,0-.21.03-.42.09-.63Z" style="fill:#1a171b;"/></svg>