<?xml version="1.0" encoding="UTF-8"?><svg id="a" xmlns="http://www.w3.org/2000/svg" viewBox="0 0 68 68"><path d="M50.08,39.53c-.39-.06-.77.22-.82.62-1.74,12.1-4.08,16.4-5.55,16.4-1.96,0-6.34-3.31-6.62-13.16,0-2.38-1.64-3.57-2.62-4.07-.72-.37-1.58-.37-2.29,0-.98.5-2.61,1.7-2.62,4.07-.28,9.84-4.66,13.15-6.62,13.15-2.09,0-4.49-7.63-5.83-18.56-.07-.59-.29-1.16-.63-1.64-1.46-2.09-8.47-12.87-2.65-20.27,5.49-6.98,10.74-4.6,16.29-2.09.36.17.8,0,.96-.36.17-.37,0-.8-.36-.96-5.55-2.51-11.84-5.36-18.04,2.51-6.3,8,.4,18.87,2.6,22.01.21.29.33.62.38.99.91,7.41,3.07,19.83,7.28,19.83,2.5,0,7.76-3.56,8.07-14.56,0-.01,0-.02,0-.04,0-1.54.99-2.37,1.83-2.8.3-.15.66-.16.96,0,.83.43,1.83,1.26,1.83,2.8,0,.01,0,.02,0,.04.31,11,5.57,14.56,8.07,14.56,2.95,0,5.3-5.94,6.99-17.64.06-.4-.22-.77-.62-.82Z" style="fill:#1a171b;"/><path d="M57.94,17.18s0-.01,0-.02c0-.08-.02-.16-.05-.24,0-.01-.01-.03-.02-.04-.04-.08-.08-.15-.14-.21l-6.46-6.46c-.06-.06-.14-.11-.21-.14-.01,0-.03-.01-.04-.02-.08-.03-.16-.05-.24-.05,0,0-.01,0-.02,0h-12.91s0,0-.01,0c-.09,0-.17.02-.25.05-.01,0-.02,0-.03.01-.08.04-.15.08-.22.15l-6.46,6.46c-.06.06-.11.13-.14.21,0,.01-.01.03-.02.04-.03.08-.05.16-.05.24,0,0,0,0,0,.02v12.91s0,.01,0,.02c0,.08.02.16.05.24,0,.01.01.03.02.04.04.08.08.15.14.21l6.46,6.46c.07.07.15.12.24.16.09.04.18.06.28.06h12.91c.1,0,.19-.02.28-.06.09-.04.17-.09.24-.16l6.46-6.46c.06-.06.11-.14.14-.21,0-.01.01-.03.02-.04.03-.08.05-.16.05-.24,0,0,0-.01,0-.02v-12.91ZM40.73,32.03h7.14l1.75,3.79h-10.64l1.75-3.79ZM48.03,30.58h-7.47l-3.21-3.21v-7.47l3.21-3.21h7.47l1.6,1.6,1.6,1.6v7.47l-1.6,1.6-1.6,1.6ZM32.11,28.96v-10.64l3.79,1.75v7.14l-3.79,1.75ZM47.87,15.25h-7.14l-1.75-3.79h10.64l-1.75,3.79ZM52.69,20.07l3.79-1.75v10.64l-3.79-1.75v-7.14ZM55.96,16.96l-3.84,1.77-1.46-1.46-1.46-1.46,1.77-3.84,4.98,4.98ZM37.62,11.98l1.77,3.84-2.91,2.92-3.84-1.77,4.98-4.98ZM32.64,30.32l3.84-1.77,2.91,2.91-1.77,3.84-4.98-4.98ZM50.98,35.3l-1.77-3.84,1.46-1.46,1.46-1.46,3.84,1.77-4.98,4.98Z" style="fill:#1a171b;"/></svg>