<?xml version="1.0" encoding="UTF-8"?><svg id="a" xmlns="http://www.w3.org/2000/svg" viewBox="0 0 68 68"><path d="M50.27,35.05c-.39-.12-.79.1-.91.49-.86,2.85-2.42,5.24-3.05,6.14-.27.38-.44.83-.5,1.3-1.08,8.81-2.94,13.57-4.13,13.57-1.39,0-4.51-2.4-4.71-9.55,0-1.86-1.28-2.79-2.04-3.18-.59-.3-1.29-.3-1.87,0-.76.39-2.03,1.32-2.04,3.18-.2,7.14-3.32,9.55-4.71,9.55-1.19,0-3.05-4.75-4.13-13.57-.06-.47-.23-.92-.5-1.3-.63-.9-2.2-3.31-3.05-6.17-.11-.39-.52-.61-.91-.49-.38.11-.6.52-.49.91.91,3.06,2.58,5.62,3.26,6.59.13.19.22.41.25.64.83,6.77,2.48,14.85,5.57,14.85,2.26,0,5.94-2.97,6.16-10.96,0-.01,0-.02,0-.03,0-.84.42-1.47,1.25-1.9.17-.09.37-.09.54,0,.83.42,1.25,1.06,1.25,1.89h0s0,.03,0,.04c.23,7.98,3.9,10.96,6.16,10.96,3.1,0,4.74-8.07,5.57-14.84.03-.24.11-.45.25-.64.67-.96,2.33-3.51,3.25-6.56.12-.38-.1-.79-.49-.91Z" style="fill:#1a171b;"/><path d="M53.09,16.52c-.23-.17-.53-.2-.78-.07l-5.46,2.84-2.54-7.73c-.08-.24-.28-.43-.53-.48-.25-.06-.51.03-.69.21l-4.86,5.19-3.6-6.15c-.26-.45-1-.45-1.26,0l-3.6,6.15-4.86-5.19c-.18-.19-.43-.27-.69-.21-.25.06-.45.24-.53.48l-2.54,7.73-5.46-2.84c-.25-.13-.55-.1-.78.07-.22.17-.33.45-.27.73l2.37,11.22c-1.11.33-1.92,1.32-1.92,2.51,0,1.45,1.22,2.64,2.72,2.64h32.41c1.5,0,2.72-1.18,2.72-2.64,0-1.18-.81-2.18-1.92-2.51l2.36-11.22c.06-.28-.05-.56-.27-.73ZM43.31,13.19l2.23,6.79-4.04,2.1-2.51-4.29,4.31-4.61ZM24.69,13.19l4.31,4.61-2.51,4.29-4.04-2.1,2.23-6.79ZM51.46,30.98c0,.65-.57,1.18-1.26,1.18H17.8c-.7,0-1.26-.53-1.26-1.18s.57-1.18,1.26-1.18h32.41c.7,0,1.26.53,1.26,1.18ZM49.54,28.34h-31.07l-2.08-9.89,10.06,5.24c.35.18.77.06.96-.28l6.59-11.27,6.59,11.27c.2.33.62.46.96.28l10.06-5.24-2.08,9.89Z" style="fill:#1a171b;"/></svg>