<?xml version="1.0" encoding="UTF-8"?><svg id="a" xmlns="http://www.w3.org/2000/svg" viewBox="0 0 68 68"><path d="M18.55,22.33c-.4,0-.73.33-.73.73v18.91c0,.4.33.73.73.73h30.91c.4,0,.73-.33.73-.73v-18.91c0-.4-.33-.73-.73-.73s-.73.33-.73.73v18.18h-29.45v-18.18c0-.4-.33-.73-.73-.73Z" style="fill:#1a171b;"/><path d="M58,52.85c0-.08-.02-.16-.05-.24,0-.02-.01-.04-.02-.06,0-.02-.01-.03-.02-.05l-3.6-6.49v-29.87c0-1.7-1.38-3.08-3.08-3.08h-1.79c-.4,0-.73.33-.73.73s.33.73.73.73h1.79c.9,0,1.63.73,1.63,1.63v29.33H15.15v-29.33c0-.9.73-1.63,1.63-1.63h1.79c.4,0,.73-.33.73-.73s-.33-.73-.73-.73h-1.79c-1.7,0-3.08,1.38-3.08,3.08v29.87l-3.6,6.49s-.01.03-.02.05c0,.02-.02.04-.02.06-.03.08-.05.16-.05.24,0,0,0,0,0,.01v2.18c0,1.6,1.31,2.91,2.91,2.91h42.18c1.6,0,2.91-1.31,2.91-2.91v-2.18s0,0,0-.01ZM14.85,46.93h38.31l2.89,5.2H11.96l2.89-5.2ZM56.55,55.04c0,.8-.65,1.45-1.45,1.45H12.91c-.8,0-1.45-.65-1.45-1.45v-1.46h45.09v1.46Z" style="fill:#1a171b;"/><path d="M23.43,26.75c.96,7.83,2.49,11.79,4.53,11.79,1.84,0,4.81-2.38,5-8.75,0-.01,0-.02,0-.03,0-.59.3-1.05.9-1.35.09-.04.19-.05.28,0,.59.31.9.76.9,1.35h0s0,.02,0,.03c.18,6.38,3.16,8.75,5,8.75,2.04,0,3.57-3.97,4.53-11.79.02-.16.08-.31.17-.43,1.31-1.87,5.29-8.34,1.5-13.15-3.75-4.77-7.58-3.03-10.95-1.5-.42.19-.85.39-1.29.57-.43-.18-.86-.38-1.28-.57-3.38-1.53-7.2-3.26-10.95,1.5-3.79,4.82.19,11.29,1.5,13.15.09.13.15.28.17.44ZM22.91,14.06c1.5-1.91,2.92-2.58,4.39-2.58s3.02.68,4.73,1.46c-.66.18-1.32.3-1.98.3-.4,0-.73.33-.73.73s.33.73.73.73c1.47,0,2.87-.44,4.23-1,0,0,.01,0,.02,0,.54-.22,1.07-.46,1.6-.7,3.44-1.56,6.16-2.79,9.21,1.08,3.25,4.13-.72,10.24-1.55,11.42-.23.32-.37.7-.42,1.09-.88,7.17-2.37,10.52-3.09,10.52-.89,0-3.38-1.74-3.54-7.35,0-1.14-.6-2.08-1.69-2.63-.5-.26-1.11-.26-1.61,0-1.08.56-1.68,1.49-1.69,2.63-.16,5.6-2.65,7.35-3.54,7.35-.72,0-2.21-3.34-3.09-10.52-.05-.39-.19-.77-.42-1.09-.83-1.18-4.8-7.29-1.55-11.42Z" style="fill:#1a171b;"/></svg>