<?xml version="1.0" encoding="UTF-8"?><svg id="a" xmlns="http://www.w3.org/2000/svg" viewBox="0 0 68 68"><path d="M39.3,47.91c4.53-5.39,10.62-14.11,10.62-21.98,0-8.78-7.14-15.93-15.93-15.93s-15.93,7.14-15.93,15.93c0,7.88,6.09,16.59,10.63,21.99-3.12.93-5.18,2.65-5.18,4.68,0,3.03,4.6,5.41,10.48,5.41s10.48-2.38,10.48-5.41c0-2.03-2.06-3.75-5.18-4.68ZM34,11.46c7.98,0,14.47,6.49,14.47,14.47,0,10.42-11.86,23-14.47,25.64-2.61-2.64-14.47-15.21-14.47-25.64,0-7.98,6.49-14.47,14.47-14.47ZM34,56.55c-5.32,0-9.03-2.08-9.03-3.96,0-1.31,1.84-2.73,4.78-3.45,2.03,2.31,3.55,3.79,3.75,3.98.14.13.32.2.5.2s.36-.07.5-.2c.19-.18,1.73-1.67,3.75-3.98,2.94.73,4.77,2.15,4.77,3.46,0,1.87-3.71,3.96-9.03,3.96Z" style="fill:#1a171b;"/><path d="M34.59,33.13s0,.02,0,.03c.14,4.88,2.47,6.7,3.91,6.7.61,0,2.46,0,3.56-8.95.01-.09.04-.17.09-.24,1-1.42,4.02-6.33,1.11-10.02-2.88-3.67-5.81-2.34-8.38-1.17-.29.13-.58.27-.88.39-.29-.13-.59-.26-.88-.39-2.58-1.17-5.5-2.49-8.38,1.17-2.91,3.69.12,8.6,1.11,10.02.05.07.08.15.09.24,1.1,8.95,2.95,8.95,3.56,8.95,1.44,0,3.77-1.82,3.91-6.7,0-.01,0-.02,0-.03,0-.14,0-.55.61-.84.57.29.57.71.57.84ZM33.31,31c-.86.44-1.35,1.21-1.36,2.12-.11,4.04-1.84,5.29-2.44,5.3-.51-.16-1.51-2.65-2.13-7.67-.04-.32-.16-.63-.34-.9-.6-.86-3.5-5.31-1.16-8.29,1.07-1.36,2.09-1.84,3.14-1.84.93,0,1.89.37,2.93.83-.3.06-.6.09-.9.09-.4,0-.73.33-.73.73s.33.73.73.73c1.58,0,3.03-.66,4.43-1.29,2.49-1.13,4.46-2.02,6.64.75,2.34,2.98-.56,7.43-1.16,8.29-.19.27-.3.58-.34.9-.61,4.97-1.63,7.52-2.12,7.67-.62,0-2.34-1.25-2.45-5.29,0-.91-.5-1.68-1.36-2.12-.43-.22-.94-.22-1.37,0Z" style="fill:#1a171b;"/></svg>