<?xml version="1.0" encoding="UTF-8"?><svg id="a" xmlns="http://www.w3.org/2000/svg" viewBox="0 0 68 68"><path d="M54.27,37.76c-1.03-.53-2.18-1.01-3.4-1.45,1.75-2.62,2.81-5.83,2.81-9.26,0-7.96-4.42-16.54-14.12-16.54-2.21,0-4.15.45-5.82,1.24-1.31-.41-2.77-.63-4.37-.63-6.94,0-11.43,4.05-11.43,10.31,0,.91.09,1.8.27,2.64-.32.63-.47,1.45-.39,2.34.11,1.17.57,2.2,1.24,2.75.31.26.65.4,1,.43.78,2.59,2.2,4.77,4.06,6.24-.23,1.07-.73,2.01-1.49,2.79-1.42.24-2.29.46-2.31.47-.61.16-1.25.34-2,.59-1.62.52-3.12,1.14-4.45,1.82-2.4,1.23-3.88,3.65-3.88,6.31v1.91c0,1.79.97,3.42,2.53,4.24,3.04,1.6,8.42,3.51,16.82,3.51s13.78-1.91,16.82-3.51c.76-.4,1.38-1,1.82-1.71,3.37-.67,5.87-1.66,7.57-2.55,1.5-.79,2.44-2.36,2.44-4.08v-1.82c0-2.55-1.43-4.88-3.73-6.06ZM39.56,11.97c8.7,0,12.66,7.82,12.66,15.08,0,3.29-1.06,6.34-2.79,8.79-.47-.14-.9-.27-1.3-.37-.72-.21-1.49-.39-2.27-.54-.67-.71-1.11-1.54-1.33-2.48,1.52-1.31,2.69-3.16,3.35-5.34.31-.04.62-.17.89-.4.62-.51,1.04-1.45,1.14-2.52.15-1.64-.54-2.99-1.67-3.3-.37-.1-.69-.09-.96-.04-.3-.77-.89-1.83-2-2.55-1.35-.87-3.03-.96-4.99-.31-.76-2.38-2.35-4.24-4.58-5.42,1.17-.38,2.45-.59,3.86-.59ZM40.37,39.68c-.75-.24-1.39-.43-1.97-.58-.8-.24-1.6-.41-2.42-.56-.71-.76-1.18-1.67-1.41-2.71.74-.58,1.41-1.28,2-2.07.93.41,1.92.65,2.92.65,1.31,0,2.6-.37,3.78-1.06.3.92.78,1.75,1.45,2.48-.12,1.11-1.05,2.87-2.18,4.64-.7-.28-1.42-.54-2.17-.79ZM40.87,26.42c.08-.86-.06-1.65-.36-2.27.19-.87.29-1.77.29-2.71,0-.71-.07-1.39-.18-2.05,1.46-.51,2.69-.52,3.64,0,1.39.75,1.79,2.36,1.82,2.49.02.2.13.39.29.51.19.14.43.18.65.11.05-.01.12-.04.22-.1.14-.08.34-.18.62-.1.31.08.7.75.61,1.77-.07.76-.36,1.31-.62,1.53-.07.06-.13.08-.18.07-.2-.09-.42-.1-.62,0-.2.09-.34.27-.4.48-.61,2.39-1.86,4.37-3.54,5.59-1.73,1.26-3.82,1.5-5.71.78.51-.89.92-1.87,1.24-2.91.35-.03.69-.18,1-.44.67-.55,1.13-1.58,1.24-2.75ZM29.37,12.57c6.15,0,9.98,3.39,9.98,8.86,0,.5-.04.98-.1,1.46-.06-.02-.11-.05-.17-.07-.42-.12-.8-.1-1.1-.03-.17-.52-.45-1.33-.92-2.64,0-.02-.03-.04-.04-.06-.02-.04-.04-.08-.07-.12-.03-.04-.06-.08-.1-.11-.02-.02-.03-.04-.05-.05-.04-.03-.08-.04-.12-.07h0c-2.21-1.52-5.58-1.5-7.75.07-1.67,1.21-4.49,1.21-6.17,0-.03-.02-.06-.03-.09-.04-.03-.02-.05-.04-.09-.05-.01,0-.03,0-.04,0-.05-.01-.1-.02-.15-.02-.05,0-.09,0-.13,0-.05,0-.09.02-.13.03-.05.01-.09.03-.13.05-.04.02-.07.05-.11.08-.04.03-.08.06-.11.1,0,.01-.02.02-.03.03-.02.03-.03.06-.04.09-.02.03-.04.05-.05.09-.47,1.3-.75,2.12-.92,2.64-.3-.07-.67-.08-1.1.03-.04.01-.09.04-.13.05-.06-.47-.1-.95-.1-1.44,0-5.46,3.82-8.86,9.98-8.86ZM21.3,28.61c-.05-.21-.23-.38-.43-.47-.2-.09-.46-.08-.65,0-.08.01-.18-.06-.23-.11-.28-.23-.63-.83-.72-1.76-.11-1.24.37-1.96.74-2.06.35-.09.59.04.75.12.1.05.18.09.23.1.22.07.46.03.65-.11.16-.12.27-.3.29-.5.06-.23.41-1.27.8-2.37.95.47,2.03.71,3.12.71,1.42,0,2.83-.4,3.94-1.2,1.62-1.17,4.31-1.2,5.99-.1.46,1.3.94,2.68,1.01,2.96.02.2.13.38.29.5.18.14.43.18.65.11.05-.01.13-.05.23-.1.16-.09.4-.22.75-.12.36.1.85.82.74,2.06-.08.93-.44,1.53-.72,1.76-.05.04-.16.12-.29.09-.2-.09-.42-.09-.62,0-.2.09-.34.27-.4.48-.68,2.68-2.09,4.91-3.98,6.28-2.48,1.81-5.67,1.81-8.15,0-1.88-1.37-3.3-3.6-3.97-6.28ZM25.42,36.7c1.23.67,2.57,1.03,3.93,1.03s2.7-.36,3.93-1.03c.31,1.04.84,1.98,1.58,2.78-.37,1.13-2.97,3.27-5.5,4.86-2.54-1.59-5.14-3.73-5.5-4.86.74-.8,1.26-1.73,1.57-2.77ZM11.45,49.73v-1.91c0-2.11,1.19-4.04,3.09-5.02,1.26-.65,2.68-1.23,4.23-1.73.72-.23,1.33-.41,1.91-.56.03,0,.73-.18,1.88-.39.93,2.12,4.65,4.6,6.06,5.48v10.43c-8.09-.12-13.12-2.12-15.41-3.33-1.09-.57-1.76-1.71-1.76-2.96ZM47.26,49.73c0,1.25-.67,2.38-1.76,2.96-2.3,1.21-7.32,3.22-15.41,3.33v-10.43c1.42-.88,5.21-3.41,6.08-5.54.62.13,1.24.27,1.84.45.58.15,1.19.33,1.91.56,1.55.5,2.97,1.08,4.24,1.73,1.91.98,3.1,2.91,3.1,5.02v1.91ZM56.54,45.64c0,1.18-.64,2.25-1.66,2.79-1.23.65-3.32,1.53-6.27,2.21.06-.3.09-.6.09-.91v-1.91c0-.43-.05-.86-.13-1.28,1.29-.28,2.52-.62,3.67-1.02.38-.13.58-.55.45-.93-.13-.38-.55-.58-.93-.45-1.12.39-2.34.71-3.61.98-.63-1.54-1.8-2.83-3.35-3.63-.3-.15-.61-.3-.92-.45,1-1.62,1.88-3.29,2.18-4.6.57.12,1.12.25,1.67.42.55.14,1.13.31,1.82.54,1.48.48,2.83,1.03,4.04,1.65,1.81.93,2.94,2.76,2.94,4.76v1.82Z" style="fill:#1a171b;"/><path d="M43.12,48.31c-1.8.63-3.77,1.12-5.86,1.48-.4.07-.66.44-.6.84.06.35.37.6.72.6.04,0,.08,0,.12,0,2.17-.37,4.22-.89,6.09-1.54.38-.13.58-.55.45-.93-.13-.38-.55-.58-.93-.45Z" style="fill:#1a171b;"/></svg>