<?xml version="1.0" encoding="UTF-8"?><svg id="a" xmlns="http://www.w3.org/2000/svg" viewBox="0 0 68 68"><path d="M43.56,45.17c-.4,0-.73.33-.73.73v3.38H15.92V13.64c0-1.2.98-2.18,2.18-2.18h22.54c1.2,0,2.18.98,2.18,2.18v1.53c0,.4.33.73.73.73s.73-.33.73-.73v-1.53c0-2-1.63-3.64-3.64-3.64h-22.54c-2,0-3.64,1.63-3.64,3.64v40.73c0,2,1.63,3.64,3.64,3.64h22.54c2.01,0,3.64-1.63,3.64-3.64v-8.47c0-.4-.33-.73-.73-.73ZM40.65,56.54h-22.54c-1.2,0-2.18-.98-2.18-2.18v-3.64h26.91v3.64c0,1.2-.98,2.18-2.18,2.18Z" style="fill:#1a171b;"/><path d="M33.41,13.64h-8.07c-.4,0-.73.33-.73.73s.33.73.73.73h8.07c.4,0,.73-.33.73-.73s-.33-.73-.73-.73Z" style="fill:#1a171b;"/><path d="M23.77,53.12c-.13.14-.21.33-.21.52s.08.38.21.52c.14.14.32.21.52.21s.38-.07.52-.21c.13-.14.21-.32.21-.52s-.08-.38-.21-.51c-.27-.28-.76-.27-1.03,0Z" style="fill:#1a171b;"/><path d="M29.38,52.91c-.4,0-.73.33-.73.73s.33.73.73.73.73-.33.73-.73-.33-.73-.73-.73Z" style="fill:#1a171b;"/><path d="M33.95,53.12c-.14.13-.21.32-.21.51s.07.38.21.52c.14.14.33.21.52.21s.38-.07.52-.21c.13-.14.21-.32.21-.52s-.08-.38-.21-.51c-.27-.28-.76-.28-1.03,0Z" style="fill:#1a171b;"/><path d="M42.82,19.26c-2.44-1.11-5.2-2.36-7.93,1.12-2.75,3.49.11,8.13,1.05,9.47.04.06.07.13.08.21,1.04,8.45,2.81,8.45,3.39,8.45,1.37,0,3.58-1.72,3.72-6.34,0,0,0-.02,0-.03,0-.12,0-.49.51-.75.51.26.51.63.51.75h0v.03c.13,4.62,2.35,6.34,3.72,6.34.58,0,2.35,0,3.39-8.45,0-.08.04-.14.08-.21.94-1.34,3.79-5.98,1.04-9.47-2.73-3.47-5.49-2.22-7.93-1.12-.27.12-.54.25-.81.36-.27-.12-.54-.24-.81-.36ZM45.04,20.58c2.42-1.09,4.16-1.88,6.19.69,2.18,2.77-.53,6.93-1.09,7.74-.18.25-.29.55-.33.86-.57,4.64-1.5,6.99-1.95,7.17-.54,0-2.16-1.21-2.26-4.93,0-.87-.48-1.61-1.3-2.04-.42-.21-.91-.21-1.33,0-.82.42-1.29,1.16-1.3,2.04-.11,3.71-1.72,4.93-2.23,4.93-.48-.19-1.41-2.54-1.98-7.18-.04-.31-.15-.61-.33-.86-.57-.81-3.27-4.96-1.09-7.74,1-1.27,1.93-1.72,2.91-1.72.82,0,1.67.32,2.62.74-.23.04-.47.06-.7.06-.4,0-.73.33-.73.73s.33.73.73.73c1.49,0,2.86-.62,4.18-1.22Z" style="fill:#1a171b;"/><path d="M52.79,34.15c-.4,0-.73.33-.73.73v5.65h-10.88c-.15,0-.3.05-.42.13l-5.4,3.82v-3.23c0-.4-.33-.73-.73-.73h-2.94v-21.21h1.45c.4,0,.73-.33.73-.73s-.33-.73-.73-.73h-2.17c-.4,0-.73.33-.73.73v22.66c0,.4.33.73.73.73h2.94v3.91c0,.27.15.52.39.65.1.05.22.08.33.08.15,0,.3-.05.42-.13l6.36-4.5h11.38c.4,0,.73-.33.73-.73v-6.38c0-.4-.33-.73-.73-.73Z" style="fill:#1a171b;"/></svg>