<?xml version="1.0" encoding="UTF-8"?><svg id="a" xmlns="http://www.w3.org/2000/svg" viewBox="0 0 68 68"><path d="M39.59,45c-.4-.07-.77.2-.84.59-1.33,7.72-2.87,9.78-3.58,9.78-1.4,0-4.52-2.41-4.73-9.58,0-1.86-1.28-2.8-2.04-3.19-.59-.3-1.29-.3-1.87,0-.76.39-2.04,1.32-2.04,3.19-.2,7.17-3.33,9.58-4.73,9.58-1.2,0-3.06-4.77-4.15-13.61-.06-.47-.23-.92-.5-1.31-1.07-1.53-6.21-9.43-1.97-14.83,3.99-5.07,7.7-3.38,12-1.43.5.23,1,.45,1.5.67.37.16.8-.01.96-.38.16-.37-.01-.8-.38-.95-.5-.21-.99-.44-1.48-.66-4.45-2.02-9.05-4.11-13.75,1.86-4.76,6.05.27,14.2,1.93,16.56.13.19.22.41.25.65.83,6.79,2.48,14.89,5.59,14.89,2.27,0,5.95-2.98,6.18-10.99,0-.01,0-.02,0-.03,0-.84.42-1.48,1.25-1.91.17-.09.37-.09.54,0,.83.43,1.25,1.07,1.25,1.91h0s0,.02,0,.04c.23,8,3.91,10.98,6.18,10.98,1.34,0,3.32-1.14,5.01-10.99.07-.4-.2-.77-.59-.84Z" style="fill:#1a171b;"/><path d="M57.68,15.18c-.2-.13-.45-.16-.68-.07-.06.03-5.92,2.3-12.74-3.75-.28-.24-.69-.24-.96,0-6.79,6.01-12.51,3.84-12.74,3.75-.22-.09-.48-.06-.68.07-.2.13-.32.36-.32.6v8.5c0,16.24,13.89,20.29,14.03,20.33.06.02.13.03.19.03s.13,0,.2-.03c.14-.04,14.03-4.09,14.03-20.33v-8.5c0-.24-.12-.47-.32-.6ZM56.55,24.28c0,14.27-11.09,18.33-12.77,18.87-1.68-.53-12.77-4.6-12.77-18.87v-7.53c2.07.47,7.1.88,12.77-3.88,5.67,4.76,10.7,4.35,12.77,3.88v7.53Z" style="fill:#1a171b;"/><path d="M52.76,22.62c-.27-.11-.58-.05-.79.16l-12.73,12.73c-.15.15-.22.35-.21.55.01.21.11.4.27.53,2.15,1.74,4.19,2.32,4.28,2.34.06.02.13.03.19.03s.13,0,.2-.03c.09-.03,9.24-2.69,9.24-13.36v-2.27c0-.29-.18-.56-.45-.67ZM51.76,25.57c0,8.82-6.7,11.47-7.98,11.9-.45-.15-1.61-.6-2.91-1.52l10.89-10.89v.52Z" style="fill:#1a171b;"/><path d="M49.97,20.09c-.09-.26-.31-.45-.59-.49-1.77-.25-3.49-1.11-5.13-2.56-.28-.24-.69-.24-.96,0-4.25,3.76-7.81,2.43-7.95,2.37-.23-.09-.48-.06-.68.07-.2.14-.32.36-.32.6v5.48c0,2.83.65,5.37,1.93,7.52.12.19.31.32.53.35.03,0,.06,0,.09,0,.19,0,.38-.07.51-.21l12.39-12.39c.2-.2.26-.48.18-.74ZM37.07,31.51c-.85-1.74-1.27-3.74-1.27-5.95v-4.55c1.51.26,4.57.3,7.98-2.48,1.3,1.06,2.66,1.8,4.06,2.21l-10.76,10.76Z" style="fill:#1a171b;"/></svg>