<?xml version="1.0" encoding="UTF-8"?><svg id="a" xmlns="http://www.w3.org/2000/svg" viewBox="0 0 68 68"><path d="M31.69,49.61H15.1c-2.01,0-3.64-1.63-3.64-3.64v-24.97h40.71v5.93c0,.4.33.73.73.73s.73-.33.73-.73v-8.43c0-2.81-2.29-5.1-5.1-5.1h-2.2c-.34-1.72-1.86-3.02-3.68-3.02s-3.34,1.3-3.68,3.02h-3.52c-.34-1.72-1.86-3.02-3.68-3.02s-3.33,1.3-3.68,3.02h-3.45c-.34-1.72-1.86-3.02-3.68-3.02s-3.33,1.3-3.68,3.02h-2.2c-2.81,0-5.1,2.29-5.1,5.1v27.47c0,2.81,2.29,5.1,5.1,5.1h16.6c.4,0,.73-.33.73-.73s-.33-.73-.73-.73ZM11.45,18.5c0-2.01,1.63-3.64,3.64-3.64h2.2c.34,1.72,1.86,3.02,3.68,3.02.4,0,.73-.33.73-.73s-.33-.73-.73-.73c-1.27,0-2.29-1.03-2.29-2.29h0c0-1.27,1.03-2.29,2.29-2.29,1.01,0,1.86.66,2.17,1.57h-2.28c-.4,0-.73.33-.73.73s.33.73.73.73h3.12s0,0,.01,0c0,0,0,0,.01,0h4.1c.34,1.72,1.86,3.02,3.68,3.02.4,0,.73-.33.73-.73s-.33-.73-.73-.73c-1.26,0-2.29-1.03-2.29-2.29,0-1.27,1.03-2.29,2.29-2.29,1.01,0,1.86.66,2.17,1.57h-2.28c-.4,0-.73.33-.73.73s.33.73.73.73h3.12s0,0,.01,0,0,0,.01,0h4.16c.34,1.72,1.86,3.02,3.68,3.02.4,0,.73-.33.73-.73s-.33-.73-.73-.73c-1.27,0-2.29-1.03-2.3-2.29,0-1.27,1.03-2.29,2.3-2.29,1.01,0,1.86.66,2.17,1.57h-2.28c-.4,0-.73.33-.73.73s.33.73.73.73h3.12s0,0,.01,0c0,0,0,0,.01,0h2.85c2.01,0,3.64,1.63,3.64,3.64v1.05H11.45v-1.05Z" style="fill:#1a171b;"/><path d="M56.42,32.54c-3.38-4.3-6.83-3.25-9.94-1.88v-3.57h1.73c.4,0,.73-.33.73-.73s-.33-.73-.73-.73h-1.73v-1.92c0-.4-.33-.73-.73-.73s-.73.33-.73.73v1.92h-7.82v-1.92c0-.4-.33-.73-.73-.73s-.73.33-.73.73v1.92h-7.82v-1.92c0-.4-.33-.73-.73-.73s-.73.33-.73.73v1.92h-7.82v-1.92c0-.4-.33-.73-.73-.73s-.73.33-.73.73v1.92h-1.81c-.4,0-.73.33-.73.73s.33.73.73.73h1.81v7.49h-1.81c-.4,0-.73.33-.73.73s.33.73.73.73h1.81v7.49h-1.81c-.4,0-.73.33-.73.73s.33.73.73.73h1.81v1.92c0,.4.33.73.73.73s.73-.33.73-.73v-1.92h7.82v1.92c0,.4.33.73.73.73s.73-.33.73-.73v-1.92h5.41c.14.22.27.41.38.56.09.13.14.27.16.43.95,7.73,2.46,11.65,4.48,11.65,1.82,0,4.76-2.35,4.94-8.65,0-.01,0-.02,0-.03,0-.58.3-1.03.88-1.33.08-.04.18-.04.27,0,.58.3.88.75.88,1.33h0s0,.02,0,.03c.18,6.3,3.13,8.65,4.94,8.65,2.02,0,3.53-3.92,4.48-11.65.02-.16.07-.3.16-.43,1.3-1.84,5.23-8.24,1.48-13ZM26.49,43.52h-7.82v-7.49h7.82v7.49ZM26.49,34.58h-7.82v-7.49h7.82v7.49ZM45.03,27.09v4.21c-.23.1-.46.21-.7.31-.42-.18-.84-.37-1.26-.56-1.85-.84-3.83-1.73-5.86-1.57v-2.39h7.82ZM27.94,27.09h7.82v2.7c-1.17.42-2.34,1.26-3.51,2.75-.52.65-.88,1.34-1.13,2.04h-3.17v-7.49ZM27.94,43.52v-7.49h2.81c-.39,2.75.69,5.55,1.74,7.49h-4.55ZM53.75,44.7c-.22.32-.37.69-.42,1.09-.87,7.08-2.33,10.38-3.04,10.38-.88,0-3.33-1.72-3.49-7.25,0-1.13-.6-2.06-1.67-2.61-.5-.26-1.1-.26-1.6,0-1.07.55-1.67,1.48-1.67,2.61-.16,5.53-2.61,7.24-3.49,7.24-.71,0-2.17-3.3-3.04-10.38-.05-.39-.19-.77-.42-1.09-.82-1.17-4.74-7.19-1.53-11.26,2.97-3.77,5.63-2.63,8.97-1.11-.64.18-1.29.29-1.93.29-.4,0-.73.33-.73.73s.33.73.73.73c1.45,0,2.83-.44,4.17-.99,0,0,.02,0,.03-.01.53-.22,1.05-.46,1.57-.69,3.4-1.54,6.08-2.75,9.08,1.06,3.21,4.08-.71,10.1-1.53,11.26Z" style="fill:#1a171b;"/></svg>