<?xml version="1.0" encoding="UTF-8"?><svg id="a" xmlns="http://www.w3.org/2000/svg" viewBox="0 0 68 68"><path d="M54.21,21.15c-.39.08-.65.46-.57.86,1.27,6.28-3.14,13.19-4.52,15.16-.33.47-.54,1.02-.61,1.59-1.29,10.47-3.58,17.79-5.57,17.79-1.87,0-6.06-3.17-6.32-12.6,0-2.3-1.59-3.45-2.53-3.94-.7-.36-1.53-.36-2.23,0-.94.48-2.52,1.64-2.53,3.94-.26,9.43-4.45,12.6-6.32,12.6-1.99,0-4.28-7.31-5.57-17.79-.07-.57-.28-1.12-.61-1.59-1.4-2-8.12-12.34-2.54-19.43,5.26-6.68,10.13-4.47,15.78-1.92.32.15.65.29.98.44-1.52.53-3.06.89-4.6.89-.4,0-.73.33-.73.73s.33.73.73.73c2.35,0,4.6-.72,6.79-1.62.02,0,.03-.01.05-.02.88-.36,1.75-.75,2.62-1.15,3.59-1.63,6.99-3.17,10.33-2.2.39.11.79-.11.9-.5.11-.39-.11-.79-.5-.9-3.86-1.12-7.66.61-11.33,2.27-.77.35-1.54.7-2.32,1.02-.78-.33-1.56-.68-2.32-1.02-5.68-2.57-11.56-5.24-17.52,2.34-6.06,7.7.38,18.14,2.5,21.16.19.28.31.59.36.93.88,7.12,2.95,19.06,7.02,19.06,2.41,0,7.48-3.42,7.78-14,0-.01,0-.02,0-.04,0-1.46.94-2.25,1.74-2.66.28-.14.62-.14.9,0,.79.41,1.74,1.2,1.74,2.66h0s0,.03,0,.04c.3,10.58,5.37,14,7.78,14,4.06,0,6.14-11.94,7.02-19.06.04-.34.16-.66.36-.93,1.47-2.09,6.14-9.44,4.75-16.28-.08-.39-.47-.65-.86-.57Z" style="fill:#1a171b;"/><path d="M56.67,15.38c-2.56,0-4.65-2.09-4.65-4.65,0-.4-.33-.73-.73-.73s-.73.33-.73.73c0,2.56-2.09,4.65-4.65,4.65-.4,0-.73.33-.73.73s.33.73.73.73c2.56,0,4.65,2.09,4.65,4.65,0,.4.33.73.73.73s.73-.33.73-.73c0-2.56,2.09-4.65,4.65-4.65.4,0,.73-.33.73-.73s-.33-.73-.73-.73ZM51.29,18.59c-.57-1.05-1.44-1.92-2.49-2.49,1.05-.57,1.92-1.44,2.49-2.49.57,1.05,1.44,1.92,2.49,2.49-1.05.57-1.92,1.44-2.49,2.49Z" style="fill:#1a171b;"/><path d="M41.36,27.27c-.4,0-.73.33-.73.73,0,2.56-2.09,4.65-4.65,4.65-.4,0-.73.33-.73.73s.33.73.73.73c2.56,0,4.65,2.09,4.65,4.65,0,.4.33.73.73.73s.73-.33.73-.73c0-2.56,2.09-4.65,4.65-4.65.4,0,.73-.33.73-.73s-.33-.73-.73-.73c-2.56,0-4.65-2.09-4.65-4.65,0-.4-.33-.73-.73-.73ZM43.85,33.38c-1.05.57-1.92,1.44-2.49,2.49-.57-1.05-1.44-1.92-2.49-2.49,1.05-.57,1.92-1.44,2.49-2.49.57,1.05,1.44,1.92,2.49,2.49Z" style="fill:#1a171b;"/><path d="M24.57,21.65c0-.4-.33-.73-.73-.73s-.73.33-.73.73c0,2.57-2.09,4.65-4.65,4.65-.4,0-.73.33-.73.73s.33.73.73.73c2.56,0,4.65,2.09,4.65,4.65,0,.4.33.73.73.73s.73-.33.73-.73c0-2.56,2.09-4.65,4.65-4.65.4,0,.73-.33.73-.73s-.33-.73-.73-.73c-2.56,0-4.65-2.09-4.65-4.65ZM23.85,29.52c-.57-1.05-1.44-1.92-2.49-2.49,1.05-.57,1.92-1.44,2.49-2.49.57,1.05,1.44,1.92,2.49,2.49-1.05.57-1.92,1.44-2.49,2.49Z" style="fill:#1a171b;"/></svg>