<?xml version="1.0" encoding="UTF-8"?><svg id="a" xmlns="http://www.w3.org/2000/svg" viewBox="0 0 68 68"><path d="M57.27,26.89h-4.56c.49-3.12.19-6.47-1.93-9.39-5.08-7-10.08-4.54-14.91-2.17-.62.31-1.25.61-1.88.9-.63-.29-1.26-.6-1.88-.9-4.83-2.37-9.83-4.83-14.91,2.17-2.12,2.92-2.42,6.27-1.93,9.39h-3.83v-2.16c0-.4-.33-.73-.73-.73s-.73.33-.73.73v5.78c0,.4.33.73.73.73s.73-.33.73-.73v-2.16h4.12c.9,3.79,2.81,7.05,3.74,8.48.16.24.26.53.29.84.9,7.96,2.68,17.44,6.02,17.44,2.45,0,6.41-3.48,6.66-12.83,0-.01,0-.02,0-.03,0-1.31.77-2.02,1.42-2.38.19-.11.41-.11.61,0,.65.36,1.42,1.06,1.42,2.38h0s0,.02,0,.04c.25,9.34,4.21,12.83,6.66,12.83,3.34,0,5.11-9.48,6.02-17.44.03-.31.13-.59.29-.84.93-1.43,2.83-4.69,3.74-8.48h4.85c.4,0,.73-.33.73-.73s-.33-.73-.73-.73ZM18.39,18.35c2.14-2.95,4.21-3.97,6.32-3.97s4.39,1.09,6.77,2.26c.24.12.48.23.71.35-1.22.45-2.46.75-3.69.75-.4,0-.73.33-.73.73s.33.73.73.73c2.01,0,3.93-.66,5.79-1.49,0,0,0,0,0,0,.75-.33,1.49-.7,2.22-1.06,4.68-2.3,8.73-4.29,13.09,1.72,1.88,2.59,2.09,5.67,1.6,8.53h-6.06v-.41c0-2-1.63-3.64-3.64-3.64h-19.9c-.8,0-1.45.65-1.45,1.45v2.59h-3.36c-.5-2.87-.29-5.94,1.6-8.53ZM21.61,30.93v-2.59h8.63v2.59h-8.63ZM24.24,25.84c.4,0,.73-.33.73-.73v-.82h1.91v.82c0,.4.33.73.73.73s.73-.33.73-.73v-.82h1.91v2.59h-8.63v-2.59h1.91v.82c0,.4.33.73.73.73ZM31.69,30.93v-6.64h1.91v.82c0,.4.33.73.73.73s.73-.33.73-.73v-.82h1.91v.82c0,.4.33.73.73.73s.73-.33.73-.73v-.82h1.91v.82c0,.4.33.73.73.73s.73-.33.73-.73v-.79c1.07.14,1.91,1.04,1.91,2.15v2.28c0,1.2-.98,2.18-2.18,2.18h-9.81ZM47.47,36.03c-.28.43-.46.94-.52,1.46-1.19,10.49-3.24,16.15-4.57,16.15-1.54,0-4.98-2.88-5.2-11.42,0-2.11-1.36-3.18-2.17-3.63-.63-.35-1.39-.35-2.02,0-.81.45-2.16,1.52-2.17,3.63-.22,8.54-3.66,11.42-5.2,11.42-1.33,0-3.38-5.66-4.57-16.15-.06-.53-.24-1.03-.52-1.47-.62-.96-2.49-4.05-3.43-7.69h3.05v2.59c0,.8.65,1.46,1.45,1.46h19.9c2,0,3.64-1.63,3.64-3.64v-.41h5.75c-.93,3.64-2.8,6.73-3.43,7.69Z" style="fill:#1a171b;"/></svg>