<?xml version="1.0" encoding="UTF-8"?><svg id="a" xmlns="http://www.w3.org/2000/svg" viewBox="0 0 68 68"><path d="M54.94,26.2c-3.67-4.66-7.34-4.2-10.13-3.28-.38.13-.59.54-.46.92.13.38.54.59.92.46,2.61-.86,5.45-1.12,8.54,2.8,4.2,5.34-.89,13.16-1.95,14.67-.27.38-.44.83-.5,1.3-1.08,8.75-2.92,13.47-4.1,13.47-1.38,0-4.47-2.39-4.67-9.48,0-1.37-.73-2.49-2.03-3.16-.58-.3-1.28-.3-1.86,0-1.3.67-2.02,1.79-2.03,3.16-.2,7.09-3.29,9.48-4.67,9.48-1.18,0-3.02-4.72-4.1-13.47-.05-.4-.41-.69-.81-.63-.4.05-.68.41-.63.81.83,6.73,2.46,14.75,5.54,14.75,2.25,0,5.9-2.96,6.13-10.89,0-.01,0-.02,0-.03,0-.83.42-1.46,1.24-1.88.16-.08.37-.08.53,0,.82.42,1.24,1.06,1.24,1.88h0s0,.02,0,.04c.23,7.93,3.88,10.89,6.13,10.89,3.08,0,4.71-8.02,5.54-14.75.03-.23.11-.45.24-.64,1.64-2.34,6.62-10.42,1.91-16.41Z" style="fill:#1a171b;"/><path d="M36.36,40.16c1.81-.17,3.17-1.67,3.17-3.49,0-.31-.04-.62-.12-.91,1.18-.58,1.98-1.79,1.98-3.15,0-.64-.18-1.27-.51-1.81.56-.63.88-1.46.88-2.32,0-1.08-.45-1.86-.99-2.34.37-.45.78-1.21.78-2.37,0-1.75-1.35-3.24-2.95-3.24h-7.61c.23-1.11.44-2.71.27-4.54-.31-3.49-2.01-5.9-4.22-5.99-1.89-.08-2.67.34-2.81.42-.27.16-.4.48-.33.79.25,1.07.84,4.11.58,5.26-.46,2.03-2.16,3.95-3.66,5.63-1.39,1.56-2.48,2.79-2.48,3.97v11.42c0,1.47,1.2,2.67,2.67,2.67h15.11c.09,0,.18,0,.24-.02ZM19.79,37.51v-11.42c0-.63,1.07-1.84,2.11-3.01,1.53-1.73,3.44-3.88,3.99-6.28.3-1.33-.18-3.99-.44-5.25.32-.06.82-.11,1.52-.08,1.4.06,2.59,2.02,2.83,4.67.21,2.29-.25,4.22-.45,4.94-.06.22-.02.46.12.64s.35.29.58.29h8.54c.7,0,1.49.76,1.49,1.78s-.46,1.51-.66,1.66c-.27.21-.42.53-.39.87.03.33.23.62.53.78.35.18.72.64.72,1.41,0,.65-.3,1.25-.83,1.64-.17.12-.27.31-.29.52-.02.21.05.41.19.56.36.38.56.88.56,1.4,0,.96-.68,1.8-1.63,2-.22.05-.41.2-.51.41-.1.21-.09.45.02.65.17.31.26.65.26,1,0,1.06-.8,1.94-1.88,2.04-.03,0-.05,0-.08,0h-15.11c-.67,0-1.22-.55-1.22-1.22Z" style="fill:#1a171b;"/><path d="M13.76,24.73c-1.48,0-2.68,1.2-2.68,2.68v10.09c0,1.48,1.2,2.68,2.68,2.68s2.68-1.2,2.68-2.68v-10.09c0-1.48-1.2-2.68-2.68-2.68ZM14.99,37.5c0,.68-.55,1.23-1.23,1.23s-1.23-.55-1.23-1.23v-10.09c0-.68.55-1.23,1.23-1.23s1.23.55,1.23,1.23v10.09Z" style="fill:#1a171b;"/></svg>