<?xml version="1.0" encoding="UTF-8"?><svg id="a" xmlns="http://www.w3.org/2000/svg" viewBox="0 0 68 68"><path d="M52.64,14.69c-5.62-7.14-11.14-4.63-16.48-2.21-.71.32-1.43.65-2.15.95-.72-.3-1.44-.63-2.15-.95-5.34-2.42-10.87-4.93-16.48,2.21-5.7,7.25.35,17.06,2.34,19.9.18.25.29.54.33.86.82,6.69,2.78,17.92,6.62,17.92.4,0,.73-.33.73-.73s-.33-.73-.73-.73c-1.82,0-3.99-7-5.18-16.64-.07-.55-.27-1.07-.58-1.51-1.31-1.87-7.6-11.54-2.39-18.16,4.91-6.24,9.47-4.17,14.74-1.78.27.12.55.25.82.37-1.39.47-2.79.79-4.2.79-.4,0-.73.33-.73.73s.33.73.73.73c2.21,0,4.32-.67,6.38-1.52.02,0,.03-.01.05-.02.83-.34,1.64-.71,2.45-1.08,5.27-2.39,9.83-4.46,14.74,1.78,5.21,6.62-1.07,16.29-2.39,18.16-.31.45-.51.97-.58,1.51-1.19,9.64-3.36,16.64-5.18,16.64-.4,0-.73.33-.73.73s.33.73.73.73c3.85,0,5.8-11.23,6.62-17.92.04-.31.15-.6.33-.86,1.99-2.83,8.04-12.65,2.34-19.9Z" style="fill:#1a171b;"/><path d="M43.79,33.11v-2.16c0-1.2-.98-2.18-2.18-2.18h-15.21c-1.2,0-2.18.98-2.18,2.18v2.16c0,1.2.98,2.18,2.18,2.18h.44l2.36,18.48c.31,2.41,2.37,4.23,4.8,4.23s4.5-1.82,4.8-4.23h0l2.36-18.48h.44c1.2,0,2.18-.98,2.18-2.18ZM25.67,33.11v-2.16c0-.4.33-.73.73-.73h15.21c.4,0,.73.33.73.73v2.16c0,.4-.33.73-.73.73h-15.21c-.4,0-.73-.33-.73-.73ZM37.36,53.59h0c-.22,1.69-1.66,2.96-3.36,2.96s-3.15-1.27-3.36-2.96l-2.34-18.29h11.39l-2.34,18.29Z" style="fill:#1a171b;"/><path d="M29.82,40.16c.1.3.39.5.69.5.08,0,.16-.01.23-.04l7.15-2.41c.38-.13.58-.54.46-.92-.13-.38-.54-.59-.92-.46l-7.15,2.41c-.38.13-.58.54-.46.92Z" style="fill:#1a171b;"/><path d="M36.74,40.7l-5.69,1.92c-.38.13-.59.54-.46.92.1.3.39.5.69.5.08,0,.16-.01.23-.04l5.69-1.92c.38-.13.59-.54.46-.92-.13-.38-.54-.59-.92-.46Z" style="fill:#1a171b;"/><path d="M36.1,44.55l-4.6,1.55c-.38.13-.58.54-.46.92.1.3.39.5.69.5.08,0,.15-.01.23-.04l4.6-1.55c.38-.13.58-.54.46-.92-.13-.38-.54-.59-.92-.46Z" style="fill:#1a171b;"/><path d="M35.61,48.35l-3.37,1.13c-.38.13-.58.54-.46.92.1.3.39.5.69.5.08,0,.16-.01.23-.04l3.37-1.13c.38-.13.59-.54.46-.92-.13-.38-.54-.59-.92-.46Z" style="fill:#1a171b;"/><path d="M35.04,52.18l-2.11.71c-.38.13-.59.54-.46.92.1.3.39.5.69.5.08,0,.16-.01.23-.04l2.11-.71c.38-.13.59-.54.46-.92-.13-.38-.54-.59-.92-.46Z" style="fill:#1a171b;"/></svg>