<?xml version="1.0" encoding="UTF-8"?>
<svg id="Layer_2" data-name="Layer 2" xmlns="http://www.w3.org/2000/svg" viewBox="0 0 160.08 185.47">
  <g id="Layer_1-2" data-name="Layer 1">
    <g>
      <path d="M79.78,120.89c5.61,0,11.23,3.31,13.02,9.94.56,2.05,1.05,4.19,1.47,6.4,4.95,25.9,6.52,45.24,20.48,45.24s25.27-24.28,25.27-54.23c0-.41,0-.81.01-1.23.14-14.69,3.97-29.01,10.19-42.33,4.4-9.44,6.12-19.04,6.77-25.52.49-4.78-1.27-9.5-4.74-12.82l-5.22-5c-2.08-1.99-3.57-4.51-4.3-7.29l-1.13-4.3c-1.4-5.3-5.48-9.48-10.74-11.01l-.09-.03c-4.69-1.36-9.08-3.59-12.96-6.56l-4.45-3.41c-2.68-2.06-5.91-3.3-9.28-3.52-3.82-.25-8.25-.2-15.17,3.1l-9.14,4.18S62.21,3,45.13,3C21.86,3,3,26.94,3,56.46c0,10.37,2.32,20.04,6.35,28.23,6.48,13.19,10.05,27.64,10.19,42.33.01.42.01.82.01,1.23,0,29.95,11.31,54.23,25.27,54.23s15.53-19.33,20.48-45.24c.42-2.2.91-4.34,1.47-6.4,1.79-6.63,7.42-9.94,13.02-9.94Z" style="fill: none; stroke: #000; stroke-linecap: round; stroke-linejoin: round; stroke-width: 6px;"/>
      <path d="M79.78,12.51s-12.68,7.21-25.36,7.21" style="fill: none; stroke: #000; stroke-linecap: round; stroke-linejoin: round; stroke-width: 6px;"/>
      <path d="M98.98,20.73l1.66,4.44c2.09,5.57,7.16,9.47,13.07,10.05h0c5.82.58,10.83,4.36,12.98,9.8l1.87,4.74c1.14,2.9,3.13,5.39,5.7,7.15l8.88,6.08" style="fill: none; stroke: #000; stroke-linecap: round; stroke-linejoin: round; stroke-width: 6px;"/>
    </g>
  </g>
</svg>