<?xml version="1.0" encoding="UTF-8"?>
<svg id="Layer_2" data-name="Layer 2" xmlns="http://www.w3.org/2000/svg" viewBox="0 0 251.8 138.39">
  <g id="Layer_1-2" data-name="Layer 1">
    <g>
      <path d="M115.89,36.14c-2.37-18.79-15.21-33.14-30.68-33.14-6.12,0-11.82,2.24-16.62,6.11-2.61,2.11-5.77,3.15-8.94,3.15s-6.33-1.04-8.94-3.15c-4.81-3.87-10.51-6.11-16.62-6.11C16.91,3,3,20.66,3,42.43c0,7.65,1.71,14.78,4.68,20.82,4.78,9.73,7.41,20.39,7.51,31.22,0,.31,0,.61,0,.91,0,22.09,8.34,40,18.64,40s11.45-14.26,15.11-33.37c.31-1.63.67-3.2,1.08-4.72,1.32-4.89,5.47-7.33,9.61-7.33s8.29,2.44,9.61,7.33c.41,1.52.77,3.09,1.08,4.72,3.65,19.11,4.81,33.37,15.11,33.37s18.64-17.91,18.64-40c0-.3,0-.6,0-.91.1-10.84,2.73-21.49,7.51-31.22" style="fill: none; stroke: #000; stroke-linecap: round; stroke-linejoin: round; stroke-width: 6px;"/>
      <rect x="41.53" y="31.59" width="36.23" height="36.23" style="fill: none; stroke: #000; stroke-linecap: round; stroke-linejoin: round; stroke-width: 6px;"/>
      <line x1="26.21" y1="49.7" x2="41.53" y2="49.7" style="fill: none; stroke: #000; stroke-linecap: round; stroke-linejoin: round; stroke-width: 6px;"/>
      <line x1="77.75" y1="49.7" x2="174.05" y2="49.7" style="fill: none; stroke: #000; stroke-linecap: round; stroke-linejoin: round; stroke-width: 6px;"/>
      <path d="M135.92,36.14c2.37-18.79,15.21-33.14,30.68-33.14,6.12,0,11.82,2.24,16.62,6.11,2.61,2.11,5.77,3.15,8.94,3.15s6.33-1.04,8.94-3.15c4.81-3.87,10.51-6.11,16.62-6.11,17.16,0,31.07,17.66,31.07,39.43,0,7.65-1.71,14.78-4.68,20.82-4.78,9.73-7.41,20.39-7.51,31.22,0,.31,0,.61,0,.91,0,22.09-8.34,40-18.64,40s-11.45-14.26-15.11-33.37c-.31-1.63-.67-3.2-1.08-4.72-1.32-4.89-5.47-7.33-9.61-7.33s-8.29,2.44-9.61,7.33c-.41,1.52-.77,3.09-1.08,4.72-3.65,19.11-4.81,33.37-15.11,33.37s-18.64-17.91-18.64-40c0-.3,0-.6,0-.91-.1-10.84-2.73-21.49-7.51-31.22" style="fill: none; stroke: #000; stroke-linecap: round; stroke-linejoin: round; stroke-width: 6px;"/>
      <rect x="174.05" y="31.59" width="36.23" height="36.23" transform="translate(384.33 99.41) rotate(180)" style="fill: none; stroke: #000; stroke-linecap: round; stroke-linejoin: round; stroke-width: 6px;"/>
      <line x1="225.59" y1="49.7" x2="210.28" y2="49.7" style="fill: none; stroke: #000; stroke-linecap: round; stroke-linejoin: round; stroke-width: 6px;"/>
    </g>
  </g>
</svg>