<?xml version="1.0" encoding="UTF-8"?>
<svg id="Layer_2" data-name="Layer 2" xmlns="http://www.w3.org/2000/svg" viewBox="0 0 203.66 183.95">
  <g id="Layer_1-2" data-name="Layer 1">
    <g>
      <path d="M72.29,41.75c-5.06,1.92-8.15,3.86-8.15,3.86,0,0-13.99-7.58-27.6-7.58-18.52,0-33.55,19.06-33.55,42.57,0,8.26,1.85,15.96,5.05,22.48,5.16,10.51,8,22.01,8.11,33.71,0,.33,0,.66,0,.98,0,23.85,9.01,43.19,20.13,43.19s12.36-15.4,16.31-36.03c.33-1.76.72-3.46,1.17-5.1,1.42-5.28,5.91-7.92,10.37-7.92s8.95,2.64,10.37,7.92c.44,1.64.84,3.34,1.17,5.1,3.95,20.63,5.19,36.03,16.31,36.03s20.13-19.33,20.13-43.19c0-.32,0-.65,0-.98.11-11.7,2.95-23.2,8.11-33.71,3.2-6.52,5.05-14.22,5.05-22.48" style="fill: none; stroke: #000; stroke-linecap: round; stroke-linejoin: round; stroke-width: 6px;"/>
      <path d="M64.15,45.6s-10.1,5.74-20.19,5.74" style="fill: none; stroke: #000; stroke-linecap: round; stroke-linejoin: round; stroke-width: 6px;"/>
      <g>
        <path d="M198.64,108.28l-42.3-42.3c-3.49-3.49-5.45-8.22-5.45-13.15h0c0-4.93-1.96-9.66-5.45-13.15L110.79,5.02c-2.69-2.69-7.05-2.69-9.74,0h0c-2.69,2.69-2.69,7.05,0,9.74l31.7,31.7c3.49,3.49,5.45,8.22,5.45,13.15h0c0,4.93,1.96,9.66,5.45,13.15l45.27,45.27c2.69,2.69,7.05,2.69,9.74,0h0c2.69-2.69,2.69-7.05,0-9.74Z" style="fill: none; stroke: #000; stroke-linecap: round; stroke-linejoin: round; stroke-width: 6px;"/>
        <line x1="102.99" y1="16.69" x2="87.16" y2="32.52" style="fill: none; stroke: #000; stroke-linecap: round; stroke-linejoin: round; stroke-width: 6px;"/>
        <line x1="112.22" y1="25.92" x2="96.39" y2="41.75" style="fill: none; stroke: #000; stroke-linecap: round; stroke-linejoin: round; stroke-width: 6px;"/>
        <line x1="121.44" y1="35.15" x2="105.61" y2="50.98" style="fill: none; stroke: #000; stroke-linecap: round; stroke-linejoin: round; stroke-width: 6px;"/>
        <line x1="130.67" y1="44.37" x2="114.84" y2="60.2" style="fill: none; stroke: #000; stroke-linecap: round; stroke-linejoin: round; stroke-width: 6px;"/>
      </g>
    </g>
  </g>
</svg>