<?xml version="1.0" encoding="UTF-8"?>
<svg id="Layer_2" data-name="Layer 2" xmlns="http://www.w3.org/2000/svg" viewBox="0 0 165.5 190.92">
  <g id="Layer_1-2" data-name="Layer 1">
    <g>
      <path d="M15.9,185.7l77.48-77.48c3.83-3.83,9.02-5.98,14.43-5.98h0c5.41,0,10.6-2.15,14.43-5.98l38.05-38.05c2.95-2.95,2.95-7.74,0-10.69h0c-2.95-2.95-7.74-2.95-10.69,0l-34.79,34.79c-3.83,3.83-9.02,5.98-14.43,5.98h0c-5.41,0-10.6,2.15-14.43,5.98L5.21,175.01c-2.95,2.95-2.95,7.74,0,10.69h0c2.95,2.95,7.74,2.95,10.69,0Z" style="fill: none; stroke: #000; stroke-linecap: round; stroke-linejoin: round; stroke-width: 6px;"/>
      <line x1="147.47" y1="49.66" x2="137.88" y2="40.07" style="fill: none; stroke: #000; stroke-linecap: round; stroke-linejoin: round; stroke-width: 6px;"/>
      <line x1="137.34" y1="59.79" x2="127.37" y2="49.82" style="fill: none; stroke: #000; stroke-linecap: round; stroke-linejoin: round; stroke-width: 6px;"/>
      <line x1="127.22" y1="69.92" x2="115.31" y2="58" style="fill: none; stroke: #000; stroke-linecap: round; stroke-linejoin: round; stroke-width: 6px;"/>
      <line x1="117.09" y1="80.04" x2="104.58" y2="67.53" style="fill: none; stroke: #000; stroke-linecap: round; stroke-linejoin: round; stroke-width: 6px;"/>
      <path d="M90.36,70.98C49.33,29.95,121.53,35.78,117.16,3" style="fill: none; stroke: #000; stroke-linecap: round; stroke-linejoin: round; stroke-width: 6px;"/>
      <path d="M117.16,3c41.03,41.03-31.17,35.2-26.81,67.98" style="fill: none; stroke: #000; stroke-linecap: round; stroke-linejoin: round; stroke-width: 6px;"/>
    </g>
  </g>
</svg>