<?xml version="1.0" encoding="UTF-8"?>
<svg id="Layer_2" data-name="Layer 2" xmlns="http://www.w3.org/2000/svg" viewBox="0 0 185.52 190.24">
  <g id="Layer_1-2" data-name="Layer 1">
    <g>
      <g>
        <path d="M137.93,120.37l34.19-16.62c3.62-1.76,7.99-.19,9.66,3.48l.07.16c1.53,3.37.36,7.32-2.73,9.29l-63.28,40.34c-7.94,5.06-17.49,6.93-26.75,5.23l-7.46-1.37c-5.76-1.06-11.61-.73-17.11.86" style="fill: none; stroke: #000; stroke-linecap: round; stroke-linejoin: round; stroke-width: 6px;"/>
        <path d="M22.7,138.09l20.42-16.23c9.85-7.83,22.7-10.81,34.99-8.11l5.19,1.14c2.03.45,4.08.74,6.15.88l25.81,1.75c5.02.34,8.94,4.47,9.03,9.5h0c.09,5.55-4.47,10.05-10.02,9.86-11.33-.37-28.06-.89-28.06-.89" style="fill: none; stroke: #000; stroke-linecap: round; stroke-linejoin: round; stroke-width: 6px;"/>
      </g>
      <rect x="-1.3" y="149.6" width="60.84" height="22.06" rx="7.09" ry="7.09" transform="translate(-66.24 293.12) rotate(-133.98)" style="fill: none; stroke: #000; stroke-linecap: round; stroke-linejoin: round; stroke-width: 6px;"/>
      <path d="M148.12,97.4c.23-2.45.36-4.98.36-7.58,0-.28,0-.56,0-.85.1-10.18,2.57-20.2,7.06-29.34,2.79-5.67,4.4-12.38,4.4-19.57,0-20.46-13.08-37.06-29.2-37.06-13.55,0-24.03,6.59-24.03,6.59,0,0-12.18-6.59-24.03-6.59-16.13,0-29.2,16.59-29.2,37.06,0,7.19,1.61,13.89,4.4,19.57,4.49,9.15,6.97,19.16,7.06,29.34,0,.29,0,.57,0,.85,0,2.48.11,4.91.33,7.25" style="fill: none; stroke: #000; stroke-linecap: round; stroke-linejoin: round; stroke-width: 6px;"/>
      <path d="M95.88,100.27c.25-1.37.51-2.78.78-4.21.29-1.53.63-3.01,1.02-4.44,1.24-4.6,5.14-6.89,9.03-6.89s7.79,2.29,9.03,6.89c.39,1.42.73,2.91,1.02,4.44.45,2.34.85,4.6,1.25,6.77" style="fill: none; stroke: #000; stroke-linecap: round; stroke-linejoin: round; stroke-width: 6px;"/>
      <path d="M106.71,9.59s-12.9,10.19-21.69,10.19" style="fill: none; stroke: #000; stroke-linecap: round; stroke-linejoin: round; stroke-width: 6px;"/>
    </g>
  </g>
</svg>