<?xml version="1.0" encoding="UTF-8"?>
<svg id="Layer_2" data-name="Layer 2" xmlns="http://www.w3.org/2000/svg" viewBox="0 0 197.45 183.77">
  <g id="Layer_1-2" data-name="Layer 1">
    <g>
      <path d="M171.83,137.67l-30.57-12.68c-3.39-1.41-7.16-1.64-10.71-.65l-40.21,11.19c-9.76,2.72-20.24.11-27.58-6.87L8.09,76.72c-6.55-6.22-6.81-16.57-.59-23.12h0c6.22-6.55,16.57-6.81,23.12-.59l46.33,44.01c4.19,3.98,10.16,5.47,15.73,3.92l35.87-9.98c6.21-1.73,12.82-1.33,18.78,1.14l37.05,15.37c8.34,3.46,12.3,13.03,8.84,21.37h0c-3.46,8.34-13.03,12.3-21.37,8.84Z" style="fill: none; stroke: #000; stroke-linecap: round; stroke-linejoin: round; stroke-width: 6px;"/>
      <path d="M109.7,145.29l10.74,7.96c3.89,2.88,6.18,7.43,6.18,12.26h0c0,8.43-6.83,15.26-15.26,15.26h-53.82c-8.43,0-15.26-6.83-15.26-15.26v-.04c0-4.81,2.27-9.34,6.13-12.22l11.42-8.53" style="fill: none; stroke: #000; stroke-linecap: round; stroke-linejoin: round; stroke-width: 6px;"/>
      <path d="M158.2,80.83V17.5c0-8.01-6.49-14.5-14.5-14.5h-12.56" style="fill: none; stroke: #000; stroke-linecap: round; stroke-linejoin: round; stroke-width: 6px;"/>
      <path d="M93.27,8.95l22.09,22.09,1.38-1.38c6.1-6.1,6.1-15.99,0-22.09h0c-6.1-6.1-15.99-6.1-22.09,0l-1.38,1.38Z" style="fill: none; stroke: #000; stroke-linecap: round; stroke-linejoin: round; stroke-width: 6px;"/>
      <line x1="158.2" y1="57.37" x2="134.98" y2="57.37" style="fill: none; stroke: #000; stroke-linecap: round; stroke-linejoin: round; stroke-width: 6px;"/>
    </g>
  </g>
</svg>