<?xml version="1.0" encoding="UTF-8"?>
<svg id="Layer_2" data-name="Layer 2" xmlns="http://www.w3.org/2000/svg" viewBox="0 0 167.06 185.47">
  <g id="Layer_1-2" data-name="Layer 1">
    <g>
      <path d="M10.76,50.45c-.17,1.97-.26,3.97-.26,6,0,10.37,2.32,20.04,6.35,28.23,6.48,13.19,10.05,27.64,10.19,42.33.01.42.01.82.01,1.23,0,29.95,11.31,54.23,25.27,54.23s15.53-19.33,20.48-45.24c.42-2.2.91-4.34,1.47-6.4,1.79-6.63,7.42-9.94,13.02-9.94s11.23,3.31,13.02,9.94c.56,2.05,1.05,4.19,1.47,6.4,4.95,25.9,6.52,45.24,20.48,45.24s25.27-24.28,25.27-54.23c0-.41,0-.81.01-1.23.14-14.69,3.7-29.14,10.19-42.33,4.02-8.19,6.35-17.86,6.35-28.23,0-29.52-18.86-53.46-42.13-53.46-8.29,0-16.02,3.04-22.53,8.28-3.54,2.86-7.83,4.27-12.12,4.27s-8.58-1.41-12.12-4.27c-6.52-5.24-14.24-8.28-22.53-8.28-5.61,0-10.96,1.39-15.85,3.91" style="fill: none; stroke: #000; stroke-linecap: round; stroke-linejoin: round; stroke-width: 6px;"/>
      <path d="M43.36,26.39c-10.01,0-20.18,10.16-20.18,20.18,0-10.01-10.16-20.18-20.18-20.18,10.01,0,20.18-10.16,20.18-20.18,0,10.01,10.16,20.18,20.18,20.18Z" style="fill: none; stroke: #000; stroke-linecap: round; stroke-linejoin: round; stroke-width: 6px;"/>
      <path d="M144.57,47.11c-10.01,0-20.18,10.16-20.18,20.18,0-10.01-10.16-20.18-20.18-20.18,10.01,0,20.18-10.16,20.18-20.18,0,10.01,10.16,20.18,20.18,20.18Z" style="fill: none; stroke: #000; stroke-linecap: round; stroke-linejoin: round; stroke-width: 6px;"/>
      <path d="M107.22,78.71c-10.01,0-20.18,10.16-20.18,20.18,0-10.01-10.16-20.18-20.18-20.18,10.01,0,20.18-10.16,20.18-20.18,0,10.01,10.16,20.18,20.18,20.18Z" style="fill: none; stroke: #000; stroke-linecap: round; stroke-linejoin: round; stroke-width: 6px;"/>
    </g>
  </g>
</svg>