<?xml version="1.0" encoding="UTF-8"?>
<svg id="Layer_2" data-name="Layer 2" xmlns="http://www.w3.org/2000/svg" viewBox="0 0 116.3 190.91">
  <g id="Layer_1-2" data-name="Layer 1">
    <g>
      <path d="M58.15,143.69c4.03,0,8.07,2.38,9.35,7.14.4,1.48.75,3.01,1.05,4.6,3.56,18.61,4.68,32.49,14.71,32.49s18.15-17.44,18.15-38.95c0-.29,0-.58,0-.88.1-10.55,2.66-20.93,7.32-30.4,2.89-5.88,4.56-12.83,4.56-20.27,0-21.2-13.55-38.39-30.26-38.39-14.03,0-24.89,6.83-24.89,6.83,0,0-12.62-6.83-24.89-6.83-16.71,0-30.26,17.19-30.26,38.39,0,7.45,1.67,14.39,4.56,20.27,4.66,9.48,7.22,19.85,7.32,30.4,0,.3,0,.59,0,.88,0,21.51,8.12,38.95,18.15,38.95s11.15-13.89,14.71-32.49c.3-1.58.65-3.12,1.05-4.6,1.28-4.76,5.33-7.14,9.35-7.14Z" style="fill: none; stroke: #000; stroke-linecap: round; stroke-linejoin: round; stroke-width: 6px;"/>
      <path d="M58.15,65.85s-9.11,5.18-18.21,5.18" style="fill: none; stroke: #000; stroke-linecap: round; stroke-linejoin: round; stroke-width: 6px;"/>
      <path d="M87.98,41.81c-18.89-2.4-38.73-2.52-59.67,0l-7.36-30.59,22.07,7.79L58.15,3l15.17,16.01,22.03-7.79-7.36,30.59Z" style="fill: none; stroke: #000; stroke-linecap: round; stroke-linejoin: round; stroke-width: 6px;"/>
    </g>
  </g>
</svg>