<?xml version="1.0" encoding="UTF-8"?>
<svg id="Layer_2" data-name="Layer 2" xmlns="http://www.w3.org/2000/svg" viewBox="0 0 159.57 185.47">
  <g id="Layer_1-2" data-name="Layer 1">
    <g>
      <path d="M79.78,120.89c5.61,0,11.23,3.31,13.02,9.94.56,2.05,1.05,4.19,1.47,6.4,4.95,25.9,6.52,45.24,20.48,45.24s25.27-24.28,25.27-54.23c0-.41,0-.81.01-1.23.14-14.69,3.7-29.14,10.19-42.33,4.02-8.19,6.35-17.86,6.35-28.23,0-29.52-18.86-53.46-42.13-53.46-6.28,0-12.1.98-17.12,2.32-11.86,3.16-24.29,3.18-36.14,0-5-1.34-10.55-2.33-16.06-2.33C21.86,3,3,26.94,3,56.46c0,10.37,2.32,20.04,6.35,28.23,6.48,13.19,10.05,27.64,10.19,42.33.01.42.01.82.01,1.23,0,29.95,11.31,54.23,25.27,54.23s15.53-19.33,20.48-45.24c.42-2.2.91-4.34,1.47-6.4,1.79-6.63,7.42-9.94,13.02-9.94Z" style="fill: none; stroke: #000; stroke-linecap: round; stroke-linejoin: round; stroke-width: 6px;"/>
      <path d="M113.17,15.85c0,18.06-14.64,32.7-32.7,32.7s-32.7-14.64-32.7-32.7" style="fill: none; stroke: #000; stroke-linecap: round; stroke-linejoin: round; stroke-width: 6px;"/>
      <line x1="62.1" y1="17.49" x2="59.88" y2="19.71" style="fill: none; stroke: #000; stroke-linecap: round; stroke-linejoin: round; stroke-width: 6px;"/>
      <line x1="79.51" y1="20.37" x2="69.01" y2="30.88" style="fill: none; stroke: #000; stroke-linecap: round; stroke-linejoin: round; stroke-width: 6px;"/>
      <line x1="100.26" y1="19.91" x2="84.06" y2="36.11" style="fill: none; stroke: #000; stroke-linecap: round; stroke-linejoin: round; stroke-width: 6px;"/>
    </g>
  </g>
</svg>