<?xml version="1.0" encoding="UTF-8"?>
<svg id="Layer_2" data-name="Layer 2" xmlns="http://www.w3.org/2000/svg" viewBox="0 0 218.02 185.47">
  <g id="Layer_1-2" data-name="Layer 1">
    <g>
      <g>
        <circle cx="137.51" cy="71.65" r="47.85" style="fill: none; stroke: #000; stroke-linecap: round; stroke-linejoin: round; stroke-width: 6px;"/>
        <path d="M178.41,96.51l33.29,33.29c4.43,4.43,4.43,11.61,0,16.04h0c-4.43,4.43-11.61,4.43-16.04,0l-33.29-33.29" style="fill: none; stroke: #000; stroke-linecap: round; stroke-linejoin: round; stroke-width: 6px;"/>
      </g>
      <path d="M132.51,8.15c-5.47-3.3-11.6-5.15-18.06-5.15-19.54,0-34.66,9.51-34.66,9.51,0,0-17.57-9.51-34.66-9.51C21.86,3,3,26.94,3,56.46c0,10.37,2.32,20.04,6.35,28.23,6.48,13.19,10.05,27.64,10.19,42.33.01.42.01.82.01,1.23,0,29.95,11.31,54.23,25.27,54.23s15.53-19.33,20.48-45.24c.42-2.2.91-4.34,1.47-6.4,1.79-6.63,7.42-9.94,13.02-9.94s11.23,3.31,13.02,9.94c.56,2.05,1.05,4.19,1.47,6.4,4.95,25.9,6.52,45.24,20.48,45.24,12.45,0,22.79-19.29,24.88-44.7" style="fill: none; stroke: #000; stroke-linecap: round; stroke-linejoin: round; stroke-width: 6px;"/>
      <path d="M79.78,12.51s-12.68,7.21-25.36,7.21" style="fill: none; stroke: #000; stroke-linecap: round; stroke-linejoin: round; stroke-width: 6px;"/>
    </g>
  </g>
</svg>