<svg data-name="Layer 1" xmlns="http://www.w3.org/2000/svg" viewBox="0 0 245.27 60.73" aria-hidden='true'>
  <g class="logo-text">
    <path class="logo-letter" d="M105.33,9.88c2.77,0,4.18.72,5.11,1.51a5.7,5.7,0,0,1,2,4.51,5.47,5.47,0,0,1-2.35,4.71,5.4,5.4,0,0,1-2.19.88l6.25,8.44h-4.87l-5.35-8h-.48v8.05H99.53v-20Zm-1.89,9.23h1.11c.75,0,3.85-.09,3.85-3s-3.07-3-3.79-3h-1.17Z" transform="translate(-4.28 -3.64)"/>
    <path class="logo-letter" d="M127.69,18.33a7,7,0,0,1,0,10.19,8.47,8.47,0,0,1-10.52,0,7,7,0,0,1,0-10.19,8.47,8.47,0,0,1,10.52,0Zm-1.59,5.11a3.67,3.67,0,1,0-3.67,3.67A3.64,3.64,0,0,0,126.1,23.44Z" transform="translate(-4.28 -3.64)"/>
    <path class="logo-letter" d="M144.61,18.33a7,7,0,0,1,0,10.19,8.47,8.47,0,0,1-10.52,0,7,7,0,0,1,0-10.19,8.47,8.47,0,0,1,10.52,0ZM143,23.44a3.67,3.67,0,1,0-3.67,3.67A3.64,3.64,0,0,0,143,23.44Z" transform="translate(-4.28 -3.64)"/>
    <path class="logo-letter" d="M156.27,20a3,3,0,0,0-2.13-.87c-.87,0-1.41.42-1.41,1.05,0,.33.15.85,1.17,1.18l.87.27a6.68,6.68,0,0,1,3.31,1.86,3.77,3.77,0,0,1,.66,2.16A4.32,4.32,0,0,1,157.3,29a5.5,5.5,0,0,1-3.91,1.38,6.57,6.57,0,0,1-5-2.16L150.26,26a4,4,0,0,0,2.89,1.5c1,0,1.8-.51,1.8-1.41a1.45,1.45,0,0,0-1.14-1.33l-.84-.3a7,7,0,0,1-2.8-1.56,3.49,3.49,0,0,1-1-2.5,3.86,3.86,0,0,1,1.35-2.94,5.39,5.39,0,0,1,3.4-.93,6.52,6.52,0,0,1,4.15,1.38Z" transform="translate(-4.28 -3.64)"/>
    <path class="logo-letter" d="M165,20v9.89h-3.66V20h-1.45V16.92h1.45V12.47H165v4.45h2.53V20Z" transform="translate(-4.28 -3.64)"/>
    <path class="logo-letter" d="M182.24,26.3a6.45,6.45,0,0,1-6.41,4.05,6.84,6.84,0,0,1-5-1.83,6.57,6.57,0,0,1-2-5.08,6.93,6.93,0,0,1,2-5.11,6.69,6.69,0,0,1,4.9-1.83,6.22,6.22,0,0,1,5.08,2.13,7.75,7.75,0,0,1,1.57,5.11V24h-9.74a3.89,3.89,0,0,0,.63,2.2,3.09,3.09,0,0,0,2.61,1.23,3.34,3.34,0,0,0,3-1.72Zm-3.37-4.6a3.12,3.12,0,0,0-6.16,0Z" transform="translate(-4.28 -3.64)"/>
    <path class="logo-letter" d="M185.1,16.92h3.66v1.95a4.38,4.38,0,0,1,1.63-1.8,4,4,0,0,1,2.16-.57,4.5,4.5,0,0,1,1.56.3l-.48,3.42a2.75,2.75,0,0,0-1.71-.48,3,3,0,0,0-2.44,1.05,4.51,4.51,0,0,0-.72,2.89v6.25H185.1Z" transform="translate(-4.28 -3.64)"/>
    <path class="logo-letter" d="M206.83,19.2H216v.24c0,1.35-.18,5.56-2.94,8.3a11,11,0,0,1-14.4-.06,10.77,10.77,0,0,1-3-7.73,10.25,10.25,0,0,1,3-7.45,10.7,10.7,0,0,1,7.9-3.07,9.7,9.7,0,0,1,4.63,1.05,9.47,9.47,0,0,1,3.76,3.67L211.54,16a5.43,5.43,0,0,0-2.34-2.38,6.56,6.56,0,0,0-2.82-.63,6.77,6.77,0,0,0-4.63,1.77,7.46,7.46,0,0,0-2,5.29,6.77,6.77,0,0,0,2,5.08,6.12,6.12,0,0,0,4.44,1.72,6.62,6.62,0,0,0,3.94-1.21,5.35,5.35,0,0,0,1.9-3.06h-5.17Z" transform="translate(-4.28 -3.64)"/>
    <path class="logo-letter" d="M219.08,16.92h3.67v1.95a4.38,4.38,0,0,1,1.62-1.8,4,4,0,0,1,2.17-.57,4.5,4.5,0,0,1,1.56.3l-.48,3.42a2.76,2.76,0,0,0-1.72-.48,3,3,0,0,0-2.43,1.05,4.51,4.51,0,0,0-.72,2.89v6.25h-3.67Z" transform="translate(-4.28 -3.64)"/>
    <path class="logo-letter" d="M231.75,9.22a2.2,2.2,0,1,1-2.2,2.2A2.2,2.2,0,0,1,231.75,9.22Zm1.83,7.7v13h-3.67v-13Z" transform="translate(-4.28 -3.64)"/>
    <path class="logo-letter" d="M237,16.92h3.66V18.6a4.79,4.79,0,0,1,4-2.1,5,5,0,0,1,3.85,1.59,5.48,5.48,0,0,1,1,3.67v8.17h-3.67V22.84a3.76,3.76,0,0,0-.69-2.56,2.34,2.34,0,0,0-1.71-.66,2.52,2.52,0,0,0-2.26,1.14,4.52,4.52,0,0,0-.57,2.53v6.64H237Z" transform="translate(-4.28 -3.64)"/>
    <path class="logo-letter" d="M118.11,47.15c0,5.6-4,9.6-9.82,9.6s-9.83-4-9.83-9.6,4-9.64,9.83-9.64S118.11,41.54,118.11,47.15Zm-3.7,0a6.13,6.13,0,1,0-12.25,0,6.13,6.13,0,1,0,12.25,0Z" transform="translate(-4.28 -3.64)"/>
    <path class="logo-letter" d="M121,44.38h3.36v1.8a4.1,4.1,0,0,1,1.5-1.66,3.64,3.64,0,0,1,2-.52,4.4,4.4,0,0,1,1.44.27l-.44,3.15A2.59,2.59,0,0,0,127.3,47a2.74,2.74,0,0,0-2.23,1,4.08,4.08,0,0,0-.67,2.65v5.74H121Z" transform="translate(-4.28 -3.64)"/>
    <path class="logo-letter" d="M135.05,47.26v9.08h-3.37V47.26h-1.32V44.38h1.32V40.3h3.37v4.08h2.32v2.88Z" transform="translate(-4.28 -3.64)"/>
    <path class="logo-letter" d="M139.1,36.21h3.37v9.72A4.37,4.37,0,0,1,146.16,44a4.58,4.58,0,0,1,3.54,1.46,5,5,0,0,1,.94,3.37v7.51h-3.37V49.82a3.4,3.4,0,0,0-.64-2.34,2.12,2.12,0,0,0-1.57-.61A2.29,2.29,0,0,0,143,47.92a4.08,4.08,0,0,0-.52,2.32v6.1H139.1Z" transform="translate(-4.28 -3.64)"/>
    <path class="logo-letter" d="M164.79,45.68a6.43,6.43,0,0,1,0,9.36,7.78,7.78,0,0,1-9.66,0,6.45,6.45,0,0,1,0-9.36,7.78,7.78,0,0,1,9.66,0Zm-1.46,4.7A3.37,3.37,0,1,0,160,53.74,3.33,3.33,0,0,0,163.33,50.38Z" transform="translate(-4.28 -3.64)"/>
    <path class="logo-letter" d="M178.51,36.21h3.36V56.34h-3.36V54.79a4.29,4.29,0,0,1-3.68,1.93,6.06,6.06,0,0,1-6.1-6.37c0-3.54,2.41-6.35,5.94-6.35a4.33,4.33,0,0,1,3.84,1.93Zm-6.3,14.14A3.32,3.32,0,1,0,175.52,47,3.27,3.27,0,0,0,172.21,50.35Z" transform="translate(-4.28 -3.64)"/>
    <path class="logo-letter" d="M196.08,45.68a6.45,6.45,0,0,1,0,9.36,7.8,7.8,0,0,1-9.67,0,6.45,6.45,0,0,1,0-9.36,7.8,7.8,0,0,1,9.67,0Zm-1.47,4.7a3.37,3.37,0,1,0-3.37,3.36A3.33,3.33,0,0,0,194.61,50.38Z" transform="translate(-4.28 -3.64)"/>
    <path class="logo-letter" d="M200.62,44.38H204v1.55a4.41,4.41,0,0,1,3.7-1.93,4.58,4.58,0,0,1,3.54,1.46,5.08,5.08,0,0,1,.93,3.37v7.51h-3.36V49.82a3.4,3.4,0,0,0-.64-2.34,2.12,2.12,0,0,0-1.57-.61,2.29,2.29,0,0,0-2.07,1.05,4.09,4.09,0,0,0-.53,2.32v6.1h-3.36Z" transform="translate(-4.28 -3.64)"/>
    <path class="logo-letter" d="M218.77,47.26v9.08h-3.36V47.26h-1.33V44.38h1.33V40.3h3.36v4.08h2.32v2.88Z" transform="translate(-4.28 -3.64)"/>
    <path class="logo-letter" d="M224.5,37.32a2,2,0,1,1-2,2A2,2,0,0,1,224.5,37.32Zm1.69,7.06v12h-3.37v-12Z" transform="translate(-4.28 -3.64)"/>
    <path class="logo-letter" d="M238.21,48A3.9,3.9,0,0,0,235.45,47a3.21,3.21,0,0,0-3.37,3.37,3.32,3.32,0,0,0,3.48,3.39,3.88,3.88,0,0,0,2.65-1.05V56a6.83,6.83,0,0,1-3.09.74A6.69,6.69,0,0,1,230.51,55a6.12,6.12,0,0,1-1.91-4.58A6.15,6.15,0,0,1,235,44a7.14,7.14,0,0,1,3.23.72Z" transform="translate(-4.28 -3.64)"/>
    <path class="logo-letter" d="M247.24,47.23a2.77,2.77,0,0,0-2-.8c-.8,0-1.3.38-1.3,1,0,.31.14.78,1.08,1.08l.8.25a6.09,6.09,0,0,1,3,1.71,3.53,3.53,0,0,1,.6,2,4,4,0,0,1-1.32,3,5,5,0,0,1-3.59,1.27,6.06,6.06,0,0,1-4.64-2l1.77-2.05a3.68,3.68,0,0,0,2.65,1.38c.94,0,1.65-.47,1.65-1.29a1.33,1.33,0,0,0-1-1.22l-.78-.27a6.44,6.44,0,0,1-2.56-1.44,3.17,3.17,0,0,1-.92-2.29A3.57,3.57,0,0,1,242,44.85a5,5,0,0,1,3.12-.85,6,6,0,0,1,3.81,1.27Z" transform="translate(-4.28 -3.64)"/>
  </g>
  <path class="logo-tooth" d="M59.28,3.64A25.84,25.84,0,0,0,53,4.51c-2.61.84-6.1,2.61-11.56,3.3,3.74,1.47,6.12,1.91,14.28,1.35A22.71,22.71,0,0,1,43,9.16c-5.34-1.69-7.83-5.88-14.37-5.43C24,4.18,17.22,8.5,17.22,17.48c0,10,6.39,19.34,6.85,27.91.35,6.44,2.88,19.72,7.19,18.94,3.91-.61,8-15.67,14-15.67s10.09,15.07,14,15.67c5.65,1,7-19.22,7-19.22,0-7,7.06-15.18,7.06-27C73.37,6.06,64.75,3.55,59.28,3.64Z" transform="translate(-4.28 -3.64)"/>
  <path class="logo-swoop" d="M14.82,44.12c25.8,0,78.56-21.17,78.56-31.34,0-6-16.78-.56-20,.49,0,0,10.73-2.11,10.51.62,0,5.55-45.41,27.81-71.39,27.81-2.81,0-5.77-.42-5.77-1.47,0-3.69,12.3-8.58,12.3-8.58C16.78,32.42,4.28,37.59,4.28,41,4.28,43.62,9.13,44.12,14.82,44.12Z" transform="translate(-4.28 -3.64)"/>
</svg>
