<?xml version="1.0" encoding="UTF-8"?>
<svg id="Layer_2" data-name="Layer 2" xmlns="http://www.w3.org/2000/svg" viewBox="0 0 154 189.35">
  <g id="Layer_1-2" data-name="Layer 1">
    <g>
      <path d="M137.81,70.69c.89-.09,1.78-.19,2.67-.3,6.32-.77,10.91-6.39,10.49-12.74l-2.15-32.5c-.82-12.46-11.17-22.15-23.67-22.15h0c-12.49,0-22.84,9.69-23.67,22.15-.82-12.46-11.17-22.15-23.67-22.15h0c-12.49,0-22.84,9.69-23.67,22.15l-.83,9.38-.83-9.38c-.82-12.46-11.17-22.15-23.67-22.15h0C16.35,3,6,12.69,5.17,25.15l-2.15,32.5c-.42,6.35,4.17,11.97,10.49,12.74,10.45,1.27,20.2,1.27,30.64,0,4.07-.49,7.42-3.01,9.17-6.43,1.76,3.42,5.1,5.94,9.17,6.43.45.05.89.11,1.34.16" style="fill: none; stroke: #000; stroke-linecap: round; stroke-linejoin: round; stroke-width: 6px;"/>
      <path d="M116.31,104.55c-10.45,1.27-20.2,1.27-30.64,0-6.32-.77-10.91-6.39-10.49-12.74l2.15-32.5c.82-12.46,11.17-22.15,23.67-22.15h0c12.49,0,22.84,9.69,23.67,22.15l2.15,32.5c.42,6.35-4.17,11.97-10.49,12.74Z" style="fill: none; stroke: #000; stroke-linecap: round; stroke-linejoin: round; stroke-width: 6px;"/>
      <polyline points="112.27 92.07 112.27 105.02 86.82 130.47" style="fill: none; stroke: #000; stroke-linecap: round; stroke-linejoin: round; stroke-width: 6px;"/>
      <line x1="82.11" y1="115.63" x2="77.06" y2="120.68" style="fill: none; stroke: #000; stroke-linecap: round; stroke-linejoin: round; stroke-width: 6px;"/>
      <path d="M24.57,166.4l42.44-42.44c4.56-4.56,11.96-4.56,16.52,0h0c4.56,4.56,4.56,11.96,0,16.52l-42.44,42.44c-4.56,4.56-11.96,4.56-16.52,0h0c-4.56-4.56-4.56-11.96,0-16.52Z" style="fill: none; stroke: #000; stroke-linecap: round; stroke-linejoin: round; stroke-width: 6px;"/>
    </g>
  </g>
</svg>