<?xml version="1.0" encoding="UTF-8"?>
<svg id="Layer_2" data-name="Layer 2" xmlns="http://www.w3.org/2000/svg" viewBox="0 0 157.4 192.27">
  <g id="Layer_1-2" data-name="Layer 1">
    <g>
      <path d="M78.7,135.37c3.12,0,6.25,1.84,7.24,5.53.31,1.14.58,2.33.82,3.56,2.76,14.41,3.62,25.16,11.39,25.16s14.06-13.5,14.06-30.16c0-.23,0-.45,0-.68.08-8.17,2.06-16.2,5.67-23.54,2.24-4.55,3.53-9.93,3.53-15.7,0-16.42-10.49-29.73-23.43-29.73-4.98,0-9.45,1.11-12.82,2.32-4.4,1.57-9.19,1.45-13.61-.05-3.48-1.18-7.83-2.26-12.12-2.26-12.94,0-23.43,13.31-23.43,29.73,0,5.77,1.29,11.15,3.53,15.7,3.61,7.34,5.59,15.37,5.67,23.54,0,.23,0,.46,0,.68,0,16.66,6.29,30.16,14.06,30.16s8.63-10.75,11.39-25.16c.23-1.23.51-2.42.82-3.56.99-3.69,4.12-5.53,7.24-5.53Z" style="fill: none; stroke: #000; stroke-linecap: round; stroke-linejoin: round; stroke-width: 6px;"/>
      <path d="M154.4,115.07h-9.41c-10.33,0-16.44,8.13-15.48,27.07,1.78,35-16.05,47.13-28.89,47.13s-14.21-9.51-21.93-9.51-8.54,9.51-21.93,9.51-30.66-12.13-28.89-47.13c.96-18.94-5.15-27.07-15.48-27.07H3" style="fill: none; stroke: #000; stroke-linecap: round; stroke-linejoin: round; stroke-width: 6px;"/>
      <polyline points="64.82 55.21 64.82 40.39 48.22 40.39 78.7 3 109.18 40.39 92.58 40.39 92.58 55.21" style="fill: none; stroke: #000; stroke-linecap: round; stroke-linejoin: round; stroke-width: 6px;"/>
    </g>
  </g>
</svg>