<svg data-name="Layer 1" xmlns="http://www.w3.org/2000/svg" viewBox="0 0 64 64" aria-hidden='true'>
  <path d="M25.19,64v-29.14H15.74q-.4,0-.4-.4v-10.56c0-.32,0-.4,.4-.4h9.45V14.31c0-2.35,.53-4.66,1.54-6.78,1.3-2.89,3.66-5.16,6.59-6.34C35.29,.37,37.41-.04,39.55,0c2.45,0,4.93,.15,7.38,.24,.46-.02,.92,.02,1.37,.12,.44,.13,.36,0,.34,.36V10.27c0,.32,0,.4-.38,.4h-5.71c-.86,.03-1.71,.14-2.55,.33-.73,.12-1.4,.47-1.92,1-.54,.54-.89,1.24-1,2-.13,.64-.2,1.29-.22,1.94v7.44h10.83c.44,0,.46,0,.4,.42-.23,1.89-.49,3.77-.76,5.64-.21,1.55-.4,3.15-.59,4.74q0,.59-.66,.59h-9.08v29.12l-11.81,.11Z"/>
</svg>
