<?xml version="1.0" encoding="UTF-8"?>
<svg id="Layer_2" data-name="Layer 2" xmlns="http://www.w3.org/2000/svg" viewBox="0 0 130.66 190.03">
  <g id="Layer_1-2" data-name="Layer 1">
    <g>
      <path d="M88.58,15.38l11.51,11.51c10.68,10.68,11.33,28.07.95,39.03-10.77,11.38-28.72,11.56-39.73.56l-11.92-11.92c-2.83-2.83-7.42-2.83-10.25,0h0c-2.83,2.83-2.83,7.42,0,10.25l11.47,11.48c.06.06.12.12.19.18,10.63,10.5,11.99,27.18,2.84,39L3.96,179.65c-1.41,1.82-1.25,4.41.38,6.04h0c1.79,1.79,4.69,1.79,6.48,0l104.44-104.44c21.41-21.41,12.3-47.39-6.2-65.89l-10.24-10.24c-2.83-2.83-7.42-2.83-10.25,0h0c-2.83,2.83-2.83,7.42,0,10.25Z" style="fill: none; stroke: #000; stroke-linecap: round; stroke-linejoin: round; stroke-width: 6px;"/>
      <line x1="49.39" y1="54.56" x2="88.58" y2="15.38" style="fill: none; stroke: #000; stroke-linecap: round; stroke-linejoin: round; stroke-width: 6px;"/>
    </g>
  </g>
</svg>