<?xml version="1.0" encoding="UTF-8"?>
<svg id="Layer_2" data-name="Layer 2" xmlns="http://www.w3.org/2000/svg" viewBox="0 0 164.5 183.94">
  <g id="Layer_1-2" data-name="Layer 1">
    <g>
      <path d="M86.64,172.75H19.5c-9.11,0-16.5-7.39-16.5-16.5V22.59c0-7.76,6.29-14.05,14.05-14.05h11.57" style="fill: none; stroke: #000; stroke-linecap: round; stroke-linejoin: round; stroke-width: 6px;"/>
      <path d="M94.42,8.54h11.56c7.76,0,14.05,6.29,14.05,14.05v64.82" style="fill: none; stroke: #000; stroke-linecap: round; stroke-linejoin: round; stroke-width: 6px;"/>
      <line x1="30.31" y1="76.78" x2="92.72" y2="76.78" style="fill: none; stroke: #000; stroke-linecap: round; stroke-linejoin: round; stroke-width: 6px;"/>
      <line x1="30.31" y1="47.17" x2="92.72" y2="47.17" style="fill: none; stroke: #000; stroke-linecap: round; stroke-linejoin: round; stroke-width: 6px;"/>
      <line x1="30.31" y1="106.39" x2="70.05" y2="106.39" style="fill: none; stroke: #000; stroke-linecap: round; stroke-linejoin: round; stroke-width: 6px;"/>
      <line x1="30.31" y1="135.99" x2="71.05" y2="135.99" style="fill: none; stroke: #000; stroke-linecap: round; stroke-linejoin: round; stroke-width: 6px;"/>
      <path d="M86.63,18.57h-50.23c-4.3,0-7.79-3.49-7.79-7.79h0c0-4.3,3.49-7.79,7.79-7.79h50.23c4.3,0,7.79,3.49,7.79,7.79h0c0,4.3-3.49,7.79-7.79,7.79Z" style="fill: none; stroke: #000; stroke-linecap: round; stroke-linejoin: round; stroke-width: 6px;"/>
      <path d="M127.46,153.63c2.49,0,4.98,1.47,5.77,4.41.25.91.46,1.86.65,2.84,2.2,11.48,2.89,20.06,9.08,20.06s11.2-10.76,11.2-24.04c0-.18,0-.36,0-.55.06-6.51,1.64-12.92,4.52-18.77,1.78-3.63,2.81-7.92,2.81-12.51,0-13.09-8.36-23.7-18.68-23.7-3.97,0-7.53.89-10.22,1.85-3.5,1.25-7.33,1.16-10.85-.04-2.77-.94-6.24-1.81-9.66-1.81-10.31,0-18.68,10.61-18.68,23.7,0,4.6,1.03,8.89,2.81,12.51,2.87,5.85,4.45,12.25,4.52,18.77,0,.19,0,.37,0,.55,0,13.28,5.01,24.04,11.2,24.04s6.88-8.57,9.08-20.06c.18-.98.4-1.93.65-2.84.79-2.94,3.29-4.41,5.77-4.41Z" style="fill: none; stroke: #000; stroke-linecap: round; stroke-linejoin: round; stroke-width: 6px;"/>
    </g>
  </g>
</svg>