<?xml version="1.0" encoding="UTF-8"?>
<svg id="Layer_2" data-name="Layer 2" xmlns="http://www.w3.org/2000/svg" viewBox="0 0 178.94 186.88">
  <g id="Layer_1-2" data-name="Layer 1">
    <g>
      <path d="M89.47,127.6c5.12,0,10.27,3.02,11.9,9.09.51,1.88.96,3.83,1.34,5.85,4.53,23.67,5.96,41.35,18.72,41.35s23.1-22.19,23.1-49.56c0-.37,0-.74,0-1.12.13-13.43,3.38-26.63,9.31-38.69,3.68-7.48,5.8-16.32,5.8-25.8,0-26.98-17.24-48.86-38.5-48.86-17.86,0-31.67,8.69-31.67,8.69,0,0-16.06-8.69-31.67-8.69-21.26,0-38.5,21.88-38.5,48.86,0,9.48,2.12,18.32,5.8,25.8,5.93,12.06,9.18,25.26,9.31,38.69,0,.38,0,.75,0,1.12,0,27.37,10.34,49.56,23.1,49.56s14.19-17.67,18.72-41.35c.38-2.01.83-3.97,1.34-5.85,1.63-6.06,6.78-9.09,11.9-9.09Z" style="fill: none; stroke: #000; stroke-linecap: round; stroke-linejoin: round; stroke-width: 6px;"/>
      <path d="M89.47,28.55s-11.59,6.59-23.17,6.59" style="fill: none; stroke: #000; stroke-linecap: round; stroke-linejoin: round; stroke-width: 6px;"/>
      <g>
        <path d="M76.2,65.64c0,4.6-1.26,8.33-2.81,8.33s-2.81-3.73-2.81-8.33,1.26-8.33,2.81-8.33,2.81,3.73,2.81,8.33Z" style="fill: none; stroke: #000; stroke-linecap: round; stroke-linejoin: round; stroke-width: 6px;"/>
        <path d="M108.36,65.64c0,4.6-1.26,8.33-2.81,8.33s-2.81-3.73-2.81-8.33,1.26-8.33,2.81-8.33,2.81,3.73,2.81,8.33Z" style="fill: none; stroke: #000; stroke-linecap: round; stroke-linejoin: round; stroke-width: 6px;"/>
        <path d="M113.09,94.04c-13.58,13.58-34.73,14.43-47.25,1.91" style="fill: none; stroke: #000; stroke-linecap: round; stroke-linejoin: round; stroke-width: 6px;"/>
      </g>
      <line x1="151.7" y1="3" x2="146.03" y2="11.19" style="fill: none; stroke: #000; stroke-linecap: round; stroke-linejoin: round; stroke-width: 6px;"/>
      <line x1="175.94" y1="27.26" x2="167.74" y2="32.91" style="fill: none; stroke: #000; stroke-linecap: round; stroke-linejoin: round; stroke-width: 6px;"/>
      <line x1="27.24" y1="3" x2="32.9" y2="11.19" style="fill: none; stroke: #000; stroke-linecap: round; stroke-linejoin: round; stroke-width: 6px;"/>
      <line x1="3" y1="27.26" x2="11.2" y2="32.91" style="fill: none; stroke: #000; stroke-linecap: round; stroke-linejoin: round; stroke-width: 6px;"/>
    </g>
  </g>
</svg>