<?xml version="1.0" encoding="UTF-8"?>
<svg id="Layer_2" data-name="Layer 2" xmlns="http://www.w3.org/2000/svg" viewBox="0 0 148.2 188.35">
  <g id="Layer_1-2" data-name="Layer 1">
    <g>
      <path d="M145.2,52.5c0,16.97-4.48,29.35-8.06,36.53-2.21,4.44-6.74,7.25-11.7,7.25H22.76c-4.96,0-9.48-2.81-11.7-7.25-3.58-7.18-8.06-19.57-8.06-36.53C3,25.17,20.47,3,42.01,3c15.82,0,32.09,8.81,32.09,8.81,0,0,14-8.81,32.09-8.81,21.54,0,39.01,22.17,39.01,49.5Z" style="fill: none; stroke: #000; stroke-linecap: round; stroke-linejoin: round; stroke-width: 6px;"/>
      <path d="M74.11,11.81s-11.74,6.68-23.48,6.68" style="fill: none; stroke: #000; stroke-linecap: round; stroke-linejoin: round; stroke-width: 6px;"/>
      <path d="M121.44,108.41c-.93,4.77-5.11,8.21-9.97,8.21H36.73c-4.86,0-9.04-3.44-9.97-8.21" style="fill: none; stroke: #000; stroke-linecap: round; stroke-linejoin: round; stroke-width: 6px;"/>
      <line x1="52.18" y1="132.72" x2="51.76" y2="116.63" style="fill: none; stroke: #000; stroke-linecap: round; stroke-linejoin: round; stroke-width: 6px;"/>
      <line x1="52.76" y1="155.17" x2="52.7" y2="152.88" style="fill: none; stroke: #000; stroke-linecap: round; stroke-linejoin: round; stroke-width: 6px;"/>
      <path d="M94.61,173.94c-1.62,6.56-7.55,11.41-14.58,11.41h-11.85c-5.61,0-10.52-3.08-13.1-7.67" style="fill: none; stroke: #000; stroke-linecap: round; stroke-linejoin: round; stroke-width: 6px;"/>
      <line x1="95.6" y1="149.19" x2="95.53" y2="151.91" style="fill: none; stroke: #000; stroke-linecap: round; stroke-linejoin: round; stroke-width: 6px;"/>
      <line x1="96.44" y1="116.63" x2="96.16" y2="127.59" style="fill: none; stroke: #000; stroke-linecap: round; stroke-linejoin: round; stroke-width: 6px;"/>
      <line x1="100.46" y1="138.57" x2="47.74" y2="142.96" style="fill: none; stroke: #000; stroke-linecap: round; stroke-linejoin: round; stroke-width: 6px;"/>
      <line x1="98.93" y1="161.96" x2="49.28" y2="166.09" style="fill: none; stroke: #000; stroke-linecap: round; stroke-linejoin: round; stroke-width: 6px;"/>
    </g>
  </g>
</svg>