<svg data-name="Layer 1" xmlns="http://www.w3.org/2000/svg" viewBox="0 0 64 64" aria-hidden='true'>
  <path d="M32,5.76c8.55,0,9.55,0,12.94,.21,2.03,.03,4.04,.4,5.94,1.1,1.39,.52,2.65,1.34,3.68,2.4,1.03,1.04,1.81,2.3,2.29,3.68,.72,1.9,1.1,3.91,1.12,5.94,.14,3.36,.18,4.39,.18,12.91s0,9.55-.18,12.94c-.03,2.03-.41,4.04-1.12,5.94-1.06,2.79-3.27,5-6.06,6.08-1.9,.7-3.91,1.07-5.94,1.1-3.38,.16-4.39,.18-12.94,.18s-9.55,0-12.94-.18c-2.03-.03-4.04-.4-5.94-1.1-1.38-.53-2.63-1.35-3.68-2.4-1.03-1.04-1.81-2.3-2.29-3.68-.71-1.9-1.09-3.91-1.12-5.94-.14-3.38-.18-4.39-.18-12.94s0-9.55,.18-12.94c.03-2.03,.41-4.04,1.12-5.94,1.06-2.79,3.26-5,6.06-6.06,1.9-.71,3.91-1.09,5.94-1.12,3.38-.14,4.39-.18,12.94-.18ZM32,0C23.31,0,22.22,0,18.81,.18c-2.66,.06-5.29,.57-7.77,1.51-2.13,.8-4.07,2.06-5.67,3.68-1.62,1.61-2.88,3.54-3.7,5.67C.75,13.53,.24,16.16,.18,18.81c-.18,3.41-.18,4.5-.18,13.19s0,9.78,.18,13.19c.06,2.66,.56,5.28,1.49,7.77,.82,2.13,2.08,4.06,3.7,5.67,1.6,1.62,3.54,2.88,5.67,3.68,2.49,.94,5.11,1.45,7.77,1.51,3.41,.14,4.57,.18,13.19,.18s9.78,0,13.19-.18c2.66-.05,5.29-.56,7.77-1.51,2.13-.81,4.06-2.06,5.67-3.68,1.61-1.61,2.86-3.54,3.68-5.67,.94-2.48,1.45-5.11,1.49-7.77,.21-3.41,.21-4.5,.21-13.19s0-9.78-.21-13.19c-.04-2.66-.54-5.29-1.49-7.77-1.65-4.3-5.05-7.7-9.35-9.35-2.48-.94-5.11-1.45-7.77-1.49C41.78,0,40.69,0,32,0Z"/>
  <path d="M32,15.57c-9.08-.01-16.44,7.34-16.45,16.42-.01,9.08,7.34,16.44,16.42,16.45,9.08,.01,16.44-7.34,16.45-16.42,0-6.65-3.99-12.65-10.13-15.2-1.99-.83-4.13-1.26-6.29-1.26Zm0,27.11c-5.91-.02-10.68-4.82-10.67-10.73,0-.68,.07-1.36,.2-2.03,.85-4.23,4.16-7.54,8.39-8.39,2.07-.4,4.22-.19,6.17,.62,1.95,.8,3.61,2.17,4.78,3.93,3.27,4.91,1.94,11.53-2.96,14.8-1.75,1.17-3.8,1.79-5.91,1.79Z"/>
  <path d="M49.07,18.77c2.12,0,3.84-1.72,3.84-3.84s-1.72-3.84-3.84-3.84-3.84,1.72-3.84,3.84,1.72,3.84,3.84,3.84h0Z"/>
</svg>
