<?xml version="1.0" encoding="UTF-8"?>
<svg id="Layer_2" data-name="Layer 2" xmlns="http://www.w3.org/2000/svg" viewBox="0 0 180.68 190.75">
  <g id="Layer_1-2" data-name="Layer 1">
    <g>
      <path d="M136.46,156.33c2.86,0,5.73,1.69,6.64,5.07.28,1.05.53,2.14.75,3.26,2.53,13.22,3.32,23.08,10.45,23.08s12.89-12.39,12.89-27.67c0-.21,0-.41,0-.63.07-7.5,1.89-14.86,5.2-21.6,2.05-4.18,3.24-9.11,3.24-14.4,0-15.06-9.62-27.27-21.49-27.27-4.57,0-8.66,1.02-11.76,2.12-4.03,1.44-8.43,1.33-12.49-.05-3.19-1.09-7.18-2.08-11.12-2.08-11.87,0-21.49,12.21-21.49,27.27,0,5.29,1.18,10.22,3.24,14.4,3.31,6.73,5.13,14.1,5.2,21.6,0,.21,0,.42,0,.63,0,15.28,5.77,27.67,12.89,27.67s7.92-9.86,10.45-23.08c.21-1.12.46-2.22.75-3.26.91-3.38,3.78-5.07,6.64-5.07Z" style="fill: none; stroke: #000; stroke-linecap: round; stroke-linejoin: round; stroke-width: 6px;"/>
      <g>
        <path d="M91.66,166.66l-2.57,2.57c-11.27,11.27-29.55,11.27-40.83,0l-36.8-36.8C.18,121.15.18,102.87,11.46,91.59L91.59,11.46C102.87.18,121.15.18,132.42,11.46l36.8,36.8c10.38,10.38,11.2,26.68,2.48,38.01" style="fill: none; stroke: #000; stroke-linecap: round; stroke-linejoin: round; stroke-width: 6px;"/>
        <circle cx="33.92" cy="111.73" r="11.2" style="fill: none; stroke: #000; stroke-linecap: round; stroke-linejoin: round; stroke-width: 6px;"/>
        <circle cx="72.97" cy="72.68" r="11.2" style="fill: none; stroke: #000; stroke-linecap: round; stroke-linejoin: round; stroke-width: 6px;"/>
        <path d="M119.95,41.55c-4.37,4.37-11.47,4.37-15.84,0-4.37-4.37-4.37-11.47,0-15.84,4.37-4.37,11.47-4.37,15.84,0,4.37,4.37,4.37,11.47,0,15.84Z" style="fill: none; stroke: #000; stroke-linecap: round; stroke-linejoin: round; stroke-width: 6px;"/>
        <path d="M77.36,155.17c-4.37,4.37-11.47,4.37-15.84,0-4.37-4.37-4.37-11.47,0-15.84,4.37-4.37,11.47-4.37,15.84,0,4.37,4.37,4.37,11.47,0,15.84Z" style="fill: none; stroke: #000; stroke-linecap: round; stroke-linejoin: round; stroke-width: 6px;"/>
        <path d="M155.47,77.06c-4.37,4.37-11.47,4.37-15.84,0-4.37-4.37-4.37-11.47,0-15.84,4.37-4.37,11.47-4.37,15.84,0,4.37,4.37,4.37,11.47,0,15.84Z" style="fill: none; stroke: #000; stroke-linecap: round; stroke-linejoin: round; stroke-width: 6px;"/>
      </g>
    </g>
  </g>
</svg>