<svg data-name="Layer 1" xmlns="http://www.w3.org/2000/svg" viewBox="0 0 64 64" aria-hidden='true'>
  <path d="M14.52,22.8v41.23H.79V22.8H14.52Zm.87-12.72c.08,1.91-.69,3.77-2.1,5.07-1.54,1.39-3.57,2.11-5.64,2h-.08c-2.03,.11-4.01-.61-5.5-2C.71,13.82-.05,11.98,0,10.08c-.05-1.93,.73-3.79,2.15-5.1,1.53-1.38,3.53-2.1,5.59-2,2.04-.11,4.03,.62,5.54,2,1.38,1.33,2.15,3.18,2.12,5.1Zm48.56,30.33v23.62h-13.74v-22.04c.14-2.4-.45-4.78-1.69-6.84-1.19-1.69-3.19-2.63-5.26-2.48-1.59-.06-3.14,.45-4.39,1.43-1.17,.94-2.08,2.17-2.64,3.57-.35,1.09-.5,2.23-.46,3.37v22.98h-13.69c.06-11.06,.09-20.03,.08-26.91,0-6.87,0-10.98,0-12.32v-2h13.69v6h-.09c.51-.82,1.08-1.6,1.71-2.33,.69-.8,1.45-1.54,2.27-2.2,1.08-.82,2.31-1.44,3.62-1.81,1.55-.44,3.15-.66,4.77-.64,4.32-.18,8.5,1.55,11.44,4.73,3.17,3.9,4.73,8.86,4.38,13.88Z"/>
</svg>
