<?xml version="1.0" encoding="UTF-8"?>
<svg id="Layer_2" data-name="Layer 2" xmlns="http://www.w3.org/2000/svg" viewBox="0 0 155.32 189.65">
  <g id="Layer_1-2" data-name="Layer 1">
    <g>
      <path d="M119.12,160.03c2.42,0,4.86,1.43,5.63,4.3.24.89.45,1.81.63,2.77,2.14,11.2,2.82,19.56,8.86,19.56s10.93-10.5,10.93-23.45c0-.18,0-.35,0-.53.06-6.35,1.6-12.6,4.4-18.3,1.74-3.54,2.74-7.72,2.74-12.21,0-12.77-8.16-23.12-18.22-23.12-3.87,0-7.34.86-9.97,1.8-3.42,1.22-7.15,1.13-10.58-.04-2.7-.92-6.08-1.76-9.42-1.76-10.06,0-18.22,10.35-18.22,23.12,0,4.48,1,8.67,2.74,12.21,2.8,5.7,4.34,11.95,4.4,18.3,0,.18,0,.36,0,.53,0,12.95,4.89,23.45,10.93,23.45s6.71-8.36,8.86-19.56c.18-.95.39-1.88.63-2.77.77-2.87,3.21-4.3,5.63-4.3Z" style="fill: none; stroke: #000; stroke-linecap: round; stroke-linejoin: round; stroke-width: 6px;"/>
      <path d="M121.11,95.48c4.01-10.73,6.52-21.07,6.52-30.16,0-34.41-27.9-62.31-62.31-62.31S3,30.9,3,65.31s38.2,89.4,54.78,111.81c3.76,5.08,11.36,5.12,15.16.07,1.41-1.88,2.98-3.99,4.67-6.3" style="fill: none; stroke: #000; stroke-linecap: round; stroke-linejoin: round; stroke-width: 6px;"/>
      <path d="M28.96,66.87c-.67-21.03,16.51-38.21,37.54-37.54,19.04.61,34.55,16.12,35.16,35.16.67,21.03-16.51,38.21-37.54,37.54-19.04-.61-34.55-16.12-35.16-35.16Z" style="fill: none; stroke: #000; stroke-linecap: round; stroke-linejoin: round; stroke-width: 6px;"/>
    </g>
  </g>
</svg>