<svg data-name="Layer 1" xmlns="http://www.w3.org/2000/svg" viewBox="0 0 50 50" aria-hidden='true'>
  <path d="M25,0A16.59,16.59,0,0,1,41.56,16.56V33.44a16.56,16.56,0,0,1-33.12,0V16.56A16.59,16.59,0,0,1,25,0Zm0,5A3.07,3.07,0,0,1,28.08,8.1v4.66a3.08,3.08,0,1,1-6.16,0V8.1A3.07,3.07,0,0,1,25,5Zm1,2.05a1.46,1.46,0,0,0-2.49,1v4.66a1.47,1.47,0,0,0,.43,1,1.45,1.45,0,0,0,2.06,0,1.47,1.47,0,0,0,.43-1V8.1a1.49,1.49,0,0,0-.43-1Zm-16,12H39.94V16.56a14.94,14.94,0,0,0-29.88,0Zm29.88,1.62H10.06V33.44a14.94,14.94,0,0,0,29.88,0Z"/>
</svg>
