<?xml version="1.0" encoding="UTF-8"?>
<svg id="Layer_2" data-name="Layer 2" xmlns="http://www.w3.org/2000/svg" viewBox="0 0 191.3 179.38">
  <g id="Layer_1-2" data-name="Layer 1">
    <g>
      <path d="M57.4,82.55s3.58,4.95,7.2,10.55c2.93,4.52,6.04,8.97,6.04,15.41,0,8.58-5.93,13.77-13.25,13.77s-13.24-5.18-13.24-13.77c0-6.44,3.12-10.89,6.04-15.41,3.62-5.6,7.2-10.55,7.2-10.55Z" style="fill: none; stroke: #000; stroke-linecap: round; stroke-linejoin: round; stroke-width: 6px;"/>
      <path d="M13.01,139.86h88.86c5.52,0,10.01,4.49,10.01,10.01v16.5c0,5.52-4.49,10.01-10.01,10.01H13.01c-5.52,0-10.01-4.49-10.01-10.01v-16.5c0-5.52,4.49-10.01,10.01-10.01Z" style="fill: none; stroke: #000; stroke-linecap: round; stroke-linejoin: round; stroke-width: 6px;"/>
      <path d="M23.99,30.6h66.9c11.58,0,20.99,9.4,20.99,20.99v5.52c0,5.52-4.49,10.01-10.01,10.01H13.01c-5.52,0-10.01-4.49-10.01-10.01v-5.52c0-11.58,9.4-20.99,20.99-20.99Z" style="fill: none; stroke: #000; stroke-linecap: round; stroke-linejoin: round; stroke-width: 6px;"/>
      <path d="M76.13,30.6l-1.47-19.03c-.38-4.84-4.41-8.58-9.27-8.58h-15.9c-4.86,0-8.89,3.74-9.27,8.58l-1.47,19.03" style="fill: none; stroke: #000; stroke-linecap: round; stroke-linejoin: round; stroke-width: 6px;"/>
      <path d="M130.19,133.47l2.29,29.57c.58,7.52,6.86,13.33,14.41,13.33h24.72c7.55,0,13.82-5.81,14.41-13.33l2.29-29.57h-58.12Z" style="fill: none; stroke: #000; stroke-linecap: round; stroke-linejoin: round; stroke-width: 6px;"/>
      <line x1="100.32" y1="139.86" x2="100.32" y2="67.12" style="fill: none; stroke: #000; stroke-linecap: round; stroke-linejoin: round; stroke-width: 6px;"/>
      <line x1="14.55" y1="67.12" x2="14.55" y2="139.86" style="fill: none; stroke: #000; stroke-linecap: round; stroke-linejoin: round; stroke-width: 6px;"/>
    </g>
  </g>
</svg>