<svg width="24" height="24" viewBox="0 0 24 24" fill="none" xmlns="http://www.w3.org/2000/svg" aria-hidden="true">
<path fill-rule="evenodd" clip-rule="evenodd" d="M11.9872 0C9.61398 0.000358574 7.29416 0.704409 5.32105 2.02312C3.34793 3.34184 1.81014 5.216 0.902114 7.40864C-0.00591317 9.60128 -0.243395 12.0139 0.219686 14.3415C0.682766 16.6691 1.82561 18.8072 3.50373 20.4853C5.18186 22.1634 7.31989 23.3063 9.64749 23.7693C11.9751 24.2324 14.3877 23.9949 16.5804 23.0869C18.773 22.1789 20.6472 20.6411 21.9659 18.668C23.2846 16.6949 23.9887 14.375 23.989 12.0018C23.989 8.81874 22.7246 5.76603 20.4738 3.51525C18.223 1.26447 15.1703 0 11.9872 0ZM11.9872 20.2091C11.4482 20.2091 10.9313 19.995 10.5501 19.6138C10.169 19.2327 9.95488 18.7158 9.95488 18.1768C9.95488 17.6378 10.169 17.1208 10.5501 16.7397C10.9313 16.3586 11.4482 16.1444 11.9872 16.1444C12.5262 16.1444 13.0431 16.3586 13.4243 16.7397C13.8054 17.1208 14.0195 17.6378 14.0195 18.1768C14.0195 18.7158 13.8054 19.2327 13.4243 19.6138C13.0431 19.995 12.5262 20.2091 11.9872 20.2091ZM14.0232 12.7488C14.0074 13.278 13.786 13.7802 13.4061 14.149C13.0262 14.5177 12.5176 14.724 11.9881 14.724C11.4587 14.724 10.95 14.5177 10.5701 14.149C10.1902 13.7802 9.96886 13.278 9.95306 12.7488V6.24384C9.94493 5.97149 9.99155 5.70027 10.0902 5.44626C10.1888 5.19226 10.3374 4.96062 10.5272 4.7651C10.7169 4.56957 10.944 4.41413 11.195 4.30798C11.4459 4.20184 11.7156 4.14714 11.9881 4.14714C12.2606 4.14714 12.5303 4.20184 12.7812 4.30798C13.0322 4.41413 13.2593 4.56957 13.4491 4.7651C13.6388 4.96062 13.7874 5.19226 13.8861 5.44626C13.9847 5.70027 14.0313 5.97149 14.0232 6.24384V12.7488Z"/>
</svg>
