<svg xmlns="http://www.w3.org/2000/svg" viewBox="0 0 64 64" aria-hidden='true'>
  <path d="M31.32,.1H10.27C5.92,.1,2.37,3.7,2.37,8.1V56.1c0,4.4,3.55,8,7.9,8H31.32c4.34,0,7.9-3.6,7.9-8V8.1C39.22,3.7,35.67,.1,31.32,.1Zm-13.82,5.33h6.58c.39,0,.66,.27,.66,.67s-.26,.67-.66,.67h-6.58c-.39,0-.66-.27-.66-.67s.26-.67,.66-.67Zm4.08,54.53c-2.5,.53-4.61-1.6-3.95-4,.26-1.2,1.18-2.13,2.37-2.4,2.5-.53,4.61,1.6,3.95,4-.26,1.2-1.18,2.13-2.37,2.4Zm14.34-9.2H5.66c-.39,0-.66-.27-.66-.67V11.43c0-.4,.26-.67,.66-.67h30.27c.39,0,.66,.27,.66,.67V50.1c0,.4-.26,.67-.66,.67h-.01Z"/>
</svg>
