<svg width="121" height="121" viewBox="0 0 121 121" fill="none" xmlns="http://www.w3.org/2000/svg" aria-hidden="true">
<g clip-path="url(#clip0_1_2)">
<path d="M80.4573 58.1345L55.332 39.8703C54.4099 39.2019 53.1859 39.1013 52.1752 39.6207C51.1565 40.1361 50.5203 41.183 50.5203 42.3144V78.8306C50.5203 79.9742 51.1565 81.017 52.1752 81.5324C52.6061 81.7498 53.0772 81.8586 53.5523 81.8586C54.1724 81.8586 54.8005 81.6613 55.332 81.2707L80.4573 63.0226C81.2505 62.4388 81.7136 61.5369 81.7136 60.5786C81.7176 59.6042 81.2425 58.7062 80.4573 58.1345Z" fill="white"/>
<path d="M60.502 0.00830078C27.0822 0.00830078 0 27.0905 0 60.5103C0 93.9181 27.0822 120.992 60.502 120.992C93.9138 120.992 121 93.9141 121 60.5103C121.004 27.0905 93.9138 0.00830078 60.502 0.00830078ZM60.502 110.898C32.6709 110.898 10.1065 88.3454 10.1065 60.5103C10.1065 32.6873 32.6709 10.1067 60.502 10.1067C88.3291 10.1067 110.889 32.6833 110.889 60.5103C110.894 88.3454 88.3291 110.898 60.502 110.898Z" fill="white"/>
</g>
<defs>
<clipPath id="clip0_1_2">
<rect width="121" height="121" fill="white"/>
</clipPath>
</defs>
</svg>