<?xml version="1.0" encoding="UTF-8"?>
<svg id="Layer_2" data-name="Layer 2" xmlns="http://www.w3.org/2000/svg" viewBox="0 0 174.82 191.38">
  <g id="Layer_1-2" data-name="Layer 1">
    <g>
      <path d="M91.34,151.97H28.78c-14.24,0-25.78-11.54-25.78-25.78V42.07c0-12.05,8.26-22.17,19.43-25" style="fill: none; stroke: #000; stroke-linecap: round; stroke-linejoin: round; stroke-width: 6px;"/>
      <path d="M128.76,17.18c10.96,2.97,19.02,12.99,19.02,24.89v46.67" style="fill: none; stroke: #000; stroke-linecap: round; stroke-linejoin: round; stroke-width: 6px;"/>
      <line x1="87.07" y1="16.29" x2="104.73" y2="16.29" style="fill: none; stroke: #000; stroke-linecap: round; stroke-linejoin: round; stroke-width: 6px;"/>
      <line x1="45.85" y1="16.29" x2="64.6" y2="16.29" style="fill: none; stroke: #000; stroke-linecap: round; stroke-linejoin: round; stroke-width: 6px;"/>
      <line x1="3" y1="46.25" x2="147.78" y2="46.25" style="fill: none; stroke: #000; stroke-linecap: round; stroke-linejoin: round; stroke-width: 6px;"/>
      <line x1="34.19" y1="3" x2="34.19" y2="27.81" style="fill: none; stroke: #000; stroke-linecap: round; stroke-linejoin: round; stroke-width: 6px;"/>
      <line x1="75.39" y1="3" x2="75.39" y2="27.81" style="fill: none; stroke: #000; stroke-linecap: round; stroke-linejoin: round; stroke-width: 6px;"/>
      <line x1="116.6" y1="3" x2="116.6" y2="27.81" style="fill: none; stroke: #000; stroke-linecap: round; stroke-linejoin: round; stroke-width: 6px;"/>
      <path d="M34.71,90.86h0c-4.94,0-8.95-4.01-8.95-8.95h0c0-4.94,4.01-8.95,8.95-8.95h0c4.94,0,8.95,4.01,8.95,8.95h0c0,4.94-4.01,8.95-8.95,8.95Z" style="fill: none; stroke: #000; stroke-linecap: round; stroke-linejoin: round; stroke-width: 6px;"/>
      <path d="M116.07,90.86h0c-4.94,0-8.95-4.01-8.95-8.95h0c0-4.94,4.01-8.95,8.95-8.95h0c4.94,0,8.95,4.01,8.95,8.95h0c0,4.94-4.01,8.95-8.95,8.95Z" style="fill: none; stroke: #000; stroke-linecap: round; stroke-linejoin: round; stroke-width: 6px;"/>
      <path d="M34.71,127.8h0c-4.94,0-8.95-4.01-8.95-8.95h0c0-4.94,4.01-8.95,8.95-8.95h0c4.94,0,8.95,4.01,8.95,8.95h0c0,4.94-4.01,8.95-8.95,8.95Z" style="fill: none; stroke: #000; stroke-linecap: round; stroke-linejoin: round; stroke-width: 6px;"/>
      <path d="M75.39,127.8h0c-4.94,0-8.95-4.01-8.95-8.95h0c0-4.94,4.01-8.95,8.95-8.95h0c4.94,0,8.95,4.01,8.95,8.95h0c0,4.94-4.01,8.95-8.95,8.95Z" style="fill: none; stroke: #000; stroke-linecap: round; stroke-linejoin: round; stroke-width: 6px;"/>
      <path d="M75.39,90.86h0c-4.94,0-8.95-4.01-8.95-8.95h0c0-4.94,4.01-8.95,8.95-8.95h0c4.94,0,8.95,4.01,8.95,8.95h0c0,4.94-4.01,8.95-8.95,8.95Z" style="fill: none; stroke: #000; stroke-linecap: round; stroke-linejoin: round; stroke-width: 6px;"/>
      <path d="M135.51,159.26c2.65,0,5.31,1.56,6.16,4.7.26.97.5,1.98.69,3.03,2.34,12.25,3.08,21.39,9.68,21.39s11.95-11.48,11.95-25.64c0-.19,0-.38,0-.58.07-6.95,1.75-13.78,4.82-20.01,1.9-3.87,3-8.44,3-13.35,0-13.96-8.92-25.27-19.92-25.27-4.23,0-8.03.94-10.9,1.97-3.74,1.33-7.82,1.24-11.57-.04-2.96-1.01-6.65-1.92-10.3-1.92-11,0-19.92,11.32-19.92,25.27,0,4.9,1.1,9.48,3,13.35,3.07,6.24,4.75,13.07,4.82,20.01,0,.2,0,.39,0,.58,0,14.16,5.35,25.64,11.95,25.64s7.34-9.14,9.68-21.39c.2-1.04.43-2.05.69-3.03.85-3.14,3.51-4.7,6.16-4.7Z" style="fill: none; stroke: #000; stroke-linecap: round; stroke-linejoin: round; stroke-width: 6px;"/>
    </g>
  </g>
</svg>