<?xml version="1.0" encoding="UTF-8"?>
<svg id="Layer_2" data-name="Layer 2" xmlns="http://www.w3.org/2000/svg" viewBox="0 0 189.44 179.84">
  <g id="Layer_1-2" data-name="Layer 1">
    <g>
      <g>
        <path d="M95.22,168.9c-3.95,2.16-8.17,4.43-12.68,6.82-2.82,1.5-6.21,1.5-9.04,0C6.26,140.02,3,133.25,3,47.6c0-4.59.12-9.14.36-13.62.29-5.51,5.18-9.61,10.67-9.02,28.16,2.99,47.89-10.64,57.44-19.4,3.71-3.41,9.38-3.41,13.09,0,9.55,8.77,29.29,22.39,57.45,19.4,5.48-.58,10.38,3.5,10.67,9,.15,2.74.25,5.5.3,8.28" style="fill: none; stroke: #000; stroke-linecap: round; stroke-linejoin: round; stroke-width: 6px;"/>
        <path d="M74.68,152.06c-24.1-13.06-36.78-21.4-42.5-31.28-7.31-12.65-7.79-36.38-7.78-74.03,21.8-.58,38.95-8.7,50.9-17" style="fill: none; stroke: #000; stroke-linecap: round; stroke-linejoin: round; stroke-width: 6px;"/>
      </g>
      <path d="M139.66,129.51c3.42,0,6.84,2.02,7.93,6.06.34,1.25.64,2.56.89,3.9,3.02,15.78,3.97,27.56,12.48,27.56s15.4-14.79,15.4-33.04c0-.25,0-.5,0-.75.08-8.95,2.26-17.75,6.21-25.79,2.45-4.99,3.87-10.88,3.87-17.2,0-17.99-11.49-32.57-25.66-32.57-5.05,0-9.76,1.85-13.73,5.05-2.16,1.74-4.77,2.6-7.39,2.6s-5.23-.86-7.39-2.6c-3.97-3.19-8.68-5.05-13.73-5.05-14.17,0-25.66,14.58-25.66,32.57,0,6.32,1.41,12.21,3.87,17.2,3.95,8.04,6.12,16.84,6.21,25.79,0,.25,0,.5,0,.75,0,18.25,6.89,33.04,15.4,33.04s9.46-11.78,12.48-27.56c.25-1.34.55-2.65.89-3.9,1.09-4.04,4.52-6.06,7.93-6.06Z" style="fill: none; stroke: #000; stroke-linecap: round; stroke-linejoin: round; stroke-width: 6px;"/>
    </g>
  </g>
</svg>