<?xml version="1.0" encoding="UTF-8"?>
<svg id="uuid-7ab209d1-8481-49dc-8368-17ef1e0a5079" data-name="Layer 1" xmlns="http://www.w3.org/2000/svg" viewBox="0 0 177.64 83.35">
  <defs>
    <style>
      .uuid-81cff13f-56aa-4ee9-9de4-17f7c6bf7367 {
        stroke-width: 0px;
      }
    </style>
  </defs>
  <g>
    <path class="uuid-81cff13f-56aa-4ee9-9de4-17f7c6bf7367" d="m16.78,47.45c-1.24.76-2.07,1.73-2.35,2.69-.83,2.9,1.38,5.52,6.49,5.52,3.45,0,6.08-1.24,6.91-3.52,1.24-3.52-2.76-6.63-7.39-10.08-6.15-4.56-13.19-10.08-10.7-18.65,2.35-8.01,12.22-13.81,23.27-13.81s14.71,5.66,12.78,11.46c-1.66,5.04-7.53,10.15-16.51,11.95l-.76-3.31c6.91-1.86,10.5-5.18,11.67-8.49,1.45-4.21-1.45-7.73-7.53-7.73-8.08,0-14.99,3.04-16.44,9.53-1.17,5.25,3.52,8.98,8.56,12.98,5.66,4.49,11.4,9.05,8.7,16.02-1.8,4.63-6.7,7.53-12.98,7.53-8.7,0-12.15-4.83-11.4-8.98.55-2.9,3.8-5.25,6.42-6.01l1.24,2.9Z"/>
    <path class="uuid-81cff13f-56aa-4ee9-9de4-17f7c6bf7367" d="m57.32,47.45c-3.73,5.46-11.74,11.95-17.4,11.95-3.66,0-4.7-3.25-2.83-8.63l4.28-12.43h-3.66l1.31-3.8h3.66l3.31-9.53h6.08l-3.31,9.53h6.56l-1.31,3.8h-6.56l-4.63,13.4c-.55,1.66.14,2.21,1.04,2.21,3.31,0,8.91-4.42,11.4-8.08l2.07,1.59Z"/>
    <path class="uuid-81cff13f-56aa-4ee9-9de4-17f7c6bf7367" d="m58.91,51.73c-.55,1.66.14,2.21,1.04,2.21,2.62,0,7.18-3.87,10.01-8.08l2.07,1.59c-3.66,5.46-10.29,11.95-16.02,11.95-3.66,0-4.7-3.18-2.83-8.56l5.59-16.3h6.08l-5.94,17.2Zm1.24-25.97c.34-2.21,2.42-4.01,4.7-4.01s3.8,1.8,3.38,4.01c-.35,2.28-2.42,4.07-4.7,4.07s-3.8-1.8-3.38-4.07Z"/>
    <path class="uuid-81cff13f-56aa-4ee9-9de4-17f7c6bf7367" d="m100.28,47.45c-3.66,5.46-10.29,11.95-16.02,11.95-3.66,0-4.9-3.04-2.83-8.56l3.38-9.12c.62-1.66.07-2.42-.83-2.42-.97,0-4.14,1.04-9.39,9.67l-3.31,9.74h-6.08l8.29-24.17h6.08l-2.42,6.98c3.52-5.04,7.6-7.67,11.33-7.67s3.87,3.66,2.83,6.49l-4.21,11.39c-.62,1.66.21,2.21,1.04,2.21,2.69,0,7.25-3.87,10.08-8.08l2.07,1.59Z"/>
    <path class="uuid-81cff13f-56aa-4ee9-9de4-17f7c6bf7367" d="m122.59,47.45c-4.14,6.08-10.7,11.95-18.16,11.95-5.59,0-8.42-3.04-10.36-8.43.83-.83,2.49-2.76,4.14-5.11,2.83-4.07,5.8-8.56,8.49-13.12h4.63c-1.66,1.73-2.69,5.39.21,11.81,2.07,4.49,2.21,7.04,1.04,8.77,2.9-1.52,5.52-3.94,7.94-7.46l2.07,1.59Zm-16.37-1.45c-.69-1.8-1.24-3.59-1.38-5.25-1.38,2.14-3.04,4.49-4.56,6.7-.9,1.31-1.86,2.49-2.69,3.45.62,1.86,2.28,3.04,4.63,3.04,3.8,0,5.66-3.66,4.01-7.94Z"/>
    <path class="uuid-81cff13f-56aa-4ee9-9de4-17f7c6bf7367" d="m141.1,46.76c-.07.34-.14.62-.28.97-2.42,6.91-7.94,11.67-14.16,11.67-7.25,0-10.22-6.97-7.87-13.6,2.49-6.98,8.36-11.95,15.06-11.95,5.66,0,8.15,4.49,7.87,9.53h.48c2.28,0,5.25-1.52,6.7-3.59l2.07,1.59c-2.14,3.11-6.15,5.04-9.88,5.39Zm-4.07-.28c-2.83-.83-4.42-2.97-3.87-5.87.21-1.17.9-2,1.73-2.56-.41-.21-.97-.28-1.59-.28-4,0-7.18,4.14-8.29,7.53-1.66,5.11-.14,8.63,3.73,8.63,3.38,0,6.63-2.69,8.29-7.46Z"/>
    <path class="uuid-81cff13f-56aa-4ee9-9de4-17f7c6bf7367" d="m177.36,47.45c-3.66,5.46-10.29,11.95-16.02,11.95-3.66,0-4.9-3.04-2.83-8.56l3.38-9.12c.62-1.66.07-2.42-.83-2.42-.97,0-4.14,1.04-9.39,9.67l-3.32,9.74h-6.08l8.29-24.17h6.08l-2.42,6.98c3.52-5.04,7.6-7.67,11.33-7.67s3.87,3.66,2.83,6.49l-4.21,11.39c-.62,1.66.21,2.21,1.04,2.21,2.69,0,7.25-3.87,10.08-8.08l2.07,1.59Z"/>
  </g>
  <g>
    <path class="uuid-81cff13f-56aa-4ee9-9de4-17f7c6bf7367" d="m18.41,78.65c-4.37,0-8.47-3.55-8.47-8.21s3.77-8.38,8.47-8.38,8.49,3.72,8.49,8.29-3.83,8.29-8.49,8.29Zm-.02-15.13c-3.79,0-6.84,3.21-6.84,6.93s3.14,6.76,6.86,6.76,6.89-3.14,6.89-6.82-3.05-6.86-6.91-6.86Z"/>
    <path class="uuid-81cff13f-56aa-4ee9-9de4-17f7c6bf7367" d="m37.96,78.37l-5.43-7.25h1.56c2.84,0,4.53-1.45,4.53-3.64,0-1.52-.93-3.68-4.61-3.68h-3.05v14.57h-1.6v-16.02h4.83c4.18,0,6.04,2.47,6.04,5.17s-1.95,4.66-4.76,4.87l4.53,5.98h-2.01Z"/>
    <path class="uuid-81cff13f-56aa-4ee9-9de4-17f7c6bf7367" d="m44.91,78.37v-14.57h-3.68v-1.45h8.94v1.45h-3.66v14.57h-1.6Z"/>
    <path class="uuid-81cff13f-56aa-4ee9-9de4-17f7c6bf7367" d="m61.86,78.37v-7.51h-8.29v7.51h-1.6v-16.02h1.6v7.06h8.29v-7.06h1.6v16.02h-1.6Z"/>
    <path class="uuid-81cff13f-56aa-4ee9-9de4-17f7c6bf7367" d="m74.51,78.65c-4.37,0-8.47-3.55-8.47-8.21s3.77-8.38,8.47-8.38,8.49,3.72,8.49,8.29-3.83,8.29-8.49,8.29Zm-.02-15.13c-3.79,0-6.84,3.21-6.84,6.93s3.14,6.76,6.86,6.76,6.89-3.14,6.89-6.82-3.05-6.86-6.91-6.86Z"/>
    <path class="uuid-81cff13f-56aa-4ee9-9de4-17f7c6bf7367" d="m85.53,78.37v-16.02h4.74c1.93,0,3.88.48,5.3,1.41,2.17,1.43,3.49,3.98,3.49,6.69,0,1.99-.76,3.92-2.32,5.52-1.56,1.62-3.83,2.4-6.54,2.4h-4.68Zm4.55-1.45c2.66,0,4.44-.69,5.61-1.93,1.21-1.3,1.78-2.97,1.78-4.63,0-2.08-.87-3.9-2.56-5.2-1.13-.87-2.84-1.36-4.89-1.36h-2.88v13.12h2.94Z"/>
    <path class="uuid-81cff13f-56aa-4ee9-9de4-17f7c6bf7367" d="m109.43,78.65c-4.37,0-8.47-3.55-8.47-8.21s3.77-8.38,8.47-8.38,8.49,3.72,8.49,8.29-3.83,8.29-8.49,8.29Zm-.02-15.13c-3.79,0-6.84,3.21-6.84,6.93s3.14,6.76,6.86,6.76,6.89-3.14,6.89-6.82-3.05-6.86-6.91-6.86Z"/>
    <path class="uuid-81cff13f-56aa-4ee9-9de4-17f7c6bf7367" d="m131.62,78.37l-9.5-14.1h-.04v14.1h-1.6v-16.02h2.17l8.94,13.29h.04v-13.29h1.6v16.02h-1.6Z"/>
    <path class="uuid-81cff13f-56aa-4ee9-9de4-17f7c6bf7367" d="m138.68,78.37v-14.57h-3.68v-1.45h8.94v1.45h-3.66v14.57h-1.6Z"/>
    <path class="uuid-81cff13f-56aa-4ee9-9de4-17f7c6bf7367" d="m145.73,78.37v-16.02h1.6v16.02h-1.6Z"/>
    <path class="uuid-81cff13f-56aa-4ee9-9de4-17f7c6bf7367" d="m165.68,74.17c-1.56,2.79-4.35,4.48-7.38,4.48-4.57,0-8.38-3.62-8.38-8.27s3.75-8.29,8.36-8.29c2.97,0,6.06,1.71,7.34,4.37h-1.8c-1.23-1.84-3.4-2.92-5.56-2.92-3.57,0-6.73,3.16-6.73,6.86s3.16,6.8,6.76,6.8c2.19,0,4.16-1.1,5.61-3.03h1.8Z"/>
    <path class="uuid-81cff13f-56aa-4ee9-9de4-17f7c6bf7367" d="m174.83,66.42c0-1.65-1.34-2.9-2.84-2.9-1.65,0-2.9,1.23-2.9,2.79,0,1.36.82,2.21,3.1,2.79,3.46.89,4.63,2.69,4.63,4.85,0,2.62-2.14,4.7-4.83,4.7-2.84,0-4.89-1.91-4.94-4.76h1.6c.11,2.06,1.41,3.31,3.33,3.31,1.82,0,3.23-1.43,3.23-3.18s-1.15-2.71-3.25-3.31c-2.29-.65-4.48-1.41-4.48-4.33,0-2.53,2.04-4.31,4.5-4.31s4.44,1.88,4.44,4.35h-1.6Z"/>
  </g>
</svg>