<?xml version="1.0" encoding="UTF-8"?>
<svg id="Layer_2" data-name="Layer 2" xmlns="http://www.w3.org/2000/svg" viewBox="0 0 228.62 191.95">
  <g id="Layer_1-2" data-name="Layer 1">
    <g>
      <path d="M94.7,156.73c3.48,19.07,6.45,32.21,17.85,32.21,13.69,0,24.78-23.8,24.78-53.16" style="fill: none; stroke: #000; stroke-linecap: round; stroke-linejoin: round; stroke-width: 6px;"/>
      <path d="M143.71,31.48c-7.58-11.3-18.86-18.46-31.46-18.46-19.15,0-33.98,9.33-33.98,9.33,0,0-17.23-9.33-33.98-9.33C21.49,13.01,3,36.48,3,65.42c0,10.16,2.28,19.65,6.22,27.67,6.36,12.93,9.85,27.09,9.99,41.5.01.41.01.81.01,1.21,0,29.36,11.09,53.16,24.78,53.16s15.22-18.95,20.08-44.35c.41-2.16.89-4.26,1.44-6.27,1.75-6.5,7.27-9.75,12.77-9.75" style="fill: none; stroke: #000; stroke-linecap: round; stroke-linejoin: round; stroke-width: 6px;"/>
      <path d="M78.27,22.34s-12.43,7.07-24.86,7.07" style="fill: none; stroke: #000; stroke-linecap: round; stroke-linejoin: round; stroke-width: 6px;"/>
      <g>
        <path d="M172.66,28.11l-67.17,67.17c-2.58,2.58-2.58,6.76,0,9.34l18.51,18.51c2.58,2.58,6.76,2.58,9.34,0l67.17-67.17" style="fill: none; stroke: #000; stroke-linecap: round; stroke-linejoin: round; stroke-width: 6px;"/>
        <line x1="194.71" y1="50.16" x2="218.39" y2="26.49" style="fill: none; stroke: #000; stroke-linecap: round; stroke-linejoin: round; stroke-width: 6px;"/>
        <line x1="202.13" y1="10.23" x2="178.45" y2="33.9" style="fill: none; stroke: #000; stroke-linecap: round; stroke-linejoin: round; stroke-width: 6px;"/>
        <line x1="209.01" y1="64.46" x2="164.16" y2="19.61" style="fill: none; stroke: #000; stroke-linecap: round; stroke-linejoin: round; stroke-width: 6px;"/>
        <line x1="225.62" y1="33.72" x2="194.9" y2="3" style="fill: none; stroke: #000; stroke-linecap: round; stroke-linejoin: round; stroke-width: 6px;"/>
        <line x1="114.75" y1="113.87" x2="82.52" y2="146.09" style="fill: none; stroke: #000; stroke-linecap: round; stroke-linejoin: round; stroke-width: 6px;"/>
        <line x1="120.12" y1="80.64" x2="134.05" y2="94.57" style="fill: none; stroke: #000; stroke-linecap: round; stroke-linejoin: round; stroke-width: 6px;"/>
        <line x1="136.75" y1="64.02" x2="150.67" y2="77.94" style="fill: none; stroke: #000; stroke-linecap: round; stroke-linejoin: round; stroke-width: 6px;"/>
        <line x1="153.37" y1="47.4" x2="167.29" y2="61.32" style="fill: none; stroke: #000; stroke-linecap: round; stroke-linejoin: round; stroke-width: 6px;"/>
      </g>
    </g>
  </g>
</svg>