<svg aria-hidden='true' data-name="Layer 1" xmlns="http://www.w3.org/2000/svg" viewBox="0 0 64 64">
  <path d="M59.43,25.15c-5.43,.59-10.09-1.56-14.73-4.29v1.1c0,6.63,.13,13.27-.1,19.9-.23,6.8-2.67,12.83-8,17.31-11.32,9.51-27.39,4.35-31.2-10.17-2.07-7.88-.29-15.02,5.84-20.64,3.51-3.22,7.85-4.67,12.52-5.27,.98-.13,1.99-.18,3.09-.28v10.74c-1.39,.35-2.78,.64-4.12,1.04-.97,.27-1.91,.62-2.81,1.05-1.24,.55-2.33,1.38-3.19,2.43-.86,1.04-1.47,2.27-1.78,3.59-.31,1.32-.31,2.69,0,4.01,.31,1.32,.92,2.55,1.78,3.59,1.03,1.42,2.43,2.53,4.05,3.21,1.62,.68,3.39,.91,5.13,.66,3.5-.43,5.69-2.63,6.98-5.78,.91-2.52,1.32-5.19,1.18-7.87-.05-13.03-.05-26.07-.07-39.1,0-.13,.02-.26,.05-.38h10.46c1.16,8.73,5.61,14.27,14.89,15.02l.03,10.14Z"/>
</svg>
