<svg aria-hidden='true' data-name="Layer 1" xmlns="http://www.w3.org/2000/svg" viewBox="0 0 64 64">
  <path d="M30.16,30.65c.13,.13,.28,.23,.44,.3,.17,.07,.34,.11,.52,.11s.36-.04,.52-.11c.17-.07,.32-.17,.44-.3,.15-.13,.26-.3,.32-.49,.57-2.02,.81-4.12,.7-6.21V3.61s1.06-6.41-12.81-2.14c-13.87,4.27,5.28,24.64,7.44,26.79l2.41,2.4Z"/>
  <path d="M37.29,35.71c-.04,.17-.05,.34-.02,.51,.03,.17,.09,.33,.18,.48,.09,.15,.21,.27,.35,.37,.14,.1,.3,.17,.47,.2,1.31-.08,2.59-.42,3.77-1.01l11.53-5s4-.78-2.87-10.03c-6.87-9.25-12.3,10.02-12.8,12.07l-.6,2.41Z"/>
  <path d="M37.75,42.07c-.7,0-1.41,.68-1.28,1.28,.35,1.26,.96,2.44,1.79,3.45l7.39,10.25s1.64,3.74,9.12-5c7.48-8.74-12.54-9.78-14.66-9.9l-2.37-.08Z"/>
  <path d="M27.36,40.85c.17-.04,.32-.11,.46-.2s.26-.22,.35-.37c.09-.14,.15-.31,.18-.47,.03-.17,.02-.34-.02-.51-.64-1.16-1.51-2.16-2.56-2.96l-9.48-8.29s-2.43-3.27-7.82,6.92c-5.38,10.19,14.32,6.79,16.48,6.41l2.41-.53Z"/>
  <path d="M32.51,44.17c-.03-.17-.1-.33-.2-.47-.1-.14-.22-.26-.37-.35-.15-.09-.31-.15-.48-.18s-.34-.02-.51,.02c-1.15,.64-2.16,1.51-2.95,2.56l-8.28,9.52s-3.25,2.45,6.96,7.81c10.21,5.37,6.74-14.32,6.32-16.49l-.49-2.42Z"/>
</svg>
