<svg aria-hidden='true' data-name="Layer 1" xmlns="http://www.w3.org/2000/svg" viewBox="0 0 64 64">
  <path d="M60.29,12.54c-1.14-1.04-2.22-1.68-6.55-2.08-5.38-.51-12.76-.58-18.3-.58h-6.87c-5.55,0-12.89,.08-18.31,.58-4.33,.4-5.38,1.05-6.55,2.08C.71,15.27,.08,22.71,0,30.04v4.11c.08,7.27,.77,14.61,3.71,17.31,1.15,1.03,2.22,1.68,6.55,2.08,5.38,.5,12.76,.58,18.31,.58h6.87c5.54,0,12.89-.08,18.3-.58,4.33-.4,5.38-1.05,6.55-2.08,2.95-2.68,3.61-9.92,3.71-17.13v-4.66c-.09-7.21-.75-14.45-3.71-17.13ZM25.74,41.77V22.77l16.15,9.23-16.15,9.77Z"/>
</svg>
